<?xml version="1.0" encoding="UTF-8"?>
<svg xmlns="http://www.w3.org/2000/svg" width="1432" height="550" viewBox="0 0 1432 550" fill="none">
  <rect width="1356" height="463.525" transform="translate(38 30)" fill="white"></rect>
  <g filter="url(#filter0_bd_265_142252)">
    <rect x="38" y="30" width="1356" height="100" rx="12" fill="#204BDB"></rect>
  </g>
  <path d="M518.963 89H515.588L521.733 71.5455H525.636L531.79 89H528.415L523.753 75.125H523.616L518.963 89ZM519.074 82.1562H528.278V84.696H519.074V82.1562ZM544.005 75.9091L539.343 89H535.934L531.272 75.9091H534.562L537.57 85.6335H537.707L540.724 75.9091H544.005ZM549.532 89.2642C548.702 89.2642 547.955 89.1165 547.29 88.821C546.631 88.5199 546.109 88.0767 545.722 87.4915C545.342 86.9062 545.151 86.1847 545.151 85.3267C545.151 84.5881 545.288 83.9773 545.56 83.4943C545.833 83.0114 546.205 82.625 546.677 82.3352C547.148 82.0455 547.68 81.8267 548.271 81.679C548.867 81.5256 549.484 81.4148 550.12 81.3466C550.887 81.267 551.509 81.196 551.987 81.1335C552.464 81.0653 552.81 80.9631 553.026 80.8267C553.248 80.6847 553.359 80.4659 553.359 80.1705V80.1193C553.359 79.4773 553.168 78.9801 552.788 78.6278C552.407 78.2756 551.859 78.0994 551.143 78.0994C550.387 78.0994 549.788 78.2642 549.344 78.5938C548.907 78.9233 548.612 79.3125 548.458 79.7614L545.577 79.3523C545.805 78.5568 546.18 77.892 546.702 77.358C547.225 76.8182 547.864 76.4148 548.62 76.1477C549.376 75.875 550.211 75.7386 551.126 75.7386C551.756 75.7386 552.384 75.8125 553.009 75.9602C553.634 76.108 554.205 76.3523 554.722 76.6932C555.239 77.0284 555.654 77.4858 555.967 78.0653C556.285 78.6449 556.444 79.3693 556.444 80.2386V89H553.478V87.2017H553.376C553.188 87.5653 552.924 87.9062 552.583 88.2244C552.248 88.5369 551.825 88.7898 551.313 88.983C550.808 89.1705 550.214 89.2642 549.532 89.2642ZM550.333 86.9972C550.952 86.9972 551.489 86.875 551.944 86.6307C552.398 86.3807 552.748 86.0511 552.992 85.642C553.242 85.233 553.367 84.7869 553.367 84.304V82.7614C553.271 82.8409 553.106 82.9148 552.873 82.983C552.646 83.0511 552.39 83.1108 552.106 83.1619C551.822 83.2131 551.54 83.2585 551.262 83.2983C550.984 83.3381 550.742 83.3722 550.538 83.4006C550.077 83.4631 549.665 83.5653 549.302 83.7074C548.938 83.8494 548.651 84.0483 548.441 84.304C548.231 84.554 548.126 84.8778 548.126 85.2756C548.126 85.8438 548.333 86.2727 548.748 86.5625C549.163 86.8523 549.691 86.9972 550.333 86.9972ZM562.631 71.5455V89H559.546V71.5455H562.631ZM565.804 89V75.9091H568.889V89H565.804ZM567.355 74.0511C566.866 74.0511 566.446 73.8892 566.094 73.5653C565.741 73.2358 565.565 72.8409 565.565 72.3807C565.565 71.9148 565.741 71.5199 566.094 71.196C566.446 70.8665 566.866 70.7017 567.355 70.7017C567.849 70.7017 568.27 70.8665 568.616 71.196C568.969 71.5199 569.145 71.9148 569.145 72.3807C569.145 72.8409 568.969 73.2358 568.616 73.5653C568.27 73.8892 567.849 74.0511 567.355 74.0511ZM575.829 89.2642C574.999 89.2642 574.252 89.1165 573.587 88.821C572.928 88.5199 572.406 88.0767 572.019 87.4915C571.638 86.9062 571.448 86.1847 571.448 85.3267C571.448 84.5881 571.585 83.9773 571.857 83.4943C572.13 83.0114 572.502 82.625 572.974 82.3352C573.445 82.0455 573.977 81.8267 574.567 81.679C575.164 81.5256 575.781 81.4148 576.417 81.3466C577.184 81.267 577.806 81.196 578.283 81.1335C578.761 81.0653 579.107 80.9631 579.323 80.8267C579.545 80.6847 579.656 80.4659 579.656 80.1705V80.1193C579.656 79.4773 579.465 78.9801 579.085 78.6278C578.704 78.2756 578.156 78.0994 577.44 78.0994C576.684 78.0994 576.085 78.2642 575.641 78.5938C575.204 78.9233 574.908 79.3125 574.755 79.7614L571.874 79.3523C572.102 78.5568 572.477 77.892 572.999 77.358C573.522 76.8182 574.161 76.4148 574.917 76.1477C575.673 75.875 576.508 75.7386 577.423 75.7386C578.053 75.7386 578.681 75.8125 579.306 75.9602C579.931 76.108 580.502 76.3523 581.019 76.6932C581.536 77.0284 581.951 77.4858 582.263 78.0653C582.582 78.6449 582.741 79.3693 582.741 80.2386V89H579.775V87.2017H579.673C579.485 87.5653 579.221 87.9062 578.88 88.2244C578.545 88.5369 578.121 88.7898 577.61 88.983C577.104 89.1705 576.511 89.2642 575.829 89.2642ZM576.63 86.9972C577.249 86.9972 577.786 86.875 578.241 86.6307C578.695 86.3807 579.045 86.0511 579.289 85.642C579.539 85.233 579.664 84.7869 579.664 84.304V82.7614C579.567 82.8409 579.403 82.9148 579.17 82.983C578.942 83.0511 578.687 83.1108 578.403 83.1619C578.119 83.2131 577.837 83.2585 577.559 83.2983C577.281 83.3381 577.039 83.3722 576.835 83.4006C576.374 83.4631 575.962 83.5653 575.599 83.7074C575.235 83.8494 574.948 84.0483 574.738 84.304C574.528 84.554 574.423 84.8778 574.423 85.2756C574.423 85.8438 574.63 86.2727 575.045 86.5625C575.46 86.8523 575.988 86.9972 576.63 86.9972ZM585.979 89V71.5455H589.065V78.0739H589.192C589.352 77.7557 589.576 77.4176 589.866 77.0597C590.156 76.696 590.548 76.3864 591.042 76.1307C591.536 75.8693 592.167 75.7386 592.934 75.7386C593.945 75.7386 594.857 75.9972 595.67 76.5142C596.488 77.0256 597.136 77.7841 597.613 78.7898C598.096 79.7898 598.337 81.017 598.337 82.4716C598.337 83.9091 598.102 85.1307 597.63 86.1364C597.158 87.142 596.516 87.9091 595.704 88.4375C594.891 88.9659 593.971 89.2301 592.942 89.2301C592.192 89.2301 591.57 89.1051 591.076 88.8551C590.582 88.6051 590.184 88.304 589.883 87.9517C589.587 87.5937 589.357 87.2557 589.192 86.9375H589.013V89H585.979ZM589.005 82.4545C589.005 83.3011 589.124 84.0426 589.363 84.679C589.607 85.3153 589.957 85.8125 590.411 86.1705C590.871 86.5227 591.428 86.6989 592.082 86.6989C592.763 86.6989 593.335 86.517 593.795 86.1534C594.255 85.7841 594.602 85.2812 594.835 84.6449C595.073 84.0028 595.192 83.2727 595.192 82.4545C595.192 81.642 595.076 80.9205 594.843 80.2898C594.61 79.6591 594.263 79.1648 593.803 78.8068C593.343 78.4489 592.769 78.2699 592.082 78.2699C591.423 78.2699 590.863 78.4432 590.403 78.7898C589.942 79.1364 589.593 79.6222 589.354 80.2472C589.121 80.8722 589.005 81.608 589.005 82.4545ZM604.045 71.5455V89H600.96V71.5455H604.045ZM613.013 89.2557C611.701 89.2557 610.567 88.983 609.613 88.4375C608.664 87.8864 607.934 87.108 607.423 86.1023C606.911 85.0909 606.656 83.9006 606.656 82.5312C606.656 81.1847 606.911 80.0028 607.423 78.9858C607.94 77.9631 608.661 77.1676 609.587 76.5994C610.513 76.0256 611.602 75.7386 612.852 75.7386C613.658 75.7386 614.42 75.8693 615.136 76.1307C615.857 76.3864 616.494 76.7841 617.045 77.3239C617.602 77.8636 618.039 78.5511 618.357 79.3864C618.675 80.2159 618.835 81.2045 618.835 82.3523V83.2983H608.104V81.2188H615.877C615.871 80.6278 615.744 80.1023 615.494 79.642C615.244 79.1761 614.894 78.8097 614.445 78.5426C614.002 78.2756 613.485 78.142 612.894 78.142C612.263 78.142 611.71 78.2955 611.232 78.6023C610.755 78.9034 610.383 79.3011 610.116 79.7955C609.854 80.2841 609.721 80.821 609.715 81.4062V83.2216C609.715 83.983 609.854 84.6364 610.133 85.1818C610.411 85.7216 610.8 86.1364 611.3 86.4261C611.8 86.7102 612.386 86.8523 613.056 86.8523C613.505 86.8523 613.911 86.7898 614.275 86.6648C614.638 86.5341 614.954 86.3438 615.221 86.0938C615.488 85.8438 615.69 85.5341 615.826 85.1648L618.707 85.4886C618.525 86.25 618.178 86.9148 617.667 87.483C617.161 88.0455 616.513 88.483 615.724 88.7955C614.934 89.1023 614.031 89.2557 613.013 89.2557ZM637.02 76.3438C636.94 75.5994 636.605 75.0199 636.014 74.6051C635.429 74.1903 634.668 73.983 633.73 73.983C633.071 73.983 632.506 74.0824 632.034 74.2812C631.563 74.4801 631.202 74.75 630.952 75.0909C630.702 75.4318 630.574 75.821 630.568 76.2585C630.568 76.6222 630.651 76.9375 630.815 77.2045C630.986 77.4716 631.216 77.6989 631.506 77.8864C631.795 78.0682 632.116 78.2216 632.469 78.3466C632.821 78.4716 633.176 78.5767 633.534 78.6619L635.17 79.071C635.83 79.2244 636.463 79.4318 637.071 79.6932C637.685 79.9545 638.233 80.2841 638.716 80.6818C639.205 81.0795 639.591 81.5597 639.875 82.1222C640.159 82.6847 640.301 83.3437 640.301 84.0994C640.301 85.1222 640.04 86.0227 639.517 86.8011C638.994 87.5739 638.239 88.179 637.25 88.6165C636.267 89.0483 635.077 89.2642 633.679 89.2642C632.321 89.2642 631.142 89.054 630.142 88.6335C629.148 88.2131 628.369 87.5994 627.807 86.7926C627.25 85.9858 626.949 85.0028 626.903 83.8438H630.014C630.06 84.4517 630.247 84.9574 630.577 85.3608C630.906 85.7642 631.335 86.0653 631.864 86.2642C632.398 86.4631 632.994 86.5625 633.653 86.5625C634.341 86.5625 634.943 86.4602 635.46 86.2557C635.983 86.0455 636.392 85.7557 636.688 85.3864C636.983 85.0114 637.134 84.5739 637.139 84.0739C637.134 83.6193 637 83.2443 636.739 82.9489C636.477 82.6477 636.111 82.3977 635.639 82.1989C635.173 81.9943 634.628 81.8125 634.003 81.6534L632.017 81.142C630.58 80.7727 629.443 80.2131 628.608 79.4631C627.778 78.7074 627.364 77.7045 627.364 76.4545C627.364 75.4261 627.642 74.5256 628.199 73.7528C628.761 72.9801 629.526 72.3807 630.491 71.9545C631.457 71.5227 632.551 71.3068 633.773 71.3068C635.011 71.3068 636.097 71.5227 637.028 71.9545C637.966 72.3807 638.702 72.9744 639.236 73.7358C639.77 74.4915 640.045 75.3608 640.062 76.3438H637.02ZM648.779 89.2557C647.467 89.2557 646.333 88.983 645.379 88.4375C644.43 87.8864 643.7 87.108 643.188 86.1023C642.677 85.0909 642.421 83.9006 642.421 82.5312C642.421 81.1847 642.677 80.0028 643.188 78.9858C643.705 77.9631 644.427 77.1676 645.353 76.5994C646.279 76.0256 647.367 75.7386 648.617 75.7386C649.424 75.7386 650.185 75.8693 650.901 76.1307C651.623 76.3864 652.259 76.7841 652.81 77.3239C653.367 77.8636 653.805 78.5511 654.123 79.3864C654.441 80.2159 654.6 81.2045 654.6 82.3523V83.2983H643.87V81.2188H651.643C651.637 80.6278 651.509 80.1023 651.259 79.642C651.009 79.1761 650.66 78.8097 650.211 78.5426C649.768 78.2756 649.251 78.142 648.66 78.142C648.029 78.142 647.475 78.2955 646.998 78.6023C646.521 78.9034 646.148 79.3011 645.881 79.7955C645.62 80.2841 645.487 80.821 645.481 81.4062V83.2216C645.481 83.983 645.62 84.6364 645.898 85.1818C646.177 85.7216 646.566 86.1364 647.066 86.4261C647.566 86.7102 648.151 86.8523 648.822 86.8523C649.271 86.8523 649.677 86.7898 650.04 86.6648C650.404 86.5341 650.719 86.3438 650.987 86.0938C651.254 85.8438 651.455 85.5341 651.592 85.1648L654.472 85.4886C654.29 86.25 653.944 86.9148 653.433 87.483C652.927 88.0455 652.279 88.483 651.489 88.7955C650.7 89.1023 649.796 89.2557 648.779 89.2557ZM663.747 75.9091V78.2955H656.222V75.9091H663.747ZM658.08 72.7727H661.165V85.0625C661.165 85.4773 661.227 85.7955 661.352 86.017C661.483 86.233 661.653 86.3807 661.864 86.4602C662.074 86.5398 662.307 86.5795 662.562 86.5795C662.756 86.5795 662.932 86.5653 663.091 86.5369C663.256 86.5085 663.381 86.483 663.466 86.4602L663.986 88.8722C663.821 88.929 663.585 88.9915 663.278 89.0597C662.977 89.1278 662.608 89.1676 662.17 89.179C661.398 89.2017 660.702 89.0852 660.082 88.8295C659.463 88.5682 658.972 88.1648 658.608 87.6193C658.25 87.0739 658.074 86.392 658.08 85.5739V72.7727ZM672.864 75.9091V78.2955H665.339V75.9091H672.864ZM667.197 72.7727H670.282V85.0625C670.282 85.4773 670.344 85.7955 670.469 86.017C670.6 86.233 670.771 86.3807 670.981 86.4602C671.191 86.5398 671.424 86.5795 671.68 86.5795C671.873 86.5795 672.049 86.5653 672.208 86.5369C672.373 86.5085 672.498 86.483 672.583 86.4602L673.103 88.8722C672.938 88.929 672.702 88.9915 672.396 89.0597C672.094 89.1278 671.725 89.1676 671.288 89.179C670.515 89.2017 669.819 89.0852 669.2 88.8295C668.58 88.5682 668.089 88.1648 667.725 87.6193C667.367 87.0739 667.191 86.392 667.197 85.5739V72.7727ZM678.811 71.5455V89H675.726V71.5455H678.811ZM687.779 89.2557C686.467 89.2557 685.333 88.983 684.379 88.4375C683.43 87.8864 682.7 87.108 682.188 86.1023C681.677 85.0909 681.421 83.9006 681.421 82.5312C681.421 81.1847 681.677 80.0028 682.188 78.9858C682.705 77.9631 683.427 77.1676 684.353 76.5994C685.279 76.0256 686.367 75.7386 687.617 75.7386C688.424 75.7386 689.185 75.8693 689.901 76.1307C690.623 76.3864 691.259 76.7841 691.81 77.3239C692.367 77.8636 692.805 78.5511 693.123 79.3864C693.441 80.2159 693.6 81.2045 693.6 82.3523V83.2983H682.87V81.2188H690.643C690.637 80.6278 690.509 80.1023 690.259 79.642C690.009 79.1761 689.66 78.8097 689.211 78.5426C688.768 78.2756 688.251 78.142 687.66 78.142C687.029 78.142 686.475 78.2955 685.998 78.6023C685.521 78.9034 685.148 79.3011 684.881 79.7955C684.62 80.2841 684.487 80.821 684.481 81.4062V83.2216C684.481 83.983 684.62 84.6364 684.898 85.1818C685.177 85.7216 685.566 86.1364 686.066 86.4261C686.566 86.7102 687.151 86.8523 687.822 86.8523C688.271 86.8523 688.677 86.7898 689.04 86.6648C689.404 86.5341 689.719 86.3438 689.987 86.0938C690.254 85.8438 690.455 85.5341 690.592 85.1648L693.472 85.4886C693.29 86.25 692.944 86.9148 692.433 87.483C691.927 88.0455 691.279 88.483 690.489 88.7955C689.7 89.1023 688.796 89.2557 687.779 89.2557ZM696.21 89V75.9091H699.159V78.1335H699.312C699.585 77.3835 700.037 76.7983 700.668 76.3778C701.298 75.9517 702.051 75.7386 702.926 75.7386C703.812 75.7386 704.56 75.9545 705.168 76.3864C705.781 76.8125 706.213 77.3949 706.463 78.1335H706.599C706.889 77.4062 707.378 76.8267 708.065 76.3949C708.759 75.9574 709.58 75.7386 710.528 75.7386C711.733 75.7386 712.716 76.1193 713.477 76.8807C714.239 77.642 714.619 78.7528 714.619 80.2131V89H711.526V80.6903C711.526 79.8778 711.31 79.2841 710.878 78.9091C710.446 78.5284 709.918 78.3381 709.293 78.3381C708.548 78.3381 707.966 78.571 707.545 79.0369C707.131 79.4972 706.923 80.0966 706.923 80.8352V89H703.898V80.5625C703.898 79.8864 703.693 79.3466 703.284 78.9432C702.881 78.5398 702.352 78.3381 701.699 78.3381C701.256 78.3381 700.852 78.4517 700.489 78.679C700.125 78.9006 699.835 79.2159 699.619 79.625C699.403 80.0284 699.295 80.5 699.295 81.0398V89H696.21ZM723.545 89.2557C722.232 89.2557 721.099 88.983 720.144 88.4375C719.195 87.8864 718.465 87.108 717.954 86.1023C717.442 85.0909 717.187 83.9006 717.187 82.5312C717.187 81.1847 717.442 80.0028 717.954 78.9858C718.471 77.9631 719.192 77.1676 720.119 76.5994C721.045 76.0256 722.133 75.7386 723.383 75.7386C724.19 75.7386 724.951 75.8693 725.667 76.1307C726.388 76.3864 727.025 76.7841 727.576 77.3239C728.133 77.8636 728.57 78.5511 728.888 79.3864C729.207 80.2159 729.366 81.2045 729.366 82.3523V83.2983H718.636V81.2188H726.408C726.403 80.6278 726.275 80.1023 726.025 79.642C725.775 79.1761 725.425 78.8097 724.977 78.5426C724.533 78.2756 724.016 78.142 723.425 78.142C722.795 78.142 722.241 78.2955 721.763 78.6023C721.286 78.9034 720.914 79.3011 720.647 79.7955C720.386 80.2841 720.252 80.821 720.246 81.4062V83.2216C720.246 83.983 720.386 84.6364 720.664 85.1818C720.942 85.7216 721.332 86.1364 721.832 86.4261C722.332 86.7102 722.917 86.8523 723.587 86.8523C724.036 86.8523 724.442 86.7898 724.806 86.6648C725.17 86.5341 725.485 86.3438 725.752 86.0938C726.019 85.8438 726.221 85.5341 726.357 85.1648L729.238 85.4886C729.056 86.25 728.71 86.9148 728.198 87.483C727.692 88.0455 727.045 88.483 726.255 88.7955C725.465 89.1023 724.562 89.2557 723.545 89.2557ZM735.061 81.3295V89H731.976V75.9091H734.925V78.1335H735.078C735.379 77.4006 735.859 76.8182 736.518 76.3864C737.183 75.9545 738.004 75.7386 738.982 75.7386C739.885 75.7386 740.672 75.9318 741.342 76.3182C742.018 76.7045 742.541 77.2642 742.911 77.9972C743.286 78.7301 743.47 79.6193 743.464 80.6648V89H740.379V81.142C740.379 80.267 740.152 79.5824 739.697 79.0881C739.249 78.5937 738.626 78.3466 737.831 78.3466C737.291 78.3466 736.811 78.4659 736.391 78.7045C735.976 78.9375 735.649 79.2756 735.411 79.7188C735.178 80.1619 735.061 80.6989 735.061 81.3295ZM753.138 75.9091V78.2955H745.612V75.9091H753.138ZM747.47 72.7727H750.555V85.0625C750.555 85.4773 750.618 85.7955 750.743 86.017C750.874 86.233 751.044 86.3807 751.254 86.4602C751.464 86.5398 751.697 86.5795 751.953 86.5795C752.146 86.5795 752.322 86.5653 752.482 86.5369C752.646 86.5085 752.771 86.483 752.857 86.4602L753.376 88.8722C753.212 88.929 752.976 88.9915 752.669 89.0597C752.368 89.1278 751.999 89.1676 751.561 89.179C750.788 89.2017 750.092 89.0852 749.473 88.8295C748.854 88.5682 748.362 88.1648 747.999 87.6193C747.641 87.0739 747.464 86.392 747.47 85.5739V72.7727ZM765.877 79.3693L763.065 79.6761C762.985 79.392 762.846 79.125 762.647 78.875C762.454 78.625 762.192 78.4233 761.863 78.2699C761.533 78.1165 761.13 78.0398 760.653 78.0398C760.011 78.0398 759.471 78.179 759.033 78.4574C758.602 78.7358 758.388 79.0966 758.394 79.5398C758.388 79.9205 758.528 80.2301 758.812 80.4688C759.102 80.7074 759.579 80.9034 760.244 81.0568L762.477 81.5341C763.715 81.8011 764.636 82.2244 765.238 82.804C765.846 83.3835 766.153 84.142 766.158 85.0795C766.153 85.9034 765.911 86.6307 765.434 87.2614C764.962 87.8864 764.306 88.375 763.465 88.7273C762.624 89.0795 761.658 89.2557 760.567 89.2557C758.965 89.2557 757.675 88.9205 756.698 88.25C755.721 87.5739 755.138 86.6335 754.951 85.429L757.96 85.1392C758.096 85.7301 758.386 86.1761 758.829 86.4773C759.272 86.7784 759.849 86.929 760.559 86.929C761.292 86.929 761.88 86.7784 762.323 86.4773C762.772 86.1761 762.996 85.804 762.996 85.3608C762.996 84.9858 762.852 84.6761 762.562 84.4318C762.278 84.1875 761.835 84 761.232 83.8693L758.999 83.4006C757.744 83.1392 756.815 82.6989 756.212 82.0795C755.61 81.4545 755.312 80.6648 755.317 79.7102C755.312 78.9034 755.531 78.2045 755.974 77.6136C756.423 77.017 757.045 76.5568 757.84 76.233C758.641 75.9034 759.565 75.7386 760.61 75.7386C762.144 75.7386 763.352 76.0653 764.232 76.7188C765.119 77.3722 765.667 78.2557 765.877 79.3693ZM775.423 81.8835C775.423 79.7528 775.704 77.7955 776.266 76.0114C776.835 74.2216 777.678 72.5682 778.798 71.0511H781.704C781.272 71.6136 780.869 72.304 780.494 73.1222C780.119 73.9347 779.792 74.8267 779.513 75.7983C779.241 76.7642 779.025 77.767 778.866 78.8068C778.712 79.8466 778.636 80.8722 778.636 81.8835C778.636 83.2301 778.769 84.5937 779.036 85.9744C779.309 87.3551 779.675 88.6335 780.136 89.8097C780.602 90.9915 781.124 91.9574 781.704 92.7074H778.798C777.678 91.1903 776.835 89.5398 776.266 87.7557C775.704 85.9659 775.423 84.0085 775.423 81.8835ZM787.723 71.5455V89H784.033V71.5455H787.723ZM790.691 89V75.9091H794.151V78.2188H794.305C794.577 77.4517 795.032 76.8466 795.668 76.4034C796.305 75.9602 797.066 75.7386 797.952 75.7386C798.85 75.7386 799.614 75.9631 800.245 76.4119C800.876 76.8551 801.296 77.4574 801.506 78.2188H801.643C801.91 77.4688 802.393 76.8693 803.092 76.4205C803.796 75.9659 804.629 75.7386 805.589 75.7386C806.81 75.7386 807.802 76.1278 808.563 76.9062C809.33 77.679 809.714 78.7756 809.714 80.196V89H806.092V80.9119C806.092 80.1847 805.898 79.6392 805.512 79.2756C805.126 78.9119 804.643 78.7301 804.063 78.7301C803.404 78.7301 802.89 78.9403 802.521 79.3608C802.151 79.7756 801.967 80.3239 801.967 81.0057V89H798.447V80.8352C798.447 80.1932 798.262 79.6818 797.893 79.3011C797.529 78.9205 797.049 78.7301 796.452 78.7301C796.049 78.7301 795.685 78.8324 795.362 79.0369C795.043 79.2358 794.79 79.517 794.603 79.8807C794.415 80.2386 794.322 80.6591 794.322 81.142V89H790.691ZM812.582 89V75.9091H816.042V78.2188H816.195C816.468 77.4517 816.923 76.8466 817.559 76.4034C818.195 75.9602 818.957 75.7386 819.843 75.7386C820.741 75.7386 821.505 75.9631 822.136 76.4119C822.766 76.8551 823.187 77.4574 823.397 78.2188H823.533C823.8 77.4688 824.283 76.8693 824.982 76.4205C825.687 75.9659 826.519 75.7386 827.479 75.7386C828.701 75.7386 829.692 76.1278 830.454 76.9062C831.221 77.679 831.604 78.7756 831.604 80.196V89H827.982V80.9119C827.982 80.1847 827.789 79.6392 827.403 79.2756C827.016 78.9119 826.533 78.7301 825.954 78.7301C825.295 78.7301 824.781 78.9403 824.411 79.3608C824.042 79.7756 823.857 80.3239 823.857 81.0057V89H820.337V80.8352C820.337 80.1932 820.153 79.6818 819.783 79.3011C819.42 78.9205 818.94 78.7301 818.343 78.7301C817.94 78.7301 817.576 78.8324 817.252 79.0369C816.934 79.2358 816.681 79.517 816.494 79.8807C816.306 80.2386 816.212 80.6591 816.212 81.142V89H812.582ZM840.438 89.2557C839.092 89.2557 837.933 88.983 836.961 88.4375C835.995 87.8864 835.251 87.108 834.728 86.1023C834.205 85.0909 833.944 83.8949 833.944 82.5142C833.944 81.1676 834.205 79.9858 834.728 78.9688C835.251 77.9517 835.987 77.1591 836.935 76.5909C837.89 76.0227 839.009 75.7386 840.293 75.7386C841.157 75.7386 841.961 75.8778 842.705 76.1562C843.455 76.429 844.109 76.8409 844.665 77.392C845.228 77.9432 845.665 78.6364 845.978 79.4716C846.29 80.3011 846.447 81.2727 846.447 82.3864V83.3835H835.393V81.1335H843.029C843.029 80.6108 842.915 80.1477 842.688 79.7443C842.461 79.3409 842.146 79.0256 841.742 78.7983C841.344 78.5653 840.881 78.4489 840.353 78.4489C839.802 78.4489 839.313 78.5767 838.887 78.8324C838.467 79.0824 838.137 79.4205 837.898 79.8466C837.66 80.267 837.538 80.7358 837.532 81.2528V83.392C837.532 84.0398 837.651 84.5994 837.89 85.071C838.134 85.5426 838.478 85.9062 838.921 86.1619C839.364 86.4176 839.89 86.5455 840.498 86.5455C840.901 86.5455 841.271 86.4886 841.606 86.375C841.941 86.2614 842.228 86.0909 842.467 85.8636C842.705 85.6364 842.887 85.358 843.012 85.0284L846.37 85.25C846.2 86.0568 845.85 86.7614 845.322 87.3636C844.799 87.9602 844.123 88.4261 843.293 88.7614C842.469 89.0909 841.518 89.2557 840.438 89.2557ZM853.64 89.2131C852.646 89.2131 851.745 88.9574 850.938 88.446C850.137 87.929 849.501 87.1705 849.029 86.1705C848.563 85.1648 848.33 83.9318 848.33 82.4716C848.33 80.9716 848.572 79.7244 849.055 78.7301C849.538 77.7301 850.18 76.983 850.981 76.4886C851.788 75.9886 852.671 75.7386 853.631 75.7386C854.364 75.7386 854.975 75.8636 855.464 76.1136C855.958 76.358 856.356 76.6648 856.657 77.0341C856.964 77.3977 857.197 77.7557 857.356 78.108H857.467V71.5455H861.089V89H857.509V86.9034H857.356C857.185 87.267 856.944 87.6278 856.631 87.9858C856.325 88.3381 855.924 88.6307 855.43 88.8636C854.941 89.0966 854.344 89.2131 853.64 89.2131ZM854.79 86.3239C855.376 86.3239 855.87 86.1648 856.273 85.8466C856.683 85.5227 856.995 85.071 857.211 84.4915C857.433 83.9119 857.543 83.233 857.543 82.4545C857.543 81.6761 857.435 81 857.219 80.4261C857.004 79.8523 856.691 79.4091 856.282 79.0966C855.873 78.7841 855.376 78.6278 854.79 78.6278C854.194 78.6278 853.691 78.7898 853.282 79.1136C852.873 79.4375 852.563 79.8864 852.353 80.4602C852.143 81.0341 852.038 81.6989 852.038 82.4545C852.038 83.2159 852.143 83.8892 852.353 84.4744C852.569 85.054 852.879 85.5085 853.282 85.8381C853.691 86.1619 854.194 86.3239 854.79 86.3239ZM864.074 89V75.9091H867.705V89H864.074ZM865.898 74.2216C865.358 74.2216 864.895 74.0426 864.509 73.6847C864.128 73.321 863.938 72.8864 863.938 72.3807C863.938 71.8807 864.128 71.4517 864.509 71.0938C864.895 70.7301 865.358 70.5483 865.898 70.5483C866.438 70.5483 866.898 70.7301 867.278 71.0938C867.665 71.4517 867.858 71.8807 867.858 72.3807C867.858 72.8864 867.665 73.321 867.278 73.6847C866.898 74.0426 866.438 74.2216 865.898 74.2216ZM874.346 89.2472C873.511 89.2472 872.766 89.1023 872.113 88.8125C871.46 88.517 870.942 88.0824 870.562 87.5085C870.187 86.929 869.999 86.2074 869.999 85.3438C869.999 84.6165 870.133 84.0057 870.4 83.5114C870.667 83.017 871.031 82.6193 871.491 82.3182C871.951 82.017 872.474 81.7898 873.059 81.6364C873.65 81.483 874.269 81.375 874.917 81.3125C875.678 81.233 876.292 81.1591 876.758 81.0909C877.224 81.017 877.562 80.9091 877.772 80.767C877.982 80.625 878.087 80.4148 878.087 80.1364V80.0852C878.087 79.5455 877.917 79.1278 877.576 78.8324C877.241 78.5369 876.763 78.3892 876.144 78.3892C875.491 78.3892 874.971 78.5341 874.585 78.8239C874.198 79.108 873.942 79.4659 873.817 79.8977L870.46 79.625C870.63 78.8295 870.965 78.142 871.465 77.5625C871.965 76.9773 872.61 76.5284 873.4 76.2159C874.195 75.8977 875.116 75.7386 876.161 75.7386C876.888 75.7386 877.585 75.8239 878.249 75.9943C878.92 76.1648 879.513 76.429 880.031 76.7869C880.553 77.1449 880.965 77.6051 881.266 78.1676C881.567 78.7244 881.718 79.392 881.718 80.1705V89H878.275V87.1847H878.173C877.962 87.5938 877.681 87.9545 877.329 88.267C876.977 88.5739 876.553 88.8153 876.059 88.9915C875.565 89.1619 874.994 89.2472 874.346 89.2472ZM875.386 86.7415C875.92 86.7415 876.391 86.6364 876.8 86.4261C877.21 86.2102 877.531 85.9205 877.763 85.5568C877.996 85.1932 878.113 84.7812 878.113 84.321V82.9318C877.999 83.0057 877.843 83.0739 877.644 83.1364C877.451 83.1932 877.232 83.2472 876.988 83.2983C876.744 83.3437 876.499 83.3864 876.255 83.4261C876.011 83.4602 875.789 83.4915 875.59 83.5199C875.164 83.5824 874.792 83.6818 874.474 83.8182C874.156 83.9545 873.908 84.1392 873.732 84.3722C873.556 84.5994 873.468 84.8835 873.468 85.2244C873.468 85.7188 873.647 86.0966 874.005 86.358C874.369 86.6136 874.829 86.7415 875.386 86.7415ZM891.498 75.9091V78.6364H883.614V75.9091H891.498ZM885.404 72.7727H889.035V84.9773C889.035 85.3125 889.086 85.5739 889.188 85.7614C889.29 85.9432 889.433 86.071 889.614 86.1449C889.802 86.2187 890.018 86.2557 890.262 86.2557C890.433 86.2557 890.603 86.2415 890.773 86.2131C890.944 86.179 891.075 86.1534 891.165 86.1364L891.737 88.8381C891.555 88.8949 891.299 88.9602 890.969 89.0341C890.64 89.1136 890.239 89.1619 889.768 89.179C888.893 89.2131 888.126 89.0966 887.467 88.8295C886.813 88.5625 886.305 88.1477 885.941 87.5852C885.577 87.0227 885.398 86.3125 885.404 85.4545V72.7727ZM899.688 89.2557C898.342 89.2557 897.183 88.983 896.211 88.4375C895.245 87.8864 894.501 87.108 893.978 86.1023C893.455 85.0909 893.194 83.8949 893.194 82.5142C893.194 81.1676 893.455 79.9858 893.978 78.9688C894.501 77.9517 895.237 77.1591 896.185 76.5909C897.14 76.0227 898.259 75.7386 899.543 75.7386C900.407 75.7386 901.211 75.8778 901.955 76.1562C902.705 76.429 903.359 76.8409 903.915 77.392C904.478 77.9432 904.915 78.6364 905.228 79.4716C905.54 80.3011 905.697 81.2727 905.697 82.3864V83.3835H894.643V81.1335H902.279C902.279 80.6108 902.165 80.1477 901.938 79.7443C901.711 79.3409 901.396 79.0256 900.992 78.7983C900.594 78.5653 900.131 78.4489 899.603 78.4489C899.052 78.4489 898.563 78.5767 898.137 78.8324C897.717 79.0824 897.387 79.4205 897.148 79.8466C896.91 80.267 896.788 80.7358 896.782 81.2528V83.392C896.782 84.0398 896.901 84.5994 897.14 85.071C897.384 85.5426 897.728 85.9062 898.171 86.1619C898.614 86.4176 899.14 86.5455 899.748 86.5455C900.151 86.5455 900.521 86.4886 900.856 86.375C901.191 86.2614 901.478 86.0909 901.717 85.8636C901.955 85.6364 902.137 85.358 902.262 85.0284L905.62 85.25C905.45 86.0568 905.1 86.7614 904.572 87.3636C904.049 87.9602 903.373 88.4261 902.543 88.7614C901.719 89.0909 900.768 89.2557 899.688 89.2557ZM913.708 81.8835C913.708 84.0085 913.424 85.9659 912.856 87.7557C912.293 89.5398 911.452 91.1903 910.333 92.7074H907.427C907.864 92.1449 908.268 91.4574 908.637 90.6449C909.012 89.8324 909.336 88.9403 909.609 87.9688C909.887 86.9972 910.103 85.9915 910.256 84.9517C910.415 83.9119 910.495 82.8892 910.495 81.8835C910.495 80.5369 910.359 79.1733 910.086 77.7926C909.819 76.4119 909.452 75.1307 908.987 73.9489C908.526 72.767 908.006 71.8011 907.427 71.0511H910.333C911.452 72.5682 912.293 74.2216 912.856 76.0114C913.424 77.7955 913.708 79.7528 913.708 81.8835Z" fill="white"></path>
  <path d="M715 130L715 132.717L717 132.717L717 130L715 130ZM715 138.15L715 143.584L717 143.584L717 138.15L715 138.15ZM715 149.017L715 154.451L717 154.451L717 149.017L715 149.017ZM715 159.884L715 165.318L717 165.318L717 159.884L715 159.884ZM715 170.751L715 173.468L717 173.468L717 170.751L715 170.751Z" fill="#204BDB"></path>
  <path d="M329.293 228.175C329.683 228.565 330.317 228.565 330.707 228.175L337.071 221.811C337.462 221.42 337.462 220.787 337.071 220.397C336.68 220.006 336.047 220.006 335.657 220.397L330 226.054L324.343 220.397C323.953 220.006 323.319 220.006 322.929 220.397C322.538 220.787 322.538 221.42 322.929 221.811L329.293 228.175ZM1101.29 228.175C1101.68 228.565 1102.32 228.565 1102.71 228.175L1109.07 221.811C1109.46 221.42 1109.46 220.787 1109.07 220.397C1108.68 220.006 1108.05 220.006 1107.66 220.397L1102 226.054L1096.34 220.397C1095.95 220.006 1095.32 220.006 1094.93 220.397C1094.54 220.787 1094.54 221.42 1094.93 221.811L1101.29 228.175ZM716 173.468L716 172.468L716 173.468ZM715.293 228.175C715.683 228.565 716.317 228.565 716.707 228.175L723.071 221.811C723.462 221.42 723.462 220.787 723.071 220.397C722.681 220.006 722.047 220.006 721.657 220.397L716 226.054L710.343 220.397C709.953 220.006 709.319 220.006 708.929 220.397C708.538 220.787 708.538 221.42 708.929 221.811L715.293 228.175ZM1102 183.468L1101 183.468L1102 183.468ZM716 172.468L713.526 172.468L713.526 174.468L716 174.468L716 172.468ZM708.579 172.468L703.632 172.468L703.632 174.468L708.579 174.468L708.579 172.468ZM698.684 172.468L693.737 172.468L693.737 174.468L698.684 174.468L698.684 172.468ZM688.789 172.468L683.842 172.468L683.842 174.468L688.789 174.468L688.789 172.468ZM678.895 172.468L673.947 172.468L673.947 174.468L678.895 174.468L678.895 172.468ZM669 172.468L664.053 172.468L664.053 174.468L669 174.468L669 172.468ZM659.105 172.468L654.158 172.468L654.158 174.468L659.105 174.468L659.105 172.468ZM649.211 172.468L644.263 172.468L644.263 174.468L649.211 174.468L649.211 172.468ZM639.316 172.468L634.368 172.468L634.368 174.468L639.316 174.468L639.316 172.468ZM629.421 172.468L624.474 172.468L624.474 174.468L629.421 174.468L629.421 172.468ZM619.526 172.468L614.579 172.468L614.579 174.468L619.526 174.468L619.526 172.468ZM609.632 172.468L604.684 172.468L604.684 174.468L609.632 174.468L609.632 172.468ZM599.737 172.468L594.789 172.468L594.789 174.468L599.737 174.468L599.737 172.468ZM589.842 172.468L584.895 172.468L584.895 174.468L589.842 174.468L589.842 172.468ZM579.947 172.468L575 172.468L575 174.468L579.947 174.468L579.947 172.468ZM570.053 172.468L565.105 172.468L565.105 174.468L570.053 174.468L570.053 172.468ZM560.158 172.468L555.21 172.468L555.21 174.468L560.158 174.468L560.158 172.468ZM550.263 172.468L545.316 172.468L545.316 174.468L550.263 174.468L550.263 172.468ZM540.368 172.468L535.421 172.468L535.421 174.468L540.368 174.468L540.368 172.468ZM530.474 172.468L525.526 172.468L525.526 174.468L530.474 174.468L530.474 172.468ZM520.579 172.468L515.631 172.468L515.631 174.468L520.579 174.468L520.579 172.468ZM510.684 172.468L505.737 172.468L505.737 174.468L510.684 174.468L510.684 172.468ZM500.789 172.468L495.842 172.468L495.842 174.468L500.789 174.468L500.789 172.468ZM490.895 172.468L485.947 172.468L485.947 174.468L490.895 174.468L490.895 172.468ZM481 172.468L476.052 172.468L476.052 174.468L481 174.468L481 172.468ZM471.105 172.468L466.158 172.468L466.158 174.468L471.105 174.468L471.105 172.468ZM461.21 172.468L456.263 172.468L456.263 174.468L461.21 174.468L461.21 172.468ZM451.316 172.468L446.368 172.468L446.368 174.468L451.316 174.468L451.316 172.468ZM441.421 172.468L436.474 172.468L436.474 174.468L441.421 174.468L441.421 172.468ZM431.526 172.468L426.579 172.468L426.579 174.468L431.526 174.468L431.526 172.468ZM421.631 172.468L416.684 172.468L416.684 174.468L421.631 174.468L421.631 172.468ZM411.737 172.468L406.789 172.468L406.789 174.468L411.737 174.468L411.737 172.468ZM401.842 172.468L396.895 172.468L396.895 174.468L401.842 174.468L401.842 172.468ZM391.947 172.468L387 172.468L387 174.468L391.947 174.468L391.947 172.468ZM382.053 172.468L377.105 172.468L377.105 174.468L382.053 174.468L382.053 172.468ZM372.158 172.468L367.211 172.468L367.211 174.468L372.158 174.468L372.158 172.468ZM362.263 172.468L357.316 172.468L357.316 174.468L362.263 174.468L362.263 172.468ZM352.368 172.468L347.421 172.468L347.421 174.468L352.368 174.468L352.368 172.468ZM342.474 172.468L340 172.468L340 174.468L342.474 174.468L342.474 172.468ZM340 172.468C339.267 172.468 338.549 172.54 337.854 172.677L338.242 174.639C338.81 174.527 339.398 174.468 340 174.468L340 172.468ZM333.888 174.321C332.688 175.124 331.656 176.156 330.853 177.355L332.515 178.468C333.173 177.486 334.018 176.64 335 175.983L333.888 174.321ZM329.209 181.322C329.072 182.017 329 182.734 329 183.468L331 183.468C331 182.865 331.059 182.278 331.171 181.71L329.209 181.322ZM329 183.468L329 186.218L331 186.218L331 183.468L329 183.468ZM329 191.718L329 197.218L331 197.218L331 191.718L329 191.718ZM329 202.718L329 208.218L331 208.218L331 202.718L329 202.718ZM329 213.718L329 219.218L331 219.218L331 213.718L329 213.718ZM329 224.718L329 227.468L331 227.468L331 224.718L329 224.718ZM716 174.468L718.474 174.468L718.474 172.468L716 172.468L716 174.468ZM723.421 174.468L728.368 174.468L728.368 172.468L723.421 172.468L723.421 174.468ZM733.316 174.468L738.263 174.468L738.263 172.468L733.316 172.468L733.316 174.468ZM743.211 174.468L748.158 174.468L748.158 172.468L743.211 172.468L743.211 174.468ZM753.105 174.468L758.053 174.468L758.053 172.468L753.105 172.468L753.105 174.468ZM763 174.468L767.947 174.468L767.947 172.468L763 172.468L763 174.468ZM772.895 174.468L777.842 174.468L777.842 172.468L772.895 172.468L772.895 174.468ZM782.789 174.468L787.737 174.468L787.737 172.468L782.789 172.468L782.789 174.468ZM792.684 174.468L797.632 174.468L797.632 172.468L792.684 172.468L792.684 174.468ZM802.579 174.468L807.526 174.468L807.526 172.468L802.579 172.468L802.579 174.468ZM812.474 174.468L817.421 174.468L817.421 172.468L812.474 172.468L812.474 174.468ZM822.368 174.468L827.316 174.468L827.316 172.468L822.368 172.468L822.368 174.468ZM832.263 174.468L837.211 174.468L837.211 172.468L832.263 172.468L832.263 174.468ZM842.158 174.468L847.105 174.468L847.105 172.468L842.158 172.468L842.158 174.468ZM852.053 174.468L857 174.468L857 172.468L852.053 172.468L852.053 174.468ZM861.947 174.468L866.895 174.468L866.895 172.468L861.947 172.468L861.947 174.468ZM871.842 174.468L876.79 174.468L876.79 172.468L871.842 172.468L871.842 174.468ZM881.737 174.468L886.684 174.468L886.684 172.468L881.737 172.468L881.737 174.468ZM891.632 174.468L896.579 174.468L896.579 172.468L891.632 172.468L891.632 174.468ZM901.526 174.468L906.474 174.468L906.474 172.468L901.526 172.468L901.526 174.468ZM911.421 174.468L916.369 174.468L916.369 172.468L911.421 172.468L911.421 174.468ZM921.316 174.468L926.263 174.468L926.263 172.468L921.316 172.468L921.316 174.468ZM931.211 174.468L936.158 174.468L936.158 172.468L931.211 172.468L931.211 174.468ZM941.105 174.468L946.053 174.468L946.053 172.468L941.105 172.468L941.105 174.468ZM951 174.468L955.947 174.468L955.947 172.468L951 172.468L951 174.468ZM960.895 174.468L965.842 174.468L965.842 172.468L960.895 172.468L960.895 174.468ZM970.79 174.468L975.737 174.468L975.737 172.468L970.79 172.468L970.79 174.468ZM980.684 174.468L985.632 174.468L985.632 172.468L980.684 172.468L980.684 174.468ZM990.579 174.468L995.526 174.468L995.526 172.468L990.579 172.468L990.579 174.468ZM1000.47 174.468L1005.42 174.468L1005.42 172.468L1000.47 172.468L1000.47 174.468ZM1010.37 174.468L1015.32 174.468L1015.32 172.468L1010.37 172.468L1010.37 174.468ZM1020.26 174.468L1025.21 174.468L1025.21 172.468L1020.26 172.468L1020.26 174.468ZM1030.16 174.468L1035.11 174.468L1035.11 172.468L1030.16 172.468L1030.16 174.468ZM1040.05 174.468L1045 174.468L1045 172.468L1040.05 172.468L1040.05 174.468ZM1049.95 174.468L1054.89 174.468L1054.89 172.468L1049.95 172.468L1049.95 174.468ZM1059.84 174.468L1064.79 174.468L1064.79 172.468L1059.84 172.468L1059.84 174.468ZM1069.74 174.468L1074.68 174.468L1074.68 172.468L1069.74 172.468L1069.74 174.468ZM1079.63 174.468L1084.58 174.468L1084.58 172.468L1079.63 172.468L1079.63 174.468ZM1089.53 174.468L1092 174.468L1092 172.468L1089.53 172.468L1089.53 174.468ZM1092 174.468C1092.6 174.468 1093.19 174.527 1093.76 174.639L1094.15 172.677C1093.45 172.54 1092.73 172.468 1092 172.468L1092 174.468ZM1097 175.983C1097.98 176.64 1098.83 177.486 1099.48 178.468L1101.15 177.355C1100.34 176.156 1099.31 175.124 1098.11 174.321L1097 175.983ZM1100.83 181.71C1100.94 182.278 1101 182.865 1101 183.468L1103 183.468C1103 182.734 1102.93 182.017 1102.79 181.322L1100.83 181.71ZM1101 183.468L1101 186.218L1103 186.218L1103 183.468L1101 183.468ZM1101 191.718L1101 197.218L1103 197.218L1103 191.718L1101 191.718ZM1101 202.718L1101 208.218L1103 208.218L1103 202.718L1101 202.718ZM1101 213.718L1101 219.218L1103 219.218L1103 213.718L1101 213.718ZM1101 224.718L1101 227.468L1103 227.468L1103 224.718L1101 224.718ZM715 173.468L715 176.168L717 176.168L717 173.468L715 173.468ZM715 181.568L715 186.968L717 186.968L717 181.568L715 181.568ZM715 192.368L715 197.768L717 197.768L717 192.368L715 192.368ZM715 203.168L715 208.568L717 208.568L717 203.168L715 203.168ZM715 213.968L715 219.368L717 219.368L717 213.968L715 213.968ZM715 224.768L715 227.468L717 227.468L717 224.768L715 224.768Z" fill="#204BDB"></path>
  <g filter="url(#filter1_d_265_142252)">
    <rect x="155" y="235.468" width="350" height="78.0567" rx="10" fill="white" shape-rendering="crispEdges"></rect>
    <path d="M282.425 270.921C282.359 270.301 282.08 269.818 281.587 269.472C281.1 269.126 280.465 268.954 279.684 268.954C279.135 268.954 278.664 269.036 278.271 269.202C277.878 269.368 277.577 269.593 277.369 269.877C277.16 270.161 277.054 270.485 277.049 270.85C277.049 271.153 277.118 271.416 277.255 271.638C277.397 271.861 277.589 272.05 277.83 272.206C278.072 272.358 278.339 272.486 278.633 272.59C278.926 272.694 279.222 272.782 279.521 272.853L280.884 273.194C281.433 273.321 281.961 273.494 282.468 273.712C282.979 273.93 283.436 274.205 283.839 274.536C284.246 274.867 284.568 275.267 284.805 275.736C285.041 276.205 285.16 276.754 285.16 277.384C285.16 278.236 284.942 278.987 284.506 279.635C284.071 280.279 283.441 280.784 282.617 281.148C281.798 281.508 280.806 281.688 279.641 281.688C278.51 281.688 277.527 281.513 276.694 281.162C275.865 280.812 275.217 280.301 274.748 279.628C274.284 278.956 274.033 278.137 273.995 277.171H276.587C276.625 277.678 276.781 278.099 277.056 278.435C277.331 278.771 277.688 279.022 278.129 279.188C278.574 279.354 279.071 279.437 279.62 279.437C280.193 279.437 280.695 279.351 281.126 279.181C281.561 279.006 281.902 278.764 282.148 278.456C282.395 278.144 282.52 277.779 282.525 277.363C282.52 276.984 282.409 276.671 282.191 276.425C281.973 276.174 281.668 275.966 281.275 275.8C280.887 275.63 280.432 275.478 279.911 275.346L278.256 274.919C277.058 274.612 276.111 274.145 275.415 273.52C274.724 272.891 274.379 272.055 274.379 271.013C274.379 270.156 274.611 269.406 275.075 268.762C275.543 268.118 276.18 267.618 276.985 267.263C277.79 266.903 278.701 266.723 279.719 266.723C280.752 266.723 281.656 266.903 282.432 267.263C283.214 267.618 283.827 268.113 284.272 268.748C284.717 269.377 284.947 270.102 284.961 270.921H282.425ZM292.843 270.559V272.547H286.571V270.559H292.843ZM288.12 267.945H290.691V278.187C290.691 278.532 290.743 278.797 290.847 278.982C290.956 279.162 291.098 279.285 291.273 279.351C291.448 279.418 291.642 279.451 291.855 279.451C292.016 279.451 292.163 279.439 292.296 279.415C292.433 279.392 292.537 279.37 292.608 279.351L293.042 281.361C292.904 281.409 292.708 281.461 292.452 281.517C292.201 281.574 291.893 281.607 291.529 281.617C290.885 281.636 290.305 281.539 289.789 281.326C289.273 281.108 288.863 280.772 288.56 280.317C288.262 279.863 288.115 279.294 288.12 278.613V267.945ZM298.132 281.688C297.441 281.688 296.818 281.565 296.264 281.319C295.715 281.068 295.279 280.698 294.957 280.211C294.64 279.723 294.481 279.122 294.481 278.407C294.481 277.791 294.595 277.282 294.822 276.88C295.05 276.477 295.36 276.155 295.753 275.914C296.146 275.672 296.589 275.49 297.081 275.367C297.578 275.239 298.092 275.147 298.622 275.09C299.261 275.024 299.78 274.964 300.178 274.912C300.575 274.856 300.864 274.77 301.044 274.657C301.229 274.538 301.321 274.356 301.321 274.11V274.067C301.321 273.532 301.162 273.118 300.845 272.824C300.528 272.531 300.071 272.384 299.474 272.384C298.845 272.384 298.345 272.521 297.976 272.796C297.611 273.071 297.365 273.395 297.237 273.769L294.837 273.428C295.026 272.765 295.339 272.211 295.774 271.766C296.21 271.316 296.742 270.98 297.372 270.758C298.002 270.53 298.698 270.417 299.46 270.417C299.986 270.417 300.509 270.478 301.03 270.601C301.551 270.724 302.026 270.928 302.457 271.212C302.888 271.491 303.234 271.873 303.494 272.356C303.759 272.839 303.892 273.442 303.892 274.167V281.468H301.42V279.969H301.335C301.179 280.272 300.959 280.556 300.675 280.821C300.395 281.082 300.043 281.293 299.616 281.454C299.195 281.61 298.7 281.688 298.132 281.688ZM298.8 279.799C299.316 279.799 299.763 279.697 300.142 279.493C300.521 279.285 300.812 279.01 301.016 278.669C301.224 278.329 301.328 277.957 301.328 277.554V276.269C301.248 276.335 301.11 276.397 300.916 276.454C300.727 276.51 300.514 276.56 300.277 276.603C300.04 276.645 299.806 276.683 299.574 276.716C299.342 276.749 299.141 276.778 298.97 276.802C298.587 276.854 298.243 276.939 297.94 277.057C297.637 277.176 297.398 277.341 297.223 277.554C297.048 277.763 296.96 278.033 296.96 278.364C296.96 278.838 297.133 279.195 297.479 279.437C297.824 279.678 298.265 279.799 298.8 279.799ZM306.591 281.468V266.922H309.162V272.363H309.268C309.401 272.098 309.588 271.816 309.83 271.517C310.071 271.214 310.398 270.956 310.81 270.743C311.222 270.526 311.747 270.417 312.386 270.417C313.229 270.417 313.989 270.632 314.666 271.063C315.348 271.489 315.888 272.121 316.285 272.959C316.688 273.793 316.889 274.815 316.889 276.027C316.889 277.225 316.693 278.243 316.3 279.081C315.907 279.919 315.372 280.559 314.695 280.999C314.017 281.439 313.25 281.66 312.393 281.66C311.768 281.66 311.25 281.555 310.838 281.347C310.426 281.139 310.095 280.888 309.844 280.594C309.598 280.296 309.406 280.014 309.268 279.749H309.119V281.468H306.591ZM309.112 276.013C309.112 276.719 309.212 277.337 309.41 277.867C309.614 278.397 309.905 278.812 310.284 279.11C310.668 279.403 311.132 279.55 311.676 279.55C312.244 279.55 312.72 279.399 313.104 279.096C313.487 278.788 313.776 278.369 313.97 277.839C314.169 277.303 314.268 276.695 314.268 276.013C314.268 275.336 314.171 274.735 313.977 274.209C313.783 273.684 313.494 273.272 313.111 272.973C312.727 272.675 312.249 272.526 311.676 272.526C311.127 272.526 310.66 272.67 310.277 272.959C309.893 273.248 309.602 273.653 309.403 274.174C309.209 274.695 309.112 275.308 309.112 276.013ZM321.646 266.922V281.468H319.075V266.922H321.646ZM329.119 281.681C328.026 281.681 327.081 281.454 326.285 280.999C325.495 280.54 324.886 279.891 324.46 279.053C324.034 278.21 323.821 277.218 323.821 276.077C323.821 274.955 324.034 273.97 324.46 273.123C324.891 272.27 325.492 271.607 326.264 271.134C327.036 270.656 327.943 270.417 328.984 270.417C329.657 270.417 330.291 270.526 330.888 270.743C331.489 270.956 332.019 271.288 332.479 271.738C332.943 272.187 333.307 272.76 333.572 273.456C333.838 274.148 333.97 274.972 333.97 275.928V276.716H325.028V274.983H331.506C331.501 274.491 331.394 274.053 331.186 273.669C330.978 273.281 330.687 272.976 330.312 272.753C329.943 272.531 329.512 272.419 329.02 272.419C328.494 272.419 328.033 272.547 327.635 272.803C327.237 273.054 326.927 273.385 326.705 273.797C326.487 274.205 326.375 274.652 326.371 275.14V276.652C326.371 277.287 326.487 277.831 326.719 278.286C326.951 278.736 327.275 279.081 327.692 279.323C328.108 279.56 328.596 279.678 329.155 279.678C329.529 279.678 329.867 279.626 330.17 279.522C330.473 279.413 330.736 279.254 330.959 279.046C331.181 278.838 331.349 278.58 331.463 278.272L333.864 278.542C333.712 279.176 333.423 279.73 332.997 280.204C332.576 280.672 332.036 281.037 331.378 281.297C330.72 281.553 329.967 281.681 329.119 281.681ZM340.904 281.681C339.815 281.681 338.88 281.442 338.098 280.964C337.322 280.485 336.723 279.825 336.301 278.982C335.885 278.134 335.676 277.159 335.676 276.056C335.676 274.948 335.89 273.97 336.316 273.123C336.742 272.27 337.343 271.607 338.12 271.134C338.901 270.656 339.824 270.417 340.89 270.417C341.775 270.417 342.559 270.58 343.24 270.907C343.927 271.229 344.474 271.686 344.881 272.277C345.288 272.865 345.52 273.551 345.577 274.337H343.12C343.02 273.812 342.783 273.374 342.409 273.023C342.04 272.668 341.545 272.491 340.925 272.491C340.399 272.491 339.938 272.633 339.54 272.917C339.142 273.196 338.832 273.598 338.61 274.124C338.392 274.65 338.283 275.279 338.283 276.013C338.283 276.757 338.392 277.396 338.61 277.931C338.828 278.461 339.133 278.871 339.526 279.16C339.924 279.444 340.39 279.586 340.925 279.586C341.304 279.586 341.642 279.515 341.941 279.373C342.244 279.226 342.497 279.015 342.701 278.741C342.904 278.466 343.044 278.132 343.12 277.739H345.577C345.515 278.511 345.288 279.195 344.895 279.792C344.502 280.383 343.967 280.848 343.29 281.184C342.613 281.515 341.818 281.681 340.904 281.681ZM352.447 281.681C351.381 281.681 350.458 281.446 349.677 280.978C348.896 280.509 348.29 279.853 347.859 279.01C347.432 278.168 347.219 277.183 347.219 276.056C347.219 274.929 347.432 273.942 347.859 273.094C348.29 272.247 348.896 271.589 349.677 271.12C350.458 270.651 351.381 270.417 352.447 270.417C353.512 270.417 354.435 270.651 355.217 271.12C355.998 271.589 356.602 272.247 357.028 273.094C357.459 273.942 357.674 274.929 357.674 276.056C357.674 277.183 357.459 278.168 357.028 279.01C356.602 279.853 355.998 280.509 355.217 280.978C354.435 281.446 353.512 281.681 352.447 281.681ZM352.461 279.621C353.039 279.621 353.522 279.463 353.91 279.145C354.298 278.823 354.587 278.392 354.776 277.853C354.97 277.313 355.067 276.712 355.067 276.049C355.067 275.381 354.97 274.777 354.776 274.238C354.587 273.693 354.298 273.26 353.91 272.938C353.522 272.616 353.039 272.455 352.461 272.455C351.869 272.455 351.377 272.616 350.984 272.938C350.595 273.26 350.304 273.693 350.11 274.238C349.921 274.777 349.826 275.381 349.826 276.049C349.826 276.712 349.921 277.313 350.11 277.853C350.304 278.392 350.595 278.823 350.984 279.145C351.377 279.463 351.869 279.621 352.461 279.621ZM359.856 281.468V270.559H362.427V281.468H359.856ZM361.149 269.01C360.742 269.01 360.391 268.875 360.098 268.606C359.804 268.331 359.657 268.002 359.657 267.618C359.657 267.23 359.804 266.901 360.098 266.631C360.391 266.357 360.742 266.219 361.149 266.219C361.561 266.219 361.911 266.357 362.2 266.631C362.493 266.901 362.64 267.23 362.64 267.618C362.64 268.002 362.493 268.331 362.2 268.606C361.911 268.875 361.561 269.01 361.149 269.01ZM367.642 275.076V281.468H365.071V270.559H367.528V272.412H367.656C367.907 271.802 368.307 271.316 368.857 270.956C369.41 270.597 370.095 270.417 370.909 270.417C371.662 270.417 372.318 270.578 372.876 270.9C373.44 271.222 373.875 271.688 374.183 272.299C374.496 272.91 374.65 273.651 374.645 274.522V281.468H372.074V274.919C372.074 274.19 371.884 273.62 371.506 273.208C371.132 272.796 370.613 272.59 369.95 272.59C369.5 272.59 369.1 272.689 368.75 272.888C368.404 273.082 368.132 273.364 367.933 273.733C367.739 274.103 367.642 274.55 367.642 275.076ZM385.881 273.442L383.537 273.698C383.471 273.461 383.355 273.239 383.189 273.03C383.028 272.822 382.81 272.654 382.535 272.526C382.261 272.398 381.925 272.334 381.527 272.334C380.992 272.334 380.542 272.45 380.178 272.682C379.818 272.914 379.64 273.215 379.645 273.584C379.64 273.901 379.756 274.16 379.993 274.358C380.234 274.557 380.632 274.721 381.186 274.848L383.047 275.246C384.079 275.469 384.846 275.821 385.348 276.304C385.855 276.787 386.11 277.419 386.115 278.201C386.11 278.887 385.909 279.493 385.511 280.019C385.118 280.54 384.571 280.947 383.871 281.241C383.17 281.534 382.365 281.681 381.456 281.681C380.121 281.681 379.046 281.401 378.232 280.843C377.417 280.279 376.932 279.496 376.776 278.492L379.283 278.25C379.396 278.743 379.638 279.115 380.007 279.366C380.376 279.616 380.857 279.742 381.449 279.742C382.06 279.742 382.55 279.616 382.919 279.366C383.293 279.115 383.48 278.804 383.48 278.435C383.48 278.123 383.359 277.865 383.118 277.661C382.881 277.457 382.512 277.301 382.01 277.192L380.149 276.802C379.103 276.584 378.329 276.217 377.827 275.701C377.325 275.18 377.076 274.522 377.081 273.726C377.076 273.054 377.258 272.472 377.628 271.979C378.002 271.482 378.52 271.098 379.183 270.829C379.851 270.554 380.62 270.417 381.491 270.417C382.77 270.417 383.776 270.689 384.51 271.233C385.249 271.778 385.705 272.514 385.881 273.442Z" fill="#204BDB"></path>
    <rect x="155" y="235.468" width="350" height="78.0567" rx="10" stroke="#204BDB" stroke-width="2" stroke-dasharray="5 5" shape-rendering="crispEdges"></rect>
  </g>
  <g filter="url(#filter2_bd_265_142252)">
    <rect x="200.019" y="337.524" width="259.962" height="70" rx="12" fill="white" shape-rendering="crispEdges"></rect>
    <path d="M319.927 377.121C317.39 387.299 307.08 393.494 296.9 390.956C286.725 388.418 280.53 378.108 283.069 367.93C285.605 357.75 295.915 351.555 306.092 354.093C316.271 356.631 322.465 366.942 319.927 377.121L319.927 377.121H319.927Z" fill="#50AF95"></path>
    <path fill-rule="evenodd" clip-rule="evenodd" d="M303.904 374.678C303.77 374.688 303.076 374.729 301.528 374.729C300.296 374.729 299.422 374.693 299.115 374.678C294.356 374.469 290.803 373.64 290.803 372.648C290.803 371.656 294.356 370.829 299.115 370.616V373.853C299.426 373.875 300.317 373.928 301.549 373.928C303.027 373.928 303.767 373.866 303.9 373.854V370.618C308.649 370.83 312.194 371.659 312.194 372.648C312.194 373.638 308.65 374.466 303.9 374.677L303.904 374.678ZM303.904 370.284V367.387H310.532V362.971H292.487V367.387H299.114V370.283C293.728 370.53 289.677 371.597 289.677 372.875C289.677 374.154 293.728 375.22 299.114 375.468V384.75H303.903V375.465C309.277 375.218 313.321 374.152 313.321 372.874C313.321 371.597 309.28 370.531 303.903 370.283L303.904 370.284Z" fill="white"></path>
    <path d="M338.795 366.434H340.381V375.101C340.381 375.996 340.17 376.795 339.748 377.498C339.33 378.197 338.74 378.749 337.977 379.154C337.214 379.554 336.319 379.755 335.292 379.755C334.265 379.755 333.371 379.554 332.608 379.154C331.845 378.749 331.253 378.197 330.831 377.498C330.413 376.795 330.204 375.996 330.204 375.101V366.434H331.79V374.973C331.79 375.612 331.93 376.181 332.211 376.68C332.493 377.174 332.893 377.564 333.413 377.85C333.937 378.131 334.564 378.272 335.292 378.272C336.021 378.272 336.648 378.131 337.172 377.85C337.696 377.564 338.096 377.174 338.373 376.68C338.655 376.181 338.795 375.612 338.795 374.973V366.434ZM350.705 369.706C350.629 369.059 350.317 368.556 349.772 368.198C349.227 367.84 348.558 367.661 347.765 367.661C347.185 367.661 346.678 367.755 346.244 367.942C345.813 368.13 345.477 368.387 345.234 368.715C344.995 369.044 344.876 369.416 344.876 369.834C344.876 370.184 344.959 370.484 345.125 370.735C345.295 370.983 345.513 371.189 345.777 371.355C346.041 371.517 346.318 371.652 346.608 371.758C346.898 371.86 347.164 371.943 347.407 372.007L348.737 372.365C349.077 372.455 349.457 372.578 349.874 372.736C350.296 372.894 350.699 373.109 351.082 373.382C351.47 373.65 351.79 373.995 352.041 374.417C352.293 374.839 352.418 375.357 352.418 375.97C352.418 376.678 352.233 377.317 351.862 377.888C351.496 378.459 350.959 378.913 350.251 379.25C349.548 379.586 348.694 379.755 347.688 379.755C346.751 379.755 345.939 379.603 345.253 379.301C344.571 378.998 344.034 378.576 343.642 378.035C343.254 377.494 343.035 376.865 342.984 376.149H344.62C344.663 376.644 344.829 377.053 345.119 377.377C345.413 377.696 345.783 377.935 346.231 378.093C346.683 378.246 347.168 378.323 347.688 378.323C348.293 378.323 348.837 378.225 349.318 378.029C349.8 377.828 350.181 377.551 350.462 377.198C350.744 376.84 350.884 376.422 350.884 375.945C350.884 375.51 350.763 375.157 350.52 374.884C350.277 374.611 349.957 374.389 349.561 374.219C349.165 374.049 348.737 373.899 348.276 373.772L346.665 373.311C345.643 373.017 344.833 372.598 344.237 372.052C343.64 371.507 343.342 370.793 343.342 369.911C343.342 369.178 343.54 368.539 343.936 367.993C344.337 367.443 344.874 367.017 345.547 366.715C346.224 366.408 346.981 366.255 347.816 366.255C348.66 366.255 349.41 366.406 350.066 366.708C350.722 367.007 351.242 367.416 351.626 367.936C352.013 368.456 352.218 369.046 352.239 369.706H350.705ZM359.064 379.524H355.025V366.434H359.243C360.513 366.434 361.6 366.696 362.503 367.22C363.407 367.74 364.099 368.487 364.581 369.463C365.062 370.435 365.303 371.598 365.303 372.953C365.303 374.317 365.06 375.491 364.574 376.475C364.089 377.456 363.381 378.21 362.452 378.738C361.523 379.262 360.394 379.524 359.064 379.524ZM356.61 378.118H358.962C360.045 378.118 360.942 377.909 361.653 377.492C362.365 377.074 362.895 376.48 363.245 375.708C363.594 374.937 363.769 374.019 363.769 372.953C363.769 371.897 363.596 370.987 363.251 370.224C362.906 369.457 362.39 368.869 361.704 368.46C361.018 368.046 360.164 367.84 359.141 367.84H356.61V378.118ZM366.701 367.84V366.434H376.52V367.84H372.403V379.524H370.818V367.84H366.701Z" fill="#262E39"></path>
  </g>
  <g filter="url(#filter3_bd_265_142252)">
    <rect x="200.019" y="423.524" width="259.962" height="70" rx="12" fill="white" shape-rendering="crispEdges"></rect>
    <path d="M300.5 477.524C311.029 477.524 319.5 469.054 319.5 458.524C319.5 447.995 311.029 439.524 300.5 439.524C289.971 439.524 281.5 447.995 281.5 458.524C281.5 469.054 289.971 477.524 300.5 477.524Z" fill="#2775CA"></path>
    <path d="M305.725 461.533C305.725 458.762 304.062 457.812 300.737 457.416C298.362 457.099 297.887 456.466 297.887 455.358C297.887 454.249 298.679 453.537 300.262 453.537C301.687 453.537 302.479 454.012 302.875 455.199C302.954 455.437 303.192 455.595 303.429 455.595H304.696C305.012 455.595 305.25 455.358 305.25 455.041V454.962C304.933 453.22 303.508 451.874 301.687 451.716V449.816C301.687 449.499 301.45 449.262 301.054 449.183H299.867C299.55 449.183 299.312 449.42 299.233 449.816V451.637C296.858 451.954 295.354 453.537 295.354 455.516C295.354 458.129 296.937 459.158 300.262 459.554C302.479 459.949 303.192 460.424 303.192 461.691C303.192 462.958 302.083 463.829 300.579 463.829C298.521 463.829 297.808 462.958 297.571 461.77C297.492 461.454 297.254 461.295 297.017 461.295H295.671C295.354 461.295 295.117 461.533 295.117 461.849V461.929C295.433 463.908 296.7 465.333 299.312 465.729V467.629C299.312 467.945 299.55 468.183 299.946 468.262H301.133C301.45 468.262 301.687 468.024 301.767 467.629V465.729C304.142 465.333 305.725 463.67 305.725 461.533Z" fill="white"></path>
    <path fill-rule="evenodd" clip-rule="evenodd" d="M289.417 454.645C287.121 460.741 290.288 467.629 296.463 469.845C296.7 470.004 296.938 470.32 296.938 470.558V471.666C296.938 471.825 296.938 471.904 296.858 471.983C296.779 472.3 296.463 472.458 296.146 472.3C291.713 470.875 288.308 467.47 286.883 463.037C284.508 455.516 288.625 447.52 296.146 445.145C296.225 445.066 296.383 445.066 296.463 445.066C296.779 445.145 296.938 445.383 296.938 445.7V446.808C296.938 447.204 296.779 447.441 296.463 447.6C293.217 448.787 290.604 451.32 289.417 454.645ZM304.142 445.462C304.221 445.145 304.538 444.987 304.854 445.145C309.208 446.57 312.692 449.974 314.117 454.487C316.492 462.008 312.375 470.004 304.854 472.379C304.775 472.458 304.617 472.458 304.538 472.458C304.221 472.379 304.063 472.141 304.063 471.824V470.716C304.063 470.32 304.221 470.083 304.538 469.924C307.783 468.737 310.396 466.204 311.583 462.879C313.879 456.783 310.713 449.895 304.538 447.679C304.3 447.52 304.063 447.204 304.063 446.887V445.779C304.063 445.62 304.063 445.541 304.142 445.462Z" fill="white"></path>
    <path d="M337.749 452.434H339.335V461.101C339.335 461.996 339.124 462.795 338.702 463.498C338.284 464.197 337.694 464.749 336.931 465.154C336.168 465.554 335.274 465.755 334.247 465.755C333.22 465.755 332.325 465.554 331.562 465.154C330.799 464.749 330.207 464.197 329.785 463.498C329.367 462.795 329.158 461.996 329.158 461.101V452.434H330.744V460.973C330.744 461.612 330.884 462.181 331.166 462.68C331.447 463.174 331.847 463.564 332.367 463.85C332.891 464.131 333.518 464.272 334.247 464.272C334.975 464.272 335.602 464.131 336.126 463.85C336.65 463.564 337.051 463.174 337.328 462.68C337.609 462.181 337.749 461.612 337.749 460.973V452.434ZM349.659 455.706C349.583 455.059 349.272 454.556 348.726 454.198C348.181 453.84 347.512 453.661 346.719 453.661C346.139 453.661 345.632 453.755 345.198 453.942C344.767 454.13 344.431 454.387 344.188 454.715C343.949 455.044 343.83 455.416 343.83 455.834C343.83 456.184 343.913 456.484 344.079 456.735C344.25 456.983 344.467 457.189 344.731 457.355C344.995 457.517 345.272 457.652 345.562 457.758C345.852 457.86 346.118 457.943 346.361 458.007L347.691 458.365C348.032 458.455 348.411 458.578 348.828 458.736C349.25 458.894 349.653 459.109 350.036 459.382C350.424 459.65 350.744 459.995 350.995 460.417C351.247 460.839 351.372 461.357 351.372 461.97C351.372 462.678 351.187 463.317 350.816 463.888C350.45 464.459 349.913 464.913 349.206 465.25C348.502 465.586 347.648 465.755 346.642 465.755C345.705 465.755 344.893 465.603 344.207 465.301C343.525 464.998 342.988 464.576 342.596 464.035C342.208 463.494 341.989 462.865 341.938 462.149H343.574C343.617 462.644 343.783 463.053 344.073 463.377C344.367 463.696 344.737 463.935 345.185 464.093C345.637 464.246 346.122 464.323 346.642 464.323C347.247 464.323 347.791 464.225 348.272 464.029C348.754 463.828 349.135 463.551 349.416 463.198C349.698 462.84 349.838 462.422 349.838 461.945C349.838 461.51 349.717 461.157 349.474 460.884C349.231 460.611 348.911 460.389 348.515 460.219C348.119 460.049 347.691 459.899 347.23 459.772L345.62 459.311C344.597 459.017 343.787 458.598 343.191 458.052C342.594 457.507 342.296 456.793 342.296 455.911C342.296 455.178 342.494 454.539 342.89 453.993C343.291 453.443 343.828 453.017 344.501 452.715C345.179 452.408 345.935 452.255 346.77 452.255C347.614 452.255 348.364 452.406 349.02 452.708C349.676 453.007 350.196 453.416 350.58 453.936C350.968 454.456 351.172 455.046 351.193 455.706H349.659ZM358.019 465.524H353.979V452.434H358.198C359.467 452.434 360.554 452.696 361.457 453.22C362.361 453.74 363.053 454.487 363.535 455.463C364.016 456.435 364.257 457.598 364.257 458.953C364.257 460.317 364.014 461.491 363.528 462.475C363.043 463.456 362.335 464.21 361.406 464.738C360.477 465.262 359.348 465.524 358.019 465.524ZM355.564 464.118H357.916C358.999 464.118 359.896 463.909 360.607 463.492C361.319 463.074 361.85 462.48 362.199 461.708C362.548 460.937 362.723 460.019 362.723 458.953C362.723 457.897 362.551 456.987 362.205 456.224C361.86 455.457 361.345 454.869 360.658 454.46C359.972 454.046 359.118 453.84 358.095 453.84H355.564V464.118ZM377.45 456.524H375.865C375.771 456.068 375.607 455.668 375.373 455.323C375.143 454.978 374.862 454.688 374.529 454.453C374.201 454.215 373.837 454.036 373.436 453.916C373.036 453.797 372.618 453.737 372.183 453.737C371.391 453.737 370.673 453.938 370.029 454.338C369.39 454.739 368.881 455.329 368.502 456.109C368.127 456.889 367.939 457.845 367.939 458.979C367.939 460.112 368.127 461.069 368.502 461.849C368.881 462.629 369.39 463.219 370.029 463.62C370.673 464.02 371.391 464.22 372.183 464.22C372.618 464.22 373.036 464.161 373.436 464.041C373.837 463.922 374.201 463.745 374.529 463.511C374.862 463.272 375.143 462.98 375.373 462.635C375.607 462.286 375.771 461.885 375.865 461.434H377.45C377.331 462.103 377.114 462.701 376.798 463.23C376.483 463.758 376.091 464.208 375.622 464.578C375.153 464.945 374.627 465.224 374.043 465.416C373.464 465.608 372.844 465.703 372.183 465.703C371.067 465.703 370.074 465.431 369.205 464.885C368.335 464.34 367.651 463.564 367.153 462.559C366.654 461.553 366.405 460.36 366.405 458.979C366.405 457.598 366.654 456.405 367.153 455.399C367.651 454.394 368.335 453.618 369.205 453.073C370.074 452.527 371.067 452.255 372.183 452.255C372.844 452.255 373.464 452.35 374.043 452.542C374.627 452.734 375.153 453.015 375.622 453.386C376.091 453.752 376.483 454.2 376.798 454.728C377.114 455.252 377.331 455.851 377.45 456.524Z" fill="#262E39"></path>
  </g>
  <g filter="url(#filter4_d_265_142252)">
    <rect x="541" y="235.468" width="350" height="78.0567" rx="10" fill="white" shape-rendering="crispEdges"></rect>
    <path d="M704.66 271.83H702.004C701.928 271.394 701.789 271.008 701.585 270.672C701.381 270.331 701.128 270.043 700.825 269.806C700.522 269.569 700.176 269.392 699.788 269.273C699.405 269.15 698.99 269.089 698.545 269.089C697.755 269.089 697.054 269.287 696.443 269.685C695.832 270.078 695.354 270.656 695.008 271.418C694.663 272.176 694.49 273.101 694.49 274.195C694.49 275.308 694.663 276.245 695.008 277.008C695.359 277.765 695.837 278.338 696.443 278.726C697.054 279.11 697.752 279.302 698.538 279.302C698.974 279.302 699.381 279.245 699.76 279.131C700.143 279.013 700.487 278.84 700.79 278.613C701.097 278.385 701.355 278.106 701.564 277.775C701.777 277.443 701.924 277.064 702.004 276.638L704.66 276.652C704.561 277.344 704.345 277.992 704.014 278.598C703.687 279.205 703.259 279.74 702.728 280.204C702.198 280.663 701.578 281.023 700.868 281.283C700.157 281.539 699.369 281.667 698.503 281.667C697.224 281.667 696.083 281.371 695.079 280.779C694.076 280.187 693.285 279.332 692.707 278.215C692.13 277.098 691.841 275.758 691.841 274.195C691.841 272.628 692.132 271.288 692.714 270.175C693.297 269.058 694.09 268.203 695.094 267.611C696.097 267.019 697.234 266.723 698.503 266.723C699.312 266.723 700.065 266.837 700.761 267.064C701.457 267.292 702.077 267.625 702.622 268.066C703.166 268.501 703.614 269.036 703.964 269.671C704.319 270.301 704.551 271.02 704.66 271.83ZM711.718 281.681C710.653 281.681 709.73 281.446 708.948 280.978C708.167 280.509 707.561 279.853 707.13 279.01C706.704 278.168 706.491 277.183 706.491 276.056C706.491 274.929 706.704 273.942 707.13 273.094C707.561 272.247 708.167 271.589 708.948 271.12C709.73 270.651 710.653 270.417 711.718 270.417C712.784 270.417 713.707 270.651 714.488 271.12C715.269 271.589 715.873 272.247 716.299 273.094C716.73 273.942 716.945 274.929 716.945 276.056C716.945 277.183 716.73 278.168 716.299 279.01C715.873 279.853 715.269 280.509 714.488 280.978C713.707 281.446 712.784 281.681 711.718 281.681ZM711.732 279.621C712.31 279.621 712.793 279.463 713.181 279.145C713.57 278.823 713.858 278.392 714.048 277.853C714.242 277.313 714.339 276.712 714.339 276.049C714.339 275.381 714.242 274.777 714.048 274.238C713.858 273.693 713.57 273.26 713.181 272.938C712.793 272.616 712.31 272.455 711.732 272.455C711.141 272.455 710.648 272.616 710.255 272.938C709.867 273.26 709.576 273.693 709.382 274.238C709.192 274.777 709.097 275.381 709.097 276.049C709.097 276.712 709.192 277.313 709.382 277.853C709.576 278.392 709.867 278.823 710.255 279.145C710.648 279.463 711.141 279.621 711.732 279.621ZM719.128 281.468V270.559H721.699V281.468H719.128ZM720.42 269.01C720.013 269.01 719.663 268.875 719.369 268.606C719.076 268.331 718.929 268.002 718.929 267.618C718.929 267.23 719.076 266.901 719.369 266.631C719.663 266.357 720.013 266.219 720.42 266.219C720.832 266.219 721.183 266.357 721.471 266.631C721.765 266.901 721.912 267.23 721.912 267.618C721.912 268.002 721.765 268.331 721.471 268.606C721.183 268.875 720.832 269.01 720.42 269.01ZM726.913 275.076V281.468H724.342V270.559H726.8V272.412H726.928C727.179 271.802 727.579 271.316 728.128 270.956C728.682 270.597 729.366 270.417 730.181 270.417C730.933 270.417 731.589 270.578 732.148 270.9C732.711 271.222 733.147 271.688 733.455 272.299C733.767 272.91 733.921 273.651 733.916 274.522V281.468H731.345V274.919C731.345 274.19 731.156 273.62 730.777 273.208C730.403 272.796 729.885 272.59 729.222 272.59C728.772 272.59 728.372 272.689 728.021 272.888C727.676 273.082 727.404 273.364 727.205 273.733C727.011 274.103 726.913 274.55 726.913 275.076ZM745.152 273.442L742.808 273.698C742.742 273.461 742.626 273.239 742.46 273.03C742.299 272.822 742.082 272.654 741.807 272.526C741.532 272.398 741.196 272.334 740.798 272.334C740.263 272.334 739.814 272.45 739.449 272.682C739.089 272.914 738.912 273.215 738.916 273.584C738.912 273.901 739.028 274.16 739.264 274.358C739.506 274.557 739.904 274.721 740.458 274.848L742.318 275.246C743.351 275.469 744.118 275.821 744.619 276.304C745.126 276.787 745.382 277.419 745.387 278.201C745.382 278.887 745.181 279.493 744.783 280.019C744.39 280.54 743.843 280.947 743.142 281.241C742.441 281.534 741.637 281.681 740.727 281.681C739.392 281.681 738.317 281.401 737.503 280.843C736.689 280.279 736.203 279.496 736.047 278.492L738.554 278.25C738.668 278.743 738.909 279.115 739.279 279.366C739.648 279.616 740.128 279.742 740.72 279.742C741.331 279.742 741.821 279.616 742.19 279.366C742.565 279.115 742.752 278.804 742.752 278.435C742.752 278.123 742.631 277.865 742.389 277.661C742.153 277.457 741.783 277.301 741.281 277.192L739.421 276.802C738.374 276.584 737.6 276.217 737.098 275.701C736.596 275.18 736.348 274.522 736.352 273.726C736.348 273.054 736.53 272.472 736.899 271.979C737.273 271.482 737.792 271.098 738.455 270.829C739.122 270.554 739.892 270.417 740.763 270.417C742.041 270.417 743.047 270.689 743.781 271.233C744.52 271.778 744.977 272.514 745.152 273.442Z" fill="#204BDB"></path>
    <rect x="541" y="235.468" width="350" height="78.0567" rx="10" stroke="#204BDB" stroke-width="2" stroke-dasharray="5 5" shape-rendering="crispEdges"></rect>
  </g>
  <g filter="url(#filter5_bd_265_142252)">
    <rect x="585.038" y="337.524" width="261.924" height="70" rx="12" fill="white" shape-rendering="crispEdges"></rect>
    <path d="M711.821 377.121C709.283 387.299 698.974 393.494 688.794 390.956C678.618 388.418 672.424 378.108 674.963 367.93C677.499 357.75 687.808 351.555 697.985 354.093C708.164 356.631 714.358 366.942 711.821 377.121L711.821 377.121H711.821Z" fill="#F7931A"></path>
    <path fill-rule="evenodd" clip-rule="evenodd" d="M701.769 369.818C702.147 367.29 700.222 365.931 697.59 365.024L698.444 361.599L696.359 361.079L695.528 364.414C694.98 364.277 694.417 364.149 693.857 364.021L694.695 360.664L692.611 360.145L691.757 363.568C691.303 363.465 690.858 363.363 690.425 363.256L690.428 363.245L687.553 362.527L686.998 364.754C686.998 364.754 688.545 365.108 688.512 365.13C689.356 365.341 689.509 365.9 689.484 366.343L688.511 370.245C688.569 370.259 688.645 370.281 688.728 370.314L688.667 370.299L688.667 370.299C688.616 370.286 688.562 370.273 688.507 370.26L687.144 375.726C687.041 375.982 686.779 376.367 686.189 376.221C686.21 376.251 684.673 375.843 684.673 375.843L683.638 378.229L686.351 378.906C686.649 378.98 686.942 379.057 687.233 379.133L687.234 379.133C687.436 379.186 687.638 379.238 687.838 379.289L686.975 382.754L689.058 383.273L689.912 379.846C690.481 380 691.033 380.143 691.574 380.277L690.722 383.688L692.807 384.208L693.67 380.75C697.225 381.423 699.898 381.152 701.024 377.936C701.93 375.347 700.978 373.853 699.108 372.88C700.47 372.565 701.496 371.669 701.77 369.818L701.769 369.818L701.769 369.818ZM697.006 376.498C696.415 378.873 692.696 377.891 690.995 377.442L690.995 377.442C690.842 377.402 690.706 377.366 690.589 377.337L691.734 372.747C691.876 372.782 692.05 372.821 692.246 372.866L692.246 372.866C694.006 373.26 697.611 374.07 697.006 376.498H697.006ZM692.599 370.735C694.018 371.114 697.112 371.939 697.65 369.781H697.651C698.201 367.573 695.194 366.907 693.726 366.582C693.56 366.545 693.415 366.513 693.296 366.483L692.258 370.646C692.356 370.67 692.471 370.701 692.599 370.735Z" fill="white"></path>
    <path d="M722.682 378.807V365.716H727.259C728.171 365.716 728.923 365.873 729.515 366.189C730.107 366.5 730.548 366.92 730.838 367.448C731.128 367.972 731.273 368.554 731.273 369.193C731.273 369.756 731.173 370.22 730.972 370.586C730.776 370.953 730.516 371.243 730.193 371.456C729.873 371.669 729.526 371.827 729.151 371.929V372.057C729.551 372.082 729.954 372.223 730.359 372.479C730.764 372.734 731.102 373.101 731.375 373.578C731.648 374.055 731.784 374.639 731.784 375.329C731.784 375.986 731.635 376.576 731.337 377.1C731.038 377.624 730.568 378.04 729.924 378.346C729.281 378.653 728.443 378.807 727.412 378.807H722.682ZM724.267 377.4H727.412C728.448 377.4 729.183 377.2 729.617 376.8C730.056 376.395 730.276 375.905 730.276 375.329C730.276 374.886 730.163 374.477 729.937 374.102C729.711 373.723 729.389 373.42 728.972 373.194C728.554 372.964 728.06 372.849 727.489 372.849H724.267V377.4ZM724.267 371.469H727.207C727.685 371.469 728.115 371.375 728.499 371.187C728.886 371 729.193 370.736 729.419 370.395C729.649 370.054 729.764 369.653 729.764 369.193C729.764 368.618 729.564 368.13 729.163 367.729C728.763 367.324 728.128 367.122 727.259 367.122H724.267V371.469ZM733.673 367.122V365.716H743.491V367.122H739.375V378.807H737.79V367.122H733.673ZM755.927 369.807H754.342C754.248 369.351 754.084 368.95 753.85 368.605C753.619 368.26 753.338 367.97 753.006 367.736C752.678 367.497 752.313 367.318 751.913 367.199C751.512 367.079 751.095 367.02 750.66 367.02C749.867 367.02 749.149 367.22 748.506 367.621C747.867 368.021 747.357 368.611 746.978 369.391C746.603 370.171 746.416 371.128 746.416 372.261C746.416 373.395 746.603 374.351 746.978 375.131C747.357 375.911 747.867 376.501 748.506 376.902C749.149 377.302 749.867 377.503 750.66 377.503C751.095 377.503 751.512 377.443 751.913 377.324C752.313 377.204 752.678 377.028 753.006 376.793C753.338 376.555 753.619 376.263 753.85 375.917C754.084 375.568 754.248 375.167 754.342 374.716H755.927C755.808 375.385 755.59 375.983 755.275 376.512C754.96 377.04 754.568 377.49 754.099 377.861C753.63 378.227 753.104 378.506 752.52 378.698C751.94 378.89 751.32 378.986 750.66 378.986C749.543 378.986 748.551 378.713 747.681 378.167C746.812 377.622 746.128 376.846 745.629 375.841C745.131 374.835 744.882 373.642 744.882 372.261C744.882 370.881 745.131 369.687 745.629 368.682C746.128 367.676 746.812 366.9 747.681 366.355C748.551 365.809 749.543 365.537 750.66 365.537C751.32 365.537 751.94 365.633 752.52 365.824C753.104 366.016 753.63 366.297 754.099 366.668C754.568 367.035 754.96 367.482 755.275 368.01C755.59 368.535 755.808 369.133 755.927 369.807Z" fill="#262E39"></path>
  </g>
  <g filter="url(#filter6_d_265_142252)">
    <rect x="927" y="235.468" width="350" height="78.0567" rx="10" fill="white" shape-rendering="crispEdges"></rect>
    <path d="M1085.43 281.468V266.922H1094.74V269.131H1088.06V273.08H1094.11V275.289H1088.06V281.468H1085.43ZM1097.03 281.468V270.559H1099.6V281.468H1097.03ZM1098.32 269.01C1097.92 269.01 1097.57 268.875 1097.27 268.606C1096.98 268.331 1096.83 268.002 1096.83 267.618C1096.83 267.23 1096.98 266.901 1097.27 266.631C1097.57 266.357 1097.92 266.219 1098.32 266.219C1098.74 266.219 1099.09 266.357 1099.38 266.631C1099.67 266.901 1099.82 267.23 1099.82 267.618C1099.82 268.002 1099.67 268.331 1099.38 268.606C1099.09 268.875 1098.74 269.01 1098.32 269.01ZM1105.39 281.688C1104.69 281.688 1104.07 281.565 1103.52 281.319C1102.97 281.068 1102.53 280.698 1102.21 280.211C1101.89 279.723 1101.74 279.122 1101.74 278.407C1101.74 277.791 1101.85 277.282 1102.08 276.88C1102.3 276.477 1102.61 276.155 1103.01 275.914C1103.4 275.672 1103.84 275.49 1104.33 275.367C1104.83 275.239 1105.35 275.147 1105.88 275.09C1106.52 275.024 1107.03 274.964 1107.43 274.912C1107.83 274.856 1108.12 274.77 1108.3 274.657C1108.48 274.538 1108.57 274.356 1108.57 274.11V274.067C1108.57 273.532 1108.42 273.118 1108.1 272.824C1107.78 272.531 1107.32 272.384 1106.73 272.384C1106.1 272.384 1105.6 272.521 1105.23 272.796C1104.87 273.071 1104.62 273.395 1104.49 273.769L1102.09 273.428C1102.28 272.765 1102.59 272.211 1103.03 271.766C1103.46 271.316 1104 270.98 1104.63 270.758C1105.26 270.53 1105.95 270.417 1106.71 270.417C1107.24 270.417 1107.76 270.478 1108.28 270.601C1108.8 270.724 1109.28 270.928 1109.71 271.212C1110.14 271.491 1110.49 271.873 1110.75 272.356C1111.01 272.839 1111.15 273.442 1111.15 274.167V281.468H1108.67V279.969H1108.59C1108.43 280.272 1108.21 280.556 1107.93 280.821C1107.65 281.082 1107.3 281.293 1106.87 281.454C1106.45 281.61 1105.95 281.688 1105.39 281.688ZM1106.05 279.799C1106.57 279.799 1107.02 279.697 1107.4 279.493C1107.77 279.285 1108.07 279.01 1108.27 278.669C1108.48 278.329 1108.58 277.957 1108.58 277.554V276.269C1108.5 276.335 1108.36 276.397 1108.17 276.454C1107.98 276.51 1107.77 276.56 1107.53 276.603C1107.29 276.645 1107.06 276.683 1106.83 276.716C1106.6 276.749 1106.39 276.778 1106.22 276.802C1105.84 276.854 1105.5 276.939 1105.19 277.057C1104.89 277.176 1104.65 277.341 1104.48 277.554C1104.3 277.763 1104.21 278.033 1104.21 278.364C1104.21 278.838 1104.39 279.195 1104.73 279.437C1105.08 279.678 1105.52 279.799 1106.05 279.799ZM1119.18 270.559V272.547H1112.91V270.559H1119.18ZM1114.46 267.945H1117.03V278.187C1117.03 278.532 1117.08 278.797 1117.18 278.982C1117.29 279.162 1117.43 279.285 1117.61 279.351C1117.78 279.418 1117.98 279.451 1118.19 279.451C1118.35 279.451 1118.5 279.439 1118.63 279.415C1118.77 279.392 1118.87 279.37 1118.94 279.351L1119.38 281.361C1119.24 281.409 1119.04 281.461 1118.79 281.517C1118.54 281.574 1118.23 281.607 1117.86 281.617C1117.22 281.636 1116.64 281.539 1116.12 281.326C1115.61 281.108 1115.2 280.772 1114.9 280.317C1114.6 279.863 1114.45 279.294 1114.46 278.613V267.945Z" fill="#204BDB"></path>
    <rect x="927" y="235.468" width="350" height="78.0567" rx="10" stroke="#204BDB" stroke-width="2" stroke-dasharray="5 5" shape-rendering="crispEdges"></rect>
  </g>
  <g filter="url(#filter7_bd_265_142252)">
    <rect x="971.038" y="337.524" width="261.924" height="70" rx="12" fill="white" shape-rendering="crispEdges"></rect>
    <circle cx="1079" cy="372.524" r="19" fill="#888EAA"></circle>
    <path d="M1078.52 381.409V363.742H1079.67V381.409H1078.52ZM1082.39 368.982C1082.31 368.271 1081.97 367.719 1081.37 367.326C1080.77 366.933 1080.03 366.737 1079.16 366.737C1078.53 366.737 1077.97 366.839 1077.49 367.045C1077.02 367.251 1076.65 367.534 1076.38 367.894C1076.12 368.255 1075.99 368.664 1075.99 369.123C1075.99 369.506 1076.08 369.836 1076.27 370.112C1076.45 370.384 1076.69 370.61 1076.98 370.793C1077.27 370.971 1077.58 371.118 1077.89 371.235C1078.21 371.347 1078.5 371.439 1078.77 371.509L1080.23 371.902C1080.61 372 1081.02 372.136 1081.48 372.309C1081.94 372.482 1082.39 372.718 1082.81 373.018C1083.23 373.312 1083.58 373.691 1083.86 374.154C1084.14 374.618 1084.27 375.186 1084.27 375.86C1084.27 376.637 1084.07 377.338 1083.66 377.965C1083.26 378.592 1082.67 379.09 1081.89 379.46C1081.12 379.83 1080.18 380.014 1079.08 380.014C1078.05 380.014 1077.16 379.848 1076.41 379.516C1075.66 379.184 1075.07 378.721 1074.64 378.127C1074.21 377.532 1073.97 376.842 1073.91 376.056H1075.71C1075.76 376.599 1075.94 377.048 1076.26 377.404C1076.58 377.755 1076.99 378.017 1077.48 378.19C1077.98 378.358 1078.51 378.442 1079.08 378.442C1079.74 378.442 1080.34 378.335 1080.87 378.12C1081.4 377.9 1081.82 377.596 1082.13 377.207C1082.43 376.814 1082.59 376.356 1082.59 375.832C1082.59 375.355 1082.46 374.966 1082.19 374.667C1081.92 374.367 1081.57 374.124 1081.14 373.937C1080.7 373.75 1080.23 373.586 1079.73 373.446L1077.96 372.94C1076.83 372.618 1075.95 372.157 1075.29 371.558C1074.64 370.959 1074.31 370.175 1074.31 369.207C1074.31 368.402 1074.53 367.7 1074.96 367.101C1075.4 366.498 1075.99 366.03 1076.73 365.698C1077.47 365.361 1078.3 365.193 1079.22 365.193C1080.15 365.193 1080.97 365.359 1081.69 365.691C1082.41 366.018 1082.98 366.467 1083.4 367.038C1083.83 367.609 1084.05 368.257 1084.08 368.982H1082.39Z" fill="white"></path>
    <path d="M1116.18 366.434H1117.76V375.101C1117.76 375.996 1117.55 376.795 1117.13 377.498C1116.71 378.197 1116.12 378.749 1115.36 379.154C1114.6 379.554 1113.7 379.755 1112.67 379.755C1111.65 379.755 1110.75 379.554 1109.99 379.154C1109.23 378.749 1108.63 378.197 1108.21 377.498C1107.79 376.795 1107.59 375.996 1107.59 375.101V366.434H1109.17V374.973C1109.17 375.612 1109.31 376.181 1109.59 376.68C1109.87 377.174 1110.27 377.564 1110.79 377.85C1111.32 378.131 1111.94 378.272 1112.67 378.272C1113.4 378.272 1114.03 378.131 1114.55 377.85C1115.08 377.564 1115.48 377.174 1115.75 376.68C1116.04 376.181 1116.18 375.612 1116.18 374.973V366.434ZM1128.09 369.706C1128.01 369.059 1127.7 368.556 1127.15 368.198C1126.61 367.84 1125.94 367.661 1125.15 367.661C1124.57 367.661 1124.06 367.755 1123.62 367.942C1123.19 368.13 1122.86 368.387 1122.61 368.715C1122.38 369.044 1122.26 369.416 1122.26 369.834C1122.26 370.184 1122.34 370.484 1122.51 370.735C1122.68 370.983 1122.89 371.189 1123.16 371.355C1123.42 371.517 1123.7 371.652 1123.99 371.758C1124.28 371.86 1124.54 371.943 1124.79 372.007L1126.12 372.365C1126.46 372.455 1126.84 372.578 1127.26 372.736C1127.68 372.894 1128.08 373.109 1128.46 373.382C1128.85 373.65 1129.17 373.995 1129.42 374.417C1129.67 374.839 1129.8 375.357 1129.8 375.97C1129.8 376.678 1129.61 377.317 1129.24 377.888C1128.88 378.459 1128.34 378.913 1127.63 379.25C1126.93 379.586 1126.07 379.755 1125.07 379.755C1124.13 379.755 1123.32 379.603 1122.63 379.301C1121.95 378.998 1121.41 378.576 1121.02 378.035C1120.64 377.494 1120.42 376.865 1120.36 376.149H1122C1122.04 376.644 1122.21 377.053 1122.5 377.377C1122.79 377.696 1123.16 377.935 1123.61 378.093C1124.06 378.246 1124.55 378.323 1125.07 378.323C1125.67 378.323 1126.22 378.225 1126.7 378.029C1127.18 377.828 1127.56 377.551 1127.84 377.198C1128.12 376.84 1128.27 376.422 1128.27 375.945C1128.27 375.51 1128.14 375.157 1127.9 374.884C1127.66 374.611 1127.34 374.389 1126.94 374.219C1126.55 374.049 1126.12 373.899 1125.66 373.772L1124.05 373.311C1123.02 373.017 1122.21 372.598 1121.62 372.052C1121.02 371.507 1120.72 370.793 1120.72 369.911C1120.72 369.178 1120.92 368.539 1121.32 367.993C1121.72 367.443 1122.25 367.017 1122.93 366.715C1123.61 366.408 1124.36 366.255 1125.2 366.255C1126.04 366.255 1126.79 366.406 1127.45 366.708C1128.1 367.007 1128.62 367.416 1129.01 367.936C1129.39 368.456 1129.6 369.046 1129.62 369.706H1128.09ZM1136.45 379.524H1132.41V366.434H1136.62C1137.89 366.434 1138.98 366.696 1139.88 367.22C1140.79 367.74 1141.48 368.487 1141.96 369.463C1142.44 370.435 1142.68 371.598 1142.68 372.953C1142.68 374.317 1142.44 375.491 1141.96 376.475C1141.47 377.456 1140.76 378.21 1139.83 378.738C1138.9 379.262 1137.77 379.524 1136.45 379.524ZM1133.99 378.118H1136.34C1137.43 378.118 1138.32 377.909 1139.03 377.492C1139.75 377.074 1140.28 376.48 1140.63 375.708C1140.98 374.937 1141.15 374.019 1141.15 372.953C1141.15 371.897 1140.98 370.987 1140.63 370.224C1140.29 369.457 1139.77 368.869 1139.09 368.46C1138.4 368.046 1137.54 367.84 1136.52 367.84H1133.99V378.118Z" fill="#262E39"></path>
  </g>
  <g filter="url(#filter8_bd_265_142252)">
    <rect x="971.038" y="423.524" width="261.924" height="70" rx="12" fill="white" shape-rendering="crispEdges"></rect>
    <g clip-path="url(#clip0_265_142252)">
      <g clip-path="url(#clip1_265_142252)">
        <path d="M1079.39 477.524C1089.88 477.524 1098.39 469.018 1098.39 458.524C1098.39 448.031 1089.88 439.524 1079.39 439.524C1068.9 439.524 1060.39 448.031 1060.39 458.524C1060.39 469.018 1068.9 477.524 1079.39 477.524Z" fill="#0F8FF8"></path>
        <path d="M1081.19 451.878C1082.8 451.878 1084.32 452.557 1085.47 453.791L1087.13 452.292C1085.55 450.596 1083.44 449.662 1081.19 449.662C1078.94 449.662 1076.84 450.596 1075.26 452.293C1074.47 453.14 1073.86 454.128 1073.45 455.201H1070.54V457.417H1072.92C1072.87 457.783 1072.84 458.152 1072.84 458.525C1072.84 458.898 1072.87 459.267 1072.92 459.633H1070.54V461.848H1073.45C1073.86 462.924 1074.47 463.911 1075.26 464.758C1076.84 466.454 1078.94 467.388 1081.19 467.388C1083.44 467.388 1085.55 466.454 1087.13 464.758L1085.47 463.26C1084.32 464.494 1082.8 465.172 1081.19 465.172C1079.58 465.172 1078.07 464.495 1076.92 463.26C1076.52 462.838 1076.21 462.355 1075.94 461.848H1080.67V459.633H1075.2C1075.14 459.269 1075.1 458.901 1075.1 458.525C1075.1 458.148 1075.14 457.781 1075.2 457.417H1080.67V455.201H1075.94C1076.21 454.695 1076.52 454.213 1076.92 453.791C1078.07 452.557 1079.58 451.878 1081.19 451.878Z" fill="white"></path>
      </g>
    </g>
    <path d="M1108.78 464.739V451.648H1116.68V453.055H1110.36V457.478H1116.27V458.884H1110.36V463.333H1116.78V464.739H1108.78ZM1128.13 451.648H1129.71V460.316C1129.71 461.211 1129.5 462.01 1129.08 462.713C1128.66 463.412 1128.07 463.964 1127.31 464.369C1126.55 464.769 1125.65 464.969 1124.62 464.969C1123.6 464.969 1122.7 464.769 1121.94 464.369C1121.18 463.964 1120.58 463.412 1120.16 462.713C1119.75 462.01 1119.54 461.211 1119.54 460.316V451.648H1121.12V460.188C1121.12 460.827 1121.26 461.396 1121.54 461.895C1121.82 462.389 1122.23 462.779 1122.75 463.065C1123.27 463.346 1123.9 463.486 1124.62 463.486C1125.35 463.486 1125.98 463.346 1126.5 463.065C1127.03 462.779 1127.43 462.389 1127.71 461.895C1127.99 461.396 1128.13 460.827 1128.13 460.188V451.648ZM1132.88 464.739V451.648H1137.3C1138.32 451.648 1139.16 451.823 1139.82 452.172C1140.48 452.518 1140.96 452.993 1141.28 453.598C1141.59 454.203 1141.75 454.891 1141.75 455.663C1141.75 456.434 1141.59 457.118 1141.28 457.714C1140.96 458.311 1140.48 458.78 1139.83 459.121C1139.17 459.457 1138.34 459.626 1137.33 459.626H1133.75V458.194H1137.28C1137.97 458.194 1138.54 458.092 1138.96 457.887C1139.39 457.682 1139.7 457.393 1139.9 457.018C1140.09 456.638 1140.19 456.187 1140.19 455.663C1140.19 455.138 1140.09 454.68 1139.9 454.288C1139.7 453.896 1139.39 453.594 1138.96 453.381C1138.53 453.163 1137.96 453.055 1137.25 453.055H1134.46V464.739H1132.88ZM1139.04 458.859L1142.26 464.739H1140.42L1137.25 458.859H1139.04Z" fill="#262E39"></path>
  </g>
  <defs>
    <filter id="filter0_bd_265_142252" x="-19.8641" y="-27.8641" width="1471.73" height="215.728" filterUnits="userSpaceOnUse" color-interpolation-filters="sRGB">
      <feFlood flood-opacity="0" result="BackgroundImageFix"></feFlood>
      <feGaussianBlur in="BackgroundImageFix" stdDeviation="28.932"></feGaussianBlur>
      <feComposite in2="SourceAlpha" operator="in" result="effect1_backgroundBlur_265_142252"></feComposite>
      <feColorMatrix in="SourceAlpha" type="matrix" values="0 0 0 0 0 0 0 0 0 0 0 0 0 0 0 0 0 0 127 0" result="hardAlpha"></feColorMatrix>
      <feOffset dy="7.69186"></feOffset>
      <feGaussianBlur stdDeviation="18.7489"></feGaussianBlur>
      <feComposite in2="hardAlpha" operator="out"></feComposite>
      <feColorMatrix type="matrix" values="0 0 0 0 0 0 0 0 0 0 0 0 0 0 0 0 0 0 0.06 0"></feColorMatrix>
      <feBlend mode="normal" in2="effect1_backgroundBlur_265_142252" result="effect2_dropShadow_265_142252"></feBlend>
      <feBlend mode="normal" in="SourceGraphic" in2="effect2_dropShadow_265_142252" result="shape"></feBlend>
    </filter>
    <filter id="filter1_d_265_142252" x="131.502" y="214.97" width="426.996" height="155.052" filterUnits="userSpaceOnUse" color-interpolation-filters="sRGB">
      <feFlood flood-opacity="0" result="BackgroundImageFix"></feFlood>
      <feColorMatrix in="SourceAlpha" type="matrix" values="0 0 0 0 0 0 0 0 0 0 0 0 0 0 0 0 0 0 127 0" result="hardAlpha"></feColorMatrix>
      <feOffset dx="15" dy="18"></feOffset>
      <feGaussianBlur stdDeviation="18.7489"></feGaussianBlur>
      <feComposite in2="hardAlpha" operator="out"></feComposite>
      <feColorMatrix type="matrix" values="0 0 0 0 0 0 0 0 0 0 0 0 0 0 0 0 0 0 0.06 0"></feColorMatrix>
      <feBlend mode="normal" in2="BackgroundImageFix" result="effect1_dropShadow_265_142252"></feBlend>
      <feBlend mode="normal" in="SourceGraphic" in2="effect1_dropShadow_265_142252" result="shape"></feBlend>
    </filter>
    <filter id="filter2_bd_265_142252" x="142.155" y="279.66" width="375.69" height="185.728" filterUnits="userSpaceOnUse" color-interpolation-filters="sRGB">
      <feFlood flood-opacity="0" result="BackgroundImageFix"></feFlood>
      <feGaussianBlur in="BackgroundImageFix" stdDeviation="28.932"></feGaussianBlur>
      <feComposite in2="SourceAlpha" operator="in" result="effect1_backgroundBlur_265_142252"></feComposite>
      <feColorMatrix in="SourceAlpha" type="matrix" values="0 0 0 0 0 0 0 0 0 0 0 0 0 0 0 0 0 0 127 0" result="hardAlpha"></feColorMatrix>
      <feOffset dx="15" dy="18"></feOffset>
      <feGaussianBlur stdDeviation="18.7489"></feGaussianBlur>
      <feComposite in2="hardAlpha" operator="out"></feComposite>
      <feColorMatrix type="matrix" values="0 0 0 0 0 0 0 0 0 0 0 0 0 0 0 0 0 0 0.06 0"></feColorMatrix>
      <feBlend mode="normal" in2="effect1_backgroundBlur_265_142252" result="effect2_dropShadow_265_142252"></feBlend>
      <feBlend mode="normal" in="SourceGraphic" in2="effect2_dropShadow_265_142252" result="shape"></feBlend>
    </filter>
    <filter id="filter3_bd_265_142252" x="142.155" y="365.66" width="375.69" height="185.728" filterUnits="userSpaceOnUse" color-interpolation-filters="sRGB">
      <feFlood flood-opacity="0" result="BackgroundImageFix"></feFlood>
      <feGaussianBlur in="BackgroundImageFix" stdDeviation="28.932"></feGaussianBlur>
      <feComposite in2="SourceAlpha" operator="in" result="effect1_backgroundBlur_265_142252"></feComposite>
      <feColorMatrix in="SourceAlpha" type="matrix" values="0 0 0 0 0 0 0 0 0 0 0 0 0 0 0 0 0 0 127 0" result="hardAlpha"></feColorMatrix>
      <feOffset dx="15" dy="18"></feOffset>
      <feGaussianBlur stdDeviation="18.7489"></feGaussianBlur>
      <feComposite in2="hardAlpha" operator="out"></feComposite>
      <feColorMatrix type="matrix" values="0 0 0 0 0 0 0 0 0 0 0 0 0 0 0 0 0 0 0.06 0"></feColorMatrix>
      <feBlend mode="normal" in2="effect1_backgroundBlur_265_142252" result="effect2_dropShadow_265_142252"></feBlend>
      <feBlend mode="normal" in="SourceGraphic" in2="effect2_dropShadow_265_142252" result="shape"></feBlend>
    </filter>
    <filter id="filter4_d_265_142252" x="517.502" y="214.97" width="426.996" height="155.052" filterUnits="userSpaceOnUse" color-interpolation-filters="sRGB">
      <feFlood flood-opacity="0" result="BackgroundImageFix"></feFlood>
      <feColorMatrix in="SourceAlpha" type="matrix" values="0 0 0 0 0 0 0 0 0 0 0 0 0 0 0 0 0 0 127 0" result="hardAlpha"></feColorMatrix>
      <feOffset dx="15" dy="18"></feOffset>
      <feGaussianBlur stdDeviation="18.7489"></feGaussianBlur>
      <feComposite in2="hardAlpha" operator="out"></feComposite>
      <feColorMatrix type="matrix" values="0 0 0 0 0 0 0 0 0 0 0 0 0 0 0 0 0 0 0.06 0"></feColorMatrix>
      <feBlend mode="normal" in2="BackgroundImageFix" result="effect1_dropShadow_265_142252"></feBlend>
      <feBlend mode="normal" in="SourceGraphic" in2="effect1_dropShadow_265_142252" result="shape"></feBlend>
    </filter>
    <filter id="filter5_bd_265_142252" x="527.174" y="279.66" width="377.652" height="185.728" filterUnits="userSpaceOnUse" color-interpolation-filters="sRGB">
      <feFlood flood-opacity="0" result="BackgroundImageFix"></feFlood>
      <feGaussianBlur in="BackgroundImageFix" stdDeviation="28.932"></feGaussianBlur>
      <feComposite in2="SourceAlpha" operator="in" result="effect1_backgroundBlur_265_142252"></feComposite>
      <feColorMatrix in="SourceAlpha" type="matrix" values="0 0 0 0 0 0 0 0 0 0 0 0 0 0 0 0 0 0 127 0" result="hardAlpha"></feColorMatrix>
      <feOffset dx="15" dy="18"></feOffset>
      <feGaussianBlur stdDeviation="18.7489"></feGaussianBlur>
      <feComposite in2="hardAlpha" operator="out"></feComposite>
      <feColorMatrix type="matrix" values="0 0 0 0 0 0 0 0 0 0 0 0 0 0 0 0 0 0 0.06 0"></feColorMatrix>
      <feBlend mode="normal" in2="effect1_backgroundBlur_265_142252" result="effect2_dropShadow_265_142252"></feBlend>
      <feBlend mode="normal" in="SourceGraphic" in2="effect2_dropShadow_265_142252" result="shape"></feBlend>
    </filter>
    <filter id="filter6_d_265_142252" x="903.502" y="214.97" width="426.996" height="155.052" filterUnits="userSpaceOnUse" color-interpolation-filters="sRGB">
      <feFlood flood-opacity="0" result="BackgroundImageFix"></feFlood>
      <feColorMatrix in="SourceAlpha" type="matrix" values="0 0 0 0 0 0 0 0 0 0 0 0 0 0 0 0 0 0 127 0" result="hardAlpha"></feColorMatrix>
      <feOffset dx="15" dy="18"></feOffset>
      <feGaussianBlur stdDeviation="18.7489"></feGaussianBlur>
      <feComposite in2="hardAlpha" operator="out"></feComposite>
      <feColorMatrix type="matrix" values="0 0 0 0 0 0 0 0 0 0 0 0 0 0 0 0 0 0 0.06 0"></feColorMatrix>
      <feBlend mode="normal" in2="BackgroundImageFix" result="effect1_dropShadow_265_142252"></feBlend>
      <feBlend mode="normal" in="SourceGraphic" in2="effect1_dropShadow_265_142252" result="shape"></feBlend>
    </filter>
    <filter id="filter7_bd_265_142252" x="913.174" y="279.66" width="377.652" height="185.728" filterUnits="userSpaceOnUse" color-interpolation-filters="sRGB">
      <feFlood flood-opacity="0" result="BackgroundImageFix"></feFlood>
      <feGaussianBlur in="BackgroundImageFix" stdDeviation="28.932"></feGaussianBlur>
      <feComposite in2="SourceAlpha" operator="in" result="effect1_backgroundBlur_265_142252"></feComposite>
      <feColorMatrix in="SourceAlpha" type="matrix" values="0 0 0 0 0 0 0 0 0 0 0 0 0 0 0 0 0 0 127 0" result="hardAlpha"></feColorMatrix>
      <feOffset dx="15" dy="18"></feOffset>
      <feGaussianBlur stdDeviation="18.7489"></feGaussianBlur>
      <feComposite in2="hardAlpha" operator="out"></feComposite>
      <feColorMatrix type="matrix" values="0 0 0 0 0 0 0 0 0 0 0 0 0 0 0 0 0 0 0.06 0"></feColorMatrix>
      <feBlend mode="normal" in2="effect1_backgroundBlur_265_142252" result="effect2_dropShadow_265_142252"></feBlend>
      <feBlend mode="normal" in="SourceGraphic" in2="effect2_dropShadow_265_142252" result="shape"></feBlend>
    </filter>
    <filter id="filter8_bd_265_142252" x="913.174" y="365.66" width="377.652" height="185.728" filterUnits="userSpaceOnUse" color-interpolation-filters="sRGB">
      <feFlood flood-opacity="0" result="BackgroundImageFix"></feFlood>
      <feGaussianBlur in="BackgroundImageFix" stdDeviation="28.932"></feGaussianBlur>
      <feComposite in2="SourceAlpha" operator="in" result="effect1_backgroundBlur_265_142252"></feComposite>
      <feColorMatrix in="SourceAlpha" type="matrix" values="0 0 0 0 0 0 0 0 0 0 0 0 0 0 0 0 0 0 127 0" result="hardAlpha"></feColorMatrix>
      <feOffset dx="15" dy="18"></feOffset>
      <feGaussianBlur stdDeviation="18.7489"></feGaussianBlur>
      <feComposite in2="hardAlpha" operator="out"></feComposite>
      <feColorMatrix type="matrix" values="0 0 0 0 0 0 0 0 0 0 0 0 0 0 0 0 0 0 0.06 0"></feColorMatrix>
      <feBlend mode="normal" in2="effect1_backgroundBlur_265_142252" result="effect2_dropShadow_265_142252"></feBlend>
      <feBlend mode="normal" in="SourceGraphic" in2="effect2_dropShadow_265_142252" result="shape"></feBlend>
    </filter>
    <clipPath id="clip0_265_142252">
      <rect width="38" height="38" fill="white" transform="translate(1060.39 439.524)"></rect>
    </clipPath>
    <clipPath id="clip1_265_142252">
      <rect width="38" height="38" fill="white" transform="translate(1060.39 439.524)"></rect>
    </clipPath>
  </defs>
</svg>
