<svg width="18" height="18" viewBox="0 0 18 18" fill="none" xmlns="http://www.w3.org/2000/svg">
<path d="M17.2809 11.1531C16.1457 15.7067 11.5336 18.478 6.97943 17.3424C2.42718 16.2072 -0.344063 11.5948 0.791672 7.0416C1.92641 2.48749 6.53849 -0.283964 11.0912 0.851273C15.6451 1.98651 18.4161 6.59937 17.2808 11.1532L17.2809 11.1531H17.2809Z" fill="#F7931A"/>
<path fill-rule="evenodd" clip-rule="evenodd" d="M12.7842 7.88579C12.9534 6.75462 12.0922 6.14658 10.9146 5.74096L11.2966 4.20869L10.3639 3.97628L9.99202 5.4682C9.7468 5.40704 9.49499 5.34941 9.24471 5.29229L9.6193 3.79052L8.68714 3.55811L8.30491 5.08987C8.10199 5.04367 7.90269 4.99801 7.70933 4.9499L7.71041 4.94508L6.42415 4.62388L6.17603 5.62009C6.17603 5.62009 6.86804 5.77872 6.85346 5.78849C7.23116 5.88276 7.29946 6.13279 7.28812 6.33097L6.85296 8.07657C6.87897 8.08318 6.9127 8.09274 6.94993 8.10769L6.92283 8.10093C6.89982 8.09517 6.8759 8.08919 6.85134 8.08331L6.24138 10.5287C6.19522 10.6434 6.07806 10.8156 5.81398 10.7502C5.82333 10.7638 5.13606 10.581 5.13606 10.581L4.67297 11.6487L5.88678 11.9513C6.01962 11.9846 6.15091 12.0188 6.28086 12.0527L6.2811 12.0528C6.37195 12.0765 6.46215 12.1 6.55178 12.1229L6.16581 13.6727L7.09746 13.9052L7.4797 12.3718C7.73421 12.4409 7.98121 12.5046 8.22302 12.5647L7.84207 14.0908L8.77485 14.3232L9.16078 12.7763C10.7513 13.0773 11.9472 12.956 12.4506 11.5173C12.8562 10.3591 12.4304 9.69102 11.5937 9.25535C12.2031 9.1148 12.6622 8.71395 12.7846 7.88591L12.7843 7.88571L12.7842 7.88579ZM10.6532 10.8741C10.3887 11.9368 8.72534 11.4975 7.9643 11.2965L7.96424 11.2964C7.89581 11.2784 7.83467 11.2622 7.7825 11.2493L8.29469 9.196C8.35828 9.21187 8.43599 9.22931 8.52402 9.24907L8.52404 9.24907C9.31125 9.42574 10.9241 9.7877 10.6532 10.8741H10.6532ZM8.68194 8.2961C9.31643 8.46543 10.7006 8.83483 10.9416 7.869H10.9417C11.1879 6.8812 9.8427 6.58339 9.18573 6.43794C9.11183 6.42157 9.04663 6.40714 8.99339 6.39387L8.52901 8.25606C8.57286 8.26699 8.6243 8.28072 8.68194 8.2961Z" fill="white"/>
</svg>
