<svg width="39" height="48" viewBox="0 0 39 48" fill="none" xmlns="http://www.w3.org/2000/svg">
<path d="M31.7497 11.5433C30.0786 6.82079 25.4955 6.23934 20.1065 7.09261L18.433 0.379883L14.3486 1.39861L15.9795 7.93407C14.9041 8.20352 13.8121 8.49661 12.7272 8.79206L11.0868 2.2117L7.00245 3.23043L8.67591 9.94316C7.79427 10.1795 6.93154 10.4135 6.083 10.6239L6.07827 10.6026L0.443359 12.0066L1.53063 16.3699C1.53063 16.3699 4.53245 15.5592 4.497 15.6277C6.15154 15.2164 6.93154 16.0413 7.29318 16.8332L9.20063 24.4795C9.31645 24.4512 9.46536 24.4181 9.64027 24.3992L9.20772 24.5079L11.8786 35.2199C11.9354 35.7588 11.8361 36.6641 10.6803 36.9548C10.7441 36.9879 7.71154 37.6946 7.71154 37.6946L8.11336 42.7764L13.4315 41.4504C14.4219 41.2046 15.4005 40.9777 16.3577 40.7461L18.0501 47.5344L22.1321 46.5181L20.4563 39.8006C21.5495 39.5524 22.64 39.2924 23.7275 39.0206L25.3939 45.705L29.4783 44.6863L27.7906 37.9097C34.5601 35.8013 38.9375 32.8752 37.9259 26.2759C37.1128 20.9601 34.0921 19.2535 29.9604 19.289C32.0263 17.4926 32.9788 14.9966 31.7497 11.5433ZM29.6532 27.4837C30.9201 32.5561 22.0895 34.1444 19.3217 34.837L17.081 25.8433C19.8488 25.1532 28.3319 22.1915 29.6532 27.4837ZM24.5879 15.2684C25.739 19.8822 18.3597 21.1515 16.0552 21.7259L14.0201 13.569C16.327 12.9922 23.3872 10.4537 24.5879 15.2684Z" fill="white"/>
</svg>
