<svg width="44" height="44" viewBox="0 0 44 44" fill="none" xmlns="http://www.w3.org/2000/svg">
<path d="M0 22C0 9.84974 9.84974 0 22 0C34.1503 0 44 9.84974 44 22C44 34.1503 34.1503 44 22 44C9.84974 44 0 34.1503 0 22Z" fill="#F7931A"/>
<path d="M29.189 20.02C29.503 17.924 27.906 16.797 25.724 16.045L26.432 13.205L24.704 12.775L24.014 15.54C23.56 15.426 23.094 15.32 22.629 15.214L23.324 12.431L21.596 12L20.888 14.839C20.512 14.753 20.142 14.669 19.784 14.579L19.786 14.57L17.402 13.975L16.942 15.821C16.942 15.821 18.225 16.115 18.198 16.133C18.898 16.308 19.024 16.771 19.003 17.139L18.197 20.374C18.245 20.386 18.307 20.404 18.377 20.431L18.194 20.386L17.064 24.918C16.978 25.13 16.761 25.449 16.271 25.328C16.289 25.353 15.015 25.015 15.015 25.015L14.157 26.993L16.407 27.554C16.825 27.659 17.235 27.769 17.638 27.872L16.923 30.744L18.65 31.174L19.358 28.334C19.83 28.461 20.288 28.579 20.736 28.691L20.03 31.519L21.758 31.949L22.473 29.083C25.421 29.641 27.637 29.416 28.57 26.75C29.322 24.604 28.533 23.365 26.982 22.558C28.112 22.298 28.962 21.555 29.189 20.02ZM25.239 25.558C24.706 27.705 21.091 26.544 19.919 26.253L20.869 22.448C22.041 22.741 25.798 23.32 25.239 25.558ZM25.774 19.989C25.287 21.942 22.279 20.949 21.304 20.706L22.164 17.256C23.139 17.499 26.282 17.952 25.774 19.989Z" fill="white"/>
</svg>
