<svg width="39" height="50" viewBox="0 0 39 50" fill="none" xmlns="http://www.w3.org/2000/svg">
<path d="M37.9726 20.05C38.7576 14.81 34.7651 11.9925 29.3101 10.1125L31.0801 3.0125L26.7601 1.9375L25.0351 8.85C23.9001 8.565 22.7351 8.3 21.5726 8.035L23.3101 1.0775L18.9901 0L17.2201 7.0975C16.2801 6.8825 15.3551 6.6725 14.4601 6.4475L14.4651 6.425L8.50508 4.9375L7.35508 9.5525C7.35508 9.5525 10.5626 10.2875 10.4951 10.3325C12.2451 10.77 12.5601 11.9275 12.5076 12.8475L10.4926 20.935C10.6126 20.965 10.7676 21.01 10.9426 21.0775L10.4851 20.965L7.66008 32.295C7.44508 32.825 6.90258 33.6225 5.67758 33.32C5.72258 33.3825 2.53758 32.5375 2.53758 32.5375L0.392578 37.4825L6.01758 38.885C7.06258 39.1475 8.08758 39.4225 9.09508 39.68L7.30758 46.86L11.6251 47.935L13.3951 40.835C14.5751 41.1525 15.7201 41.4475 16.8401 41.7275L15.0751 48.7975L19.3951 49.8725L21.1826 42.7075C28.5526 44.1025 34.0926 43.54 36.4251 36.875C38.3051 31.51 36.3326 28.4125 32.4551 26.395C35.2801 25.745 37.4051 23.8875 37.9726 20.05ZM28.0976 33.895C26.7651 39.2625 17.7276 36.36 14.7976 35.6325L17.1726 26.12C20.1026 26.8525 29.4951 28.3 28.0976 33.895ZM29.4351 19.9725C28.2176 24.855 20.6976 22.3725 18.2601 21.765L20.4101 13.14C22.8476 13.7475 30.7051 14.88 29.4351 19.9725Z" fill="white"/>
</svg>
