<?xml version="1.0" encoding="UTF-8"?>
<svg xmlns="http://www.w3.org/2000/svg" width="199" height="33" viewBox="0 0 199 33" fill="none">
  <g clip-path="url(#clip0_2_2273)">
    <path d="M46.5685 16.5804C46.5685 20.4844 49.4805 23.0764 53.0005 23.0764C54.9205 23.0764 56.7765 22.5644 58.4085 21.5404V25.3164C57.6725 25.7644 55.4645 26.5964 53.0005 26.5964C47.2725 26.5964 42.7285 22.2444 42.7285 16.5804C42.7285 10.9164 47.3045 6.56444 53.0325 6.56444C55.4965 6.56444 57.7045 7.39644 58.4405 7.84444V11.6204C56.8085 10.6284 54.9205 10.0844 53.0325 10.0844C49.4805 10.0844 46.5685 12.6764 46.5685 16.5804ZM75.3045 16.8044V26.3084H71.7845V17.9244C71.7845 16.2604 71.0485 15.0124 69.1605 15.0124C67.3365 15.0124 66.2485 16.1644 66.2485 18.2444V26.2764H62.7285V5.70044H66.2485V14.5324C66.5045 13.8924 67.4965 11.9084 70.4405 11.9084C73.4805 11.9084 75.3045 13.7324 75.3045 16.8044ZM94.4405 23.3324V26.3084H89.8965C89.6085 26.3404 89.3525 26.1164 89.3205 25.7964V25.7644V23.2364C88.8405 24.9004 87.5605 26.5964 84.8405 26.5964C81.1605 26.5964 78.5045 23.8444 78.5045 19.2684C78.5045 14.5964 81.4165 11.9404 85.0325 11.9404C88.3605 11.9404 89.0325 14.6924 89.0325 14.6924V12.2284H92.5525V23.3644H94.4405V23.3324ZM89.1605 19.2684C89.1605 16.6124 87.8805 14.9484 85.7685 14.9484C83.7205 14.9484 82.1845 16.4524 82.1845 19.2364C82.1845 22.0204 83.4645 23.5244 85.6085 23.5244C87.7845 23.5564 89.1605 22.1484 89.1605 19.2684ZM102.505 12.7724V26.3084H98.9845V15.1724H96.4245V12.1964H101.961C102.249 12.1964 102.505 12.4204 102.505 12.7084C102.505 12.7404 102.505 12.7404 102.505 12.7724ZM102.409 9.25244H98.6005V5.70044H102.409V9.25244ZM106.633 12.1964H110.121V14.6924C110.249 14.3084 111.081 11.9084 114.377 11.9084C117.417 11.9084 119.241 13.7324 119.241 16.8044V26.3084H115.721V17.9244C115.721 16.2604 114.985 15.0124 113.097 15.0124C111.273 15.0124 110.185 16.1644 110.185 18.2444V26.2764H106.665L106.633 12.1964ZM138.345 23.3324V26.3084H133.801C133.513 26.3404 133.257 26.1164 133.225 25.7964V25.7644V23.2364C132.745 24.9004 131.465 26.5964 128.745 26.5964C125.065 26.5964 122.409 23.8444 122.409 19.2684C122.409 14.5964 125.321 11.9404 128.937 11.9404C132.265 11.9404 132.937 14.6924 132.937 14.6924V12.2284H136.457V23.3644H138.345V23.3324ZM133.065 19.2684C133.065 16.6124 131.785 14.9484 129.673 14.9484C127.625 14.9484 126.089 16.4524 126.089 19.2364C126.089 22.0204 127.369 23.5244 129.513 23.5244C131.689 23.5564 133.065 22.1484 133.065 19.2684ZM145.545 6.56444V26.3084H142.025V8.67644H139.817V5.70044H144.713C145.161 5.70044 145.545 6.08444 145.545 6.56444ZM151.913 32.8044H148.393V29.8284H150.985C151.913 29.8284 152.329 29.5404 152.681 28.7084L153.737 26.0524L148.297 12.1964H152.233L155.529 22.1484L158.953 12.1964H162.889L155.945 30.0524C155.177 31.9724 153.961 32.8044 151.913 32.8044ZM164.809 25.4124V21.9884C165.289 22.3084 167.241 23.5884 169.417 23.5884C171.081 23.5884 171.816 23.1084 171.816 22.1804C171.816 19.3964 164.617 21.4444 164.617 16.1324C164.617 13.7324 166.632 11.9084 170.377 11.9084C172.424 11.9084 173.897 12.4524 174.473 12.7724V16.1644C173.769 15.7164 172.361 14.8204 170.441 14.8204C168.777 14.8204 168.169 15.3324 168.169 16.1324C168.169 18.4044 175.337 16.8364 175.337 22.0204C175.337 24.8364 173.001 26.6284 169.576 26.6284C167.305 26.5964 165.449 25.8284 164.809 25.4124ZM183.753 12.7724V26.3084H180.233V15.1724H177.673V12.1964H183.209C183.497 12.1964 183.753 12.4204 183.753 12.7084C183.753 12.7404 183.753 12.7404 183.753 12.7724ZM183.625 9.25244H179.816V5.70044H183.625V9.25244ZM187.529 25.4124V21.9884C188.009 22.3084 189.96 23.5884 192.137 23.5884C193.801 23.5884 194.536 23.1084 194.536 22.1804C194.536 19.3964 187.337 21.4444 187.337 16.1324C187.337 13.7324 189.352 11.9084 193.096 11.9084C195.145 11.9084 196.617 12.4524 197.193 12.7724V16.1644C196.009 15.3324 194.601 14.8524 193.161 14.8204C191.497 14.8204 190.857 15.3324 190.857 16.1324C190.857 18.4044 198.025 16.8364 198.025 22.0204C198.025 24.8364 195.689 26.6284 192.265 26.6284C190.025 26.5964 188.169 25.8284 187.529 25.4124Z" fill="#FF5300"></path>
    <path d="M16.5851 0.804443C16.9371 0.804443 17.3531 0.836443 17.3531 0.836443C16.1371 2.27644 15.4331 4.06844 15.2731 5.92444C10.6331 6.69244 7.01706 10.4044 6.34506 15.0764C4.26506 15.3004 1.92906 16.2604 0.585062 17.6044C0.265062 8.32444 7.40106 0.804443 16.5851 0.804443ZM18.8891 28.7084C18.4731 28.7724 18.0251 28.8044 17.6091 28.8044C16.8731 28.8044 16.1371 28.7404 15.4011 28.6124C14.8251 29.9884 14.0891 31.2684 13.1611 32.4524C7.30506 31.1724 2.66506 26.6924 1.12906 20.9004C2.56906 19.2044 5.89706 18.1804 7.97706 18.1804C12.3931 18.1804 14.7291 20.5164 15.5611 24.1644C12.9051 23.4604 11.3371 21.9564 10.2811 19.7484C9.67306 19.5244 9.03306 19.4284 8.39306 19.4284C7.81706 19.4284 7.24106 19.5244 6.66506 19.6844C7.84906 24.1644 12.1691 27.4924 17.4491 27.4924C22.3131 27.4924 24.3931 25.0284 24.3931 25.0284V21.2524C24.3931 21.2524 21.9931 23.7484 19.0171 24.2284C18.3451 19.4604 14.5691 15.7484 9.83306 15.0764C10.6011 11.3004 13.4811 9.15644 17.3851 9.15644C21.2891 9.15644 24.4571 12.0044 24.4571 12.0044V8.29244C24.4571 8.29244 22.4411 6.40444 18.8251 5.98844C18.9211 4.32444 20.0091 2.24444 21.1611 1.47644C26.0571 3.01244 30.7931 7.17244 32.1371 13.1884C32.1371 13.1884 29.9611 15.3644 25.9291 15.3644C22.6011 15.3644 20.4891 13.7004 19.3051 10.7564C18.6971 10.5324 18.0251 10.4364 17.3851 10.4364C16.7771 10.4364 16.1691 10.5324 15.5931 10.7564C16.9051 15.4604 21.0331 18.5964 25.6411 18.5964C30.1531 18.5964 32.5851 16.5164 32.5851 16.5164C32.5851 25.8924 25.4171 32.6124 16.9051 32.7724C17.8971 31.8444 18.6651 29.7324 18.8891 28.7084Z" fill="#FF5300"></path>
  </g>
  <defs>
    <clipPath id="clip0_2_2273">
      <rect width="197.44" height="32" fill="white" transform="translate(0.585938 0.804688)"></rect>
    </clipPath>
  </defs>
</svg>
