<svg width="58" height="47" viewBox="0 0 58 47" fill="none" xmlns="http://www.w3.org/2000/svg">
<path d="M37.5696 0H16.7932L15.0742 9.61439L33.8118 9.64294C43.0378 9.64294 45.7762 12.9924 45.6877 18.552C45.6477 21.4018 44.4056 26.2218 43.8802 27.7752C42.461 31.9442 39.537 36.69 28.5777 36.6757L10.3655 36.6643L8.64648 46.2901H29.3687C36.6758 46.2901 39.7883 45.4363 43.075 43.9201C50.3678 40.5563 54.711 33.352 56.4557 23.9489C59.0428 9.95705 55.8161 0 37.5667 0H37.5696Z" fill="white"/>
<path d="M28.209 22.2579C28.8858 19.4453 29.0999 18.3174 29.0999 18.3174H7.83806C2.40124 18.3174 1.62455 21.8582 1.1077 23.9998C0.430957 26.801 0.216797 27.9432 0.216797 27.9432H21.4815C26.9155 27.9432 27.6922 24.4024 28.209 22.2579Z" fill="white"/>
</svg>
