<svg width="60" height="60" viewBox="0 0 60 60" fill="none" xmlns="http://www.w3.org/2000/svg">
<path d="M27.1519 0.136409C33.5133 -0.478687 40.0595 0.997544 45.518 4.33957C50.6687 7.43555 54.8344 12.1103 57.3174 17.5846C59.9441 23.2845 60.6418 29.8455 59.4106 35.9965C58.1793 42.168 54.9165 47.9089 50.2583 52.1325C45.6001 56.4382 39.5464 59.1651 33.2466 59.8417C29.1834 60.2313 25.0177 59.9237 21.1188 58.6731C14.4495 56.6227 8.53952 52.153 4.78421 46.2686C1.60349 41.3889 -0.0792165 35.5454 0.00286673 29.743C0.00286673 23.0795 2.38328 16.4775 6.549 11.2902C11.5356 4.99567 19.1488 0.874524 27.1519 0.136409Z" fill="#988430"/>
<path d="M29.4093 0.936009C34.7447 0.833493 40.1211 2.20721 44.7178 4.91363C49.6633 7.84559 53.747 12.2538 56.23 17.4411C58.8977 22.8539 59.6775 29.1484 58.6514 35.0738C57.2971 43.0291 52.3926 50.2872 45.5592 54.5519C40.8189 57.5864 35.1551 59.1651 29.5324 59.0421C24.0328 59.0011 18.5948 57.2993 14.0187 54.2648C9.33995 51.1689 5.5436 46.7197 3.32736 41.5734C0.78278 35.771 0.228718 29.1074 1.7883 22.9564C3.30684 16.7235 7.0211 11.0851 12.0487 7.14848C16.9532 3.25287 23.1504 1.05903 29.4093 0.936009Z" fill="#7A6A2A"/>
<path d="M18.3483 4.03191C23.3759 1.75605 29.0397 1.03844 34.4777 1.89957C40.1414 2.78121 45.5179 5.44663 49.6631 9.42425C54.7317 14.222 57.933 20.9265 58.4049 27.8976C59.0411 35.8324 56.1271 43.9721 50.566 49.672C50.4839 48.0113 50.4634 46.371 50.4223 44.7103C50.4018 43.4801 50.1351 42.2909 50.0324 41.0607C50.053 40.6301 50.094 40.2201 50.1145 39.7895C50.1761 38.6413 49.5605 37.5751 49.7246 36.4065C49.8683 34.7867 49.0269 33.3105 48.596 31.7727C48.1651 30.7066 48.2061 29.5174 47.7957 28.4512C47.5084 24.3096 45.8872 20.1064 42.7476 17.2975C42.8502 17.154 43.0554 16.8669 43.158 16.7234C43.2811 16.9899 43.4248 17.2565 43.5684 17.523C44.3071 16.7029 44.4098 15.5547 44.6355 14.509C45.0459 12.6638 44.7586 10.757 44.4508 8.91167C44.2045 7.96852 44.0199 6.88185 43.2195 6.22575C42.3782 5.73367 40.9212 5.71317 40.4287 6.69732C40.4082 6.75883 40.3877 6.86135 40.3672 6.92286C39.9978 7.55846 39.4848 8.11204 38.8486 8.4811C37.72 9.17821 37.1043 10.5109 35.8936 11.1055C35.1343 11.3516 34.3751 10.9415 33.5953 11.0235C32.1383 11.167 30.6813 11.249 29.2654 11.6591C27.9316 11.4541 26.5977 11.2285 25.2638 10.962C25.2638 10.8595 25.2844 10.6749 25.2844 10.5724C24.6687 9.97784 24.1352 9.32173 23.9095 8.4811C23.4991 6.94336 22.5551 5.44663 21.1187 4.68801C20.9134 4.606 20.7082 4.52398 20.503 4.46248C20.3799 4.606 20.2568 4.74952 20.1337 4.89304C20.0926 4.99556 19.99 5.22109 19.949 5.32361C19.6206 6.04122 19.7027 6.84085 19.6822 7.59946C19.6617 9.56777 19.4565 11.5771 18.6151 13.4019C17.2813 13.4019 15.9269 13.3814 14.593 13.4019C14.3263 13.9965 14.4289 14.6731 14.4083 15.3087C12.2537 17.2975 11.3918 20.2499 10.9814 23.0589C10.9814 23.2844 10.9814 23.4894 11.0019 23.715C11.0019 23.797 11.0019 23.9815 11.0224 24.0635C10.0785 25.3142 9.9143 26.9545 9.66805 28.4512C10.0169 28.4307 10.3658 28.4102 10.7146 28.3897C10.3863 28.4307 10.0785 28.4512 9.75013 28.4922C9.68857 28.8408 9.64753 29.1688 9.60648 29.5174C9.9143 29.3944 10.2221 29.2919 10.5299 29.1688H10.6941C10.3247 29.3124 9.95534 29.4969 9.60648 29.6814C9.60648 29.9069 9.627 30.3375 9.64752 30.5425C10.0785 30.317 10.4889 30.112 10.9198 29.907L10.7556 30.071C10.3863 30.2965 9.93482 30.44 9.64752 30.7681C9.64752 31.5472 9.77065 32.3468 9.87325 33.126C10.1605 34.8892 10.7762 36.632 11.6791 38.1697C11.6586 39.2974 11.4123 40.4456 10.7351 41.3682C10.9198 41.7168 11.2276 42.0448 11.2481 42.4549C11.125 43.152 10.571 43.7466 10.6941 44.5052C10.8377 46.3095 10.1811 48.0523 9.40128 49.631C5.31764 45.4074 2.62941 39.851 1.80858 34.0281C1.02879 28.5947 1.84962 22.9359 4.18899 17.9741C7.04138 11.8231 12.1716 6.77934 18.3483 4.03191Z" fill="#BA9F33"/>
<path d="M20.1133 4.89321C20.2365 4.74969 20.3596 4.60617 20.4827 4.46265C20.6879 4.54466 20.8931 4.60617 21.0983 4.68818C21.4472 5.75435 21.9807 6.84102 21.8576 8.0097C21.8166 8.78882 21.6524 9.60895 22.0423 10.3471C22.2065 10.7571 22.6169 10.9622 22.9657 11.2082C22.7605 11.3722 22.5553 11.5363 22.3296 11.6798C21.4267 12.0488 20.7084 12.7049 20.0313 13.402H19.2515C20.6879 11.6798 21.3241 9.40392 21.3241 7.18957C21.3446 6.24642 20.6264 5.56982 20.1133 4.89321Z" fill="#C79C3B"/>
<path d="M21.0981 4.70874C22.5346 5.46736 23.4991 6.96409 23.889 8.50183C24.1147 9.34246 24.6688 9.99857 25.2639 10.5932C25.2639 10.6957 25.2433 10.8802 25.2433 10.9827C24.4841 10.7367 23.5606 10.5727 22.9655 11.2288C22.6167 10.9827 22.2063 10.7777 22.0421 10.3676C21.6522 9.65001 21.8164 8.80938 21.8574 8.03026C21.9805 6.86158 21.447 5.77491 21.0981 4.70874Z" fill="#B58634"/>
<path d="M20.1131 4.89307C20.6261 5.56967 21.3238 6.24628 21.3033 7.16892C21.3033 9.38327 20.6672 11.6591 19.2307 13.3814H18.8408C19.4564 12.4382 20.0721 11.3926 20.1542 10.2239C20.2773 8.58364 19.7643 6.96389 19.9284 5.30313C19.9695 5.22112 20.0721 4.99558 20.1131 4.89307Z" fill="#DFC068"/>
<path d="M19.6609 7.59959C19.6814 6.84097 19.6199 6.04134 19.9274 5.32373C19.7634 6.96399 20.276 8.60424 20.153 10.2445C20.0915 11.4132 19.4764 12.4383 18.8408 13.402H18.5947C19.4354 11.5977 19.6404 9.56789 19.6609 7.59959Z" fill="#A78F33"/>
<path d="M40.4082 6.69746C40.9007 5.71331 42.3577 5.71331 43.199 6.22589C43.9788 6.88199 44.184 7.96866 44.4303 8.91181C44.7381 10.7571 45.0254 12.6639 44.615 14.5092C44.3892 15.5548 44.2866 16.6825 43.5479 17.5232C43.4042 17.2566 43.2606 17.0106 43.1375 16.7235C42.9938 16.3135 42.8707 15.9034 42.7476 15.4933C43.2606 14.3657 43.5068 13.1355 43.6505 11.9258C43.7736 10.8391 43.0349 9.93697 42.3166 9.21936C41.9473 8.1942 41.1675 7.43558 40.4082 6.69746Z" fill="#A17C34"/>
<path d="M40.3465 6.92305C40.3671 6.86154 40.3876 6.75902 40.4081 6.69751C41.1674 7.43563 41.9472 8.19424 42.3371 9.1989C42.3165 9.48595 42.255 9.814 41.9267 9.93702C41.0443 10.3881 40.0387 10.7161 39.4026 11.5158C38.9511 12.0899 38.0893 12.3974 38.0277 13.197C38.1303 13.2585 38.315 13.4021 38.3971 13.4636C38.315 13.5866 38.1303 13.8121 38.0482 13.9146C38.1508 14.0377 38.2739 14.1402 38.3971 14.2632C38.8691 13.7711 39.6078 13.7301 40.2029 13.5046C40.1003 13.7506 40.0182 13.9761 39.9156 14.2222C40.1824 14.1607 40.4492 14.0992 40.6954 14.0582C40.3671 14.4272 39.9977 14.7553 39.6283 15.0833L39.4642 15.0013C38.9922 14.7758 38.5407 14.4477 38.0072 14.4272C37.9867 14.3452 37.9251 14.1812 37.9046 14.1197C37.6173 14.0992 37.3095 14.0582 37.0427 13.9556C37.1248 13.7711 37.2684 13.3816 37.3505 13.1765C37.1863 13.2585 36.858 13.4021 36.6938 13.4841C37.1248 12.7665 37.5557 12.0283 37.9867 11.2902C38.0277 11.2287 38.0687 11.1262 38.1098 11.0852C38.7049 9.97802 39.5668 9.07588 40.1824 7.96871C40.3876 7.66116 40.3671 7.2716 40.3465 6.92305Z" fill="#B89844"/>
<path d="M40.3466 6.92285C40.3671 7.29191 40.3877 7.66097 40.1825 7.96851C39.5874 9.05518 38.705 9.97783 38.1099 11.085C38.1099 10.1624 38.2125 9.21921 38.8281 8.48109C39.4642 8.11204 39.9773 7.55845 40.3466 6.92285Z" fill="#CBA94C"/>
<path d="M35.8733 11.1056C37.0841 10.4905 37.6997 9.17831 38.8283 8.4812C38.2127 9.21932 38.0896 10.1625 38.1101 11.0851C38.0896 11.1466 38.028 11.2491 37.987 11.2901C38.0075 10.9416 37.9665 10.593 37.9254 10.224C37.3508 11.4132 36.7147 12.5613 35.8528 13.566C35.3603 13.4225 34.8268 13.3815 34.3138 13.3815C34.601 12.8279 34.9704 12.3358 35.3603 11.8642C33.3493 11.3927 31.2767 11.8437 29.2451 11.6592C30.6611 11.2491 32.118 11.1876 33.575 11.0236C34.3548 10.9416 35.1141 11.3516 35.8733 11.1056Z" fill="#AC8132"/>
<path d="M42.3372 9.19873C43.0554 9.91634 43.7942 10.8185 43.6711 11.9052C43.5274 13.1353 43.2812 14.3655 42.7681 15.4727C42.3988 15.7803 42.0089 16.0673 41.6395 16.3543C41.4548 16.2313 41.2701 16.0878 41.0854 15.9648L41.0033 15.9033C41.5985 14.6526 42.5424 13.4634 42.604 12.0282C41.4958 12.0692 40.3672 12.2537 39.3001 12.6023C38.8692 12.7048 38.6435 13.1148 38.3972 13.4634C38.2946 13.4019 38.1099 13.2584 38.0278 13.1969C38.0894 12.4177 38.9718 12.0897 39.4027 11.5156C40.0594 10.716 41.0444 10.3879 41.9268 9.93685C42.2346 9.81383 42.3167 9.48578 42.3372 9.19873Z" fill="#927238"/>
<path d="M37.9251 10.2444C37.9662 10.5929 38.0072 10.9415 37.9867 11.3106C37.5558 12.0487 37.1248 12.7663 36.6939 13.5044C36.858 13.4224 37.1864 13.2789 37.3505 13.1968C37.2685 13.3814 37.1248 13.7709 37.0427 13.976C36.6528 13.8529 36.2629 13.7094 35.873 13.6069C36.7144 12.5818 37.3505 11.4131 37.9251 10.2444Z" fill="#8C6228"/>
<path d="M22.9657 11.2082C23.5814 10.5726 24.5048 10.7161 25.2435 10.9621C26.5569 11.2287 27.9112 11.4337 29.2451 11.6593C31.2767 11.8438 33.3493 11.3927 35.3603 11.8643C34.9704 12.3359 34.601 12.8484 34.3137 13.3815C31.0304 13.3815 27.7266 13.402 24.4432 13.3815C24.2996 12.91 24.2791 12.3359 23.8481 12.0283C23.4172 11.7208 22.8426 11.7208 22.3296 11.6798C22.5553 11.5362 22.7605 11.3722 22.9657 11.2082Z" fill="#D2A83E"/>
<path d="M20.0312 13.3814C20.7084 12.7048 21.4267 12.0282 22.3296 11.6592C22.8426 11.7207 23.4172 11.7002 23.8481 12.0077C24.2791 12.3153 24.2996 12.9099 24.4432 13.3609C22.9657 13.3814 21.5087 13.3814 20.0312 13.3814Z" fill="#DCBA5A"/>
<path d="M39.2796 12.6024C40.3467 12.2539 41.4548 12.0693 42.5834 12.0283C42.5219 13.4635 41.5779 14.6527 40.9828 15.9034C40.5519 15.5959 40.1004 15.3293 39.6284 15.0628C40.0183 14.7552 40.3672 14.4067 40.6955 14.0376C40.4288 14.0991 40.162 14.1401 39.9157 14.2017C40.0183 13.9556 40.1004 13.7301 40.203 13.484C39.5874 13.7096 38.8692 13.7506 38.3972 14.2427C38.2741 14.1196 38.1715 14.0171 38.0483 13.8941C38.1304 13.7711 38.3151 13.5456 38.3972 13.443C38.6229 13.115 38.8487 12.7049 39.2796 12.6024Z" fill="#543E26"/>
<path d="M14.5724 13.4019C15.9063 13.3814 17.2606 13.4019 18.5945 13.4019H24.4224C27.7057 13.4224 31.0096 13.4019 34.2929 13.4019C34.8059 13.4019 35.3395 13.4429 35.832 13.5865C36.2219 13.689 36.6118 13.812 37.0016 13.9555C37.2889 14.058 37.5762 14.099 37.8635 14.1195C37.884 14.2016 37.9456 14.3656 37.9661 14.4271C38.4997 14.4476 38.9511 14.7551 39.4231 15.0012C39.1153 15.7803 38.4997 16.3544 37.9251 16.949C38.4176 17.236 38.9306 17.5231 39.3821 17.8716C39.9566 17.277 40.5107 16.6209 41.0443 15.9853C41.2289 16.1084 41.4136 16.2519 41.5983 16.3749C41.9882 16.6619 42.3576 16.9695 42.727 17.2975C45.8872 20.127 47.4878 24.3096 47.7751 28.4513C47.8161 29.0049 47.8161 29.538 47.8366 30.0915C47.8161 32.2444 47.6314 34.4177 47.0568 36.509C46.6669 37.9648 46.1129 39.3795 45.3536 40.6712C44.8201 41.4913 44.2455 42.2909 43.5478 42.9881C43.0963 43.4596 42.6243 43.9107 42.1113 44.3003C41.8856 44.1772 41.6394 44.0542 41.4136 43.9312C41.0237 44.1567 40.6544 44.5053 40.1619 44.5053C39.5257 44.5463 38.9101 44.8333 38.2945 44.9359C38.9101 44.0132 40.1619 43.3366 39.9566 42.0654C39.6078 42.0859 39.2589 42.1064 38.9101 42.1064C39.0332 41.6553 39.1358 41.2043 39.2384 40.7532C39.1153 40.6712 38.8896 40.5277 38.787 40.4457C39.1769 40.0151 39.5667 39.5845 39.9361 39.1335C39.1563 39.318 38.4586 39.7075 37.7199 39.9946C39.1358 37.9238 40.3876 35.7504 41.4341 33.4746C42.0292 32.0598 42.8296 30.6656 42.8501 29.1074C42.9116 28.1027 42.255 27.2416 42.2345 26.2369C42.1524 25.0888 42.1524 23.7766 41.1879 22.9564C39.5462 23.2845 37.884 22.9769 36.2424 22.7924C35.8114 22.7309 35.36 22.8129 34.9291 22.8744C34.847 22.7924 34.7649 22.6899 34.7033 22.6079C34.1903 22.0953 33.6568 21.5622 32.9591 21.3162C32.3229 21.2137 31.6662 21.2957 31.0301 21.2957L30.948 21.2752C30.2298 20.9676 29.491 20.5576 28.6907 20.7011C28.0135 20.7626 27.6236 21.3777 27.0901 21.7057C26.536 22.0543 26.0025 22.4233 25.5716 22.9359C26.1256 23.8791 27.1106 24.3917 28.1367 24.6582C28.0956 25.2733 28.0546 25.8884 27.993 26.483C27.3569 26.688 26.7823 26.9956 26.2282 27.3851C25.9409 26.77 25.7973 26.0934 25.5305 25.4578C25.2432 25.0683 24.8328 24.7812 24.4429 24.4532C24.3608 24.7197 24.2788 24.9862 24.1967 25.2528C24.012 25.3553 23.8273 25.4578 23.6221 25.5603C23.6016 25.0888 23.581 24.6377 23.499 24.1661C23.3143 23.3255 22.7192 22.6899 22.4114 21.9108C22.4524 21.1111 22.6987 20.332 22.7192 19.5324C22.3293 19.6964 21.9189 19.8399 21.529 20.0245C20.9954 20.2295 20.7287 20.8036 20.2772 21.1111C19.8257 21.3162 19.3538 21.3777 18.8818 21.5007L18.9434 21.3367C19.3538 20.9676 19.4769 20.4345 19.5795 19.922C19.3127 20.045 19.046 20.168 18.7792 20.3115C18.4509 19.8399 18.9434 19.5324 19.2306 19.2248C18.7997 18.8353 18.2251 18.5277 17.6505 18.7328C16.6655 19.0813 16.2346 20.168 16.132 21.1316C15.7216 21.1521 15.3317 21.1521 14.9213 21.1521C15.0854 20.8651 15.2291 20.5781 15.3933 20.2705C15.188 19.8399 14.7571 19.6554 14.3262 19.5119C14.3467 18.4047 14.3262 17.318 14.3262 16.2109C14.3262 15.8828 14.3467 15.5753 14.3467 15.2472C14.4083 14.6731 14.3057 13.9965 14.5724 13.4019Z" fill="#F3EBDB"/>
<path d="M39.4643 14.9807L39.6285 15.0627C40.1005 15.3088 40.5519 15.5958 40.9829 15.9034L41.065 15.9649C40.5314 16.6005 39.9979 17.2566 39.4028 17.8512C38.9513 17.5026 38.4383 17.2156 37.9458 16.9285C38.5409 16.3544 39.1565 15.7598 39.4643 14.9807Z" fill="#DCDAD7"/>
<path d="M10.9816 23.059C11.3921 20.2296 12.2539 17.2976 14.4086 15.3088C14.4086 15.6369 14.4086 15.9444 14.3881 16.2725C12.9516 17.7692 12.1308 19.758 11.7409 21.7673C11.5973 22.444 11.2895 23.0796 11.0022 23.7152C10.9816 23.5101 10.9611 23.2846 10.9816 23.059Z" fill="#A78E32"/>
<path d="M41.6191 16.375C42.0087 16.088 42.3778 15.801 42.7468 15.4934C42.8698 15.9035 42.9929 16.3135 43.1364 16.7236C43.0339 16.8671 42.8288 17.1542 42.7263 17.2977C42.3983 16.9696 42.0087 16.6621 41.6191 16.375Z" fill="#B59544"/>
<path d="M11.7407 21.7673C12.1306 19.758 12.9514 17.7692 14.3879 16.2725C14.3879 17.3796 14.4084 18.4663 14.3879 19.5735C13.7107 20.1476 13.4029 21.0907 12.541 21.4393C12.4179 22.0339 12.1921 22.6079 11.8433 23.1C11.597 23.4281 11.3098 23.7356 11.043 24.0637C11.043 23.9817 11.0225 23.8176 11.0225 23.7151C11.2892 23.0795 11.5765 22.4439 11.7407 21.7673Z" fill="#EBCC73"/>
<path d="M17.7124 18.7737C18.3075 18.5687 18.8821 18.8557 19.2925 19.2658C19.0052 19.5733 18.4922 19.8809 18.8411 20.3524C19.1078 20.2294 19.3746 20.1064 19.6414 19.9629C19.5388 20.4755 19.4156 21.0085 19.0052 21.3776C18.4717 21.2956 17.9176 21.2956 17.3841 21.3571C17.4251 21.029 17.4456 20.701 17.5277 20.3934C17.774 20.1269 18.1228 20.0039 18.4306 19.8399C18.246 19.6553 18.0818 19.4093 17.8355 19.2863C17.2404 19.4503 16.6659 19.8809 16.5632 20.537C16.5838 20.824 16.6248 21.1111 16.6659 21.3981C16.5632 21.3981 16.3786 21.3776 16.276 21.3776H16.1528L16.1939 21.1726C16.2965 20.2089 16.7274 19.1222 17.7124 18.7737Z" fill="#D7D7D5"/>
<path d="M42.1321 19.1635C42.6246 18.9994 43.1376 18.8354 43.6507 18.6919C44.0406 19.4505 43.8969 20.2706 43.507 21.0088H44.0611C44.1021 21.6444 44.0816 22.5465 43.3428 22.7515C42.9324 21.8289 41.9269 21.2958 41.6807 20.2911C41.7012 19.8811 41.968 19.5325 42.1321 19.1635Z" fill="#E6DED7"/>
<path d="M16.563 20.5166C16.6451 19.881 17.2402 19.4299 17.8353 19.2659C18.0815 19.3889 18.2252 19.6349 18.4304 19.8195C18.1226 19.9835 17.7737 20.1065 17.5275 20.373C17.4454 20.6806 17.4249 21.0086 17.3838 21.3367C17.1991 21.3572 16.8503 21.3777 16.6861 21.3777C16.6246 21.1112 16.5835 20.8036 16.563 20.5166Z" fill="#F5F2E6"/>
<path d="M21.57 20.0656C21.9599 19.881 22.3703 19.7375 22.7602 19.5735C22.7397 20.3731 22.4934 21.1522 22.4524 21.9519C22.7602 22.731 23.3553 23.3871 23.54 24.2072C23.6221 24.6583 23.6426 25.1299 23.6631 25.6014C23.8478 25.4989 24.0325 25.3964 24.2377 25.2939C24.3198 25.0273 24.4018 24.7608 24.4839 24.4943C24.8533 24.8223 25.2637 25.1094 25.5715 25.4989C25.8383 26.114 25.9819 26.8111 26.2692 27.4262C26.8028 27.0367 27.3979 26.7291 28.034 26.5241C28.0956 25.909 28.1366 25.2939 28.1777 24.6993V24.4327C27.8083 24.1252 27.2337 23.9407 27.1927 23.3871C27.1516 22.69 27.5826 22.0954 28.0751 21.6648C28.2187 21.6853 28.3418 21.7263 28.4855 21.7468C28.7523 21.7263 28.8754 21.5623 28.8754 21.2753C29.2242 21.2547 29.5936 21.2753 29.9425 21.2958C29.5731 21.7878 29.1216 22.2594 28.4855 22.3619C28.4855 22.69 28.4855 23.018 28.506 23.3666C28.4855 23.6946 28.4444 24.0432 28.4239 24.3712V24.5968C28.4239 25.3759 28.4239 26.1755 28.4444 26.9751C28.4444 30.9323 28.4239 34.8689 28.4444 38.8055C28.465 38.8875 28.506 39.031 28.5265 39.113C30.3118 38.99 32.3229 39.5436 33.8825 38.3954C36.0371 36.8372 36.9401 34.1308 37.1658 31.5884C37.412 28.5744 36.8785 25.3554 34.9906 22.9155C35.4215 22.8335 35.873 22.772 36.3039 22.8335C37.9456 23.018 39.6078 23.3461 41.2494 22.9975C42.1934 23.8176 42.1934 25.1299 42.296 26.278C42.337 27.2827 42.9732 28.1438 42.9116 29.1485C42.8911 30.7272 42.0908 32.1214 41.4957 33.5157C40.4491 35.7915 39.1973 37.9649 37.7814 40.0357C38.5202 39.7486 39.2179 39.3591 39.9977 39.1745C39.6283 39.6256 39.2384 40.0562 38.8485 40.4868C38.9716 40.5688 39.1973 40.7123 39.2999 40.7943C39.1973 41.2454 39.0742 41.6964 38.9716 42.1475C39.3205 42.127 39.6693 42.1065 40.0182 42.1065C40.2234 43.3777 38.9716 44.0748 38.356 44.977C38.9921 44.8744 39.5872 44.5874 40.2234 44.5464C40.6954 44.5464 41.0647 44.1773 41.4751 43.9723C41.7009 44.0953 41.9471 44.2183 42.1729 44.3414C39.6898 46.2276 36.5707 47.2323 33.4515 47.1708C30.7428 47.1708 28.034 47.1913 25.3253 47.1503H18.4508C17.3016 47.1503 16.1525 47.1913 15.0033 47.1503C14.5929 47.1913 14.4287 46.7402 14.4287 46.4122C14.3672 45.4895 14.4287 44.5874 14.4082 43.6647C14.4082 42.6191 14.4287 41.5734 14.3877 40.5483C14.3877 40.0972 14.4493 39.6461 14.5519 39.2156C16.0088 39.072 17.4658 39.2566 18.9023 39.154V36.5296C18.9844 36.8577 19.1075 37.1857 19.2101 37.5138C19.8873 37.3908 20.6671 37.2062 21.1801 37.8213C22.3908 36.7552 24.1761 36.7962 25.6126 36.2016C25.9204 35.3815 26.6591 34.7254 26.5565 33.7822C26.495 33.7617 26.3718 33.7412 26.3308 33.7207C24.8123 33.2491 23.3963 34.2128 21.9188 34.3358C20.9338 34.2333 19.9899 33.7617 19.3537 33.0031C19.4153 32.7775 19.4769 32.5725 19.5179 32.347C19.3742 32.224 19.2306 32.1009 19.087 31.9779C19.0664 31.5474 19.0664 31.0963 19.087 30.6657C19.2306 30.1531 19.5589 29.7431 20.0309 29.5175C20.1746 28.7384 20.3182 27.9593 20.4413 27.1802C20.0309 26.6676 19.4974 26.319 18.8818 26.0935V24.4738C18.9023 23.5716 18.8818 22.6695 18.8818 21.7878C18.8818 21.7468 18.9023 21.6238 18.9023 21.5828C19.3742 21.4598 19.8462 21.3778 20.2977 21.1932C20.7902 20.8242 21.0364 20.2706 21.57 20.0656Z" fill="#F8F3E4"/>
<path d="M12.5205 21.4393C13.3824 21.0907 13.6902 20.1476 14.3674 19.5735C14.3674 20.0861 14.3879 20.5986 14.4084 21.1317C14.5521 21.1522 14.8393 21.1932 14.983 21.2137C15.3934 21.2137 15.7833 21.1932 16.1937 21.1932L16.1527 21.3983C15.5986 21.3983 15.0446 21.3778 14.4905 21.3778C14.4289 21.6853 14.3674 21.9929 14.3674 22.3209C13.3003 22.731 12.6436 23.7356 11.7612 24.4122C11.7612 23.9817 11.7818 23.5511 11.8228 23.141C12.1716 22.608 12.4179 22.0339 12.5205 21.4393Z" fill="#F4EFC8"/>
<path d="M14.3877 19.5735C14.8183 19.717 15.2693 19.881 15.4539 20.3321C15.2898 20.6191 15.1463 20.9062 14.9823 21.2137C14.8388 21.1932 14.5517 21.1522 14.4082 21.1317C14.3877 20.5986 14.3877 20.0861 14.3877 19.5735Z" fill="#FCFCF4"/>
<path d="M27.1108 21.7468C27.6444 21.4188 28.0343 20.8037 28.7114 20.7422C29.5118 20.5987 30.2505 21.0087 30.9687 21.3163C30.6199 21.3163 30.271 21.3163 29.9222 21.2958C29.5733 21.2753 29.2039 21.2548 28.8551 21.2753C28.5678 21.2958 28.4447 21.4393 28.4652 21.7468C28.3216 21.7263 28.1779 21.6853 28.0548 21.6648C27.5623 22.1159 27.1313 22.7105 27.1724 23.3871C27.2134 23.9202 27.788 24.1252 28.1574 24.4328V24.6993C27.1313 24.4328 26.1463 23.9202 25.5923 22.977C26.0232 22.4644 26.5568 22.0954 27.1108 21.7468Z" fill="#D7D7D5"/>
<path d="M14.4908 21.3572C15.0449 21.3572 15.5989 21.3777 16.153 21.3777H16.2761C16.5018 21.8082 16.7891 22.1978 17.2406 22.4438C17.3637 22.5464 17.5074 22.6489 17.6305 22.7719C17.1995 23.428 16.5634 23.9611 16.2556 24.6992C15.9478 24.8222 15.64 24.9657 15.3322 25.0683C15.2706 25.0273 15.1269 24.9452 15.0654 24.9042C15.1269 24.8017 15.2501 24.5762 15.3116 24.4737C15.0859 24.4122 14.8397 24.3711 14.6139 24.3096C14.4908 23.6535 14.4087 22.9769 14.3677 22.3003C14.3882 21.9723 14.4292 21.6647 14.4908 21.3572Z" fill="#E5C66B"/>
<path d="M16.2759 21.3777C16.3785 21.3777 16.5632 21.3982 16.6658 21.3982C16.6247 22.2183 17.5687 22.1363 18.1228 22.0338C17.8765 21.7878 17.6303 21.5622 17.3635 21.3367C17.897 21.2752 18.4511 21.2957 18.9846 21.3572L18.9231 21.5212C18.9231 21.5622 18.9025 21.6648 18.9025 21.7263C18.2869 21.8493 17.8765 22.5054 17.2198 22.4234C16.8094 22.1978 16.5016 21.8083 16.2759 21.3777Z" fill="#242110"/>
<path d="M16.6658 21.3982C16.8504 21.3777 17.1989 21.3572 17.363 21.3572C17.609 21.5827 17.8755 21.8082 18.1216 22.0543C17.568 22.1158 16.6248 22.2183 16.6658 21.3982Z" fill="#938357"/>
<path d="M28.4654 21.7467C28.4244 21.4392 28.5679 21.2956 28.8549 21.2751C28.8755 21.5622 28.7319 21.7262 28.4654 21.7467Z" fill="#CDBD83"/>
<path d="M29.9223 21.2957C30.2712 21.3162 30.62 21.2957 30.9689 21.3162L31.051 21.3367C31.5024 21.6237 31.9539 21.9518 32.3438 22.3413C31.9128 23.264 31.1331 24.0431 30.1891 24.4326C29.6145 24.5967 28.9989 24.5557 28.4243 24.5762V24.3506C28.8758 24.3506 29.3067 24.3301 29.7582 24.3096C29.2657 24.0841 28.7937 23.8175 28.5064 23.346C28.4859 23.0179 28.4859 22.6899 28.4859 22.3413C29.1015 22.2388 29.5735 21.7877 29.9223 21.2957Z" fill="#252211"/>
<path d="M31.0715 21.3367C31.7076 21.3367 32.3643 21.2547 33.0005 21.3572C33.6982 21.6033 34.2317 22.1363 34.7447 22.6489C34.0881 23.3255 33.6571 24.1662 33.1031 24.9248C32.549 25.6834 31.5435 25.8269 30.7637 26.2575C30.0455 26.6471 29.2657 26.9136 28.4448 26.9751C28.4448 26.1755 28.4448 25.3964 28.4243 24.5967C29.0194 24.5762 29.6145 24.6172 30.1891 24.4532C31.1331 24.0636 31.9129 23.2845 32.3438 22.3619C31.9744 21.9313 31.523 21.6238 31.0715 21.3367Z" fill="#D2B257"/>
<path d="M17.2404 22.4439C17.897 22.5054 18.3075 21.8698 18.9231 21.7468C18.9231 22.649 18.9436 23.5511 18.9231 24.4327C18.4306 24.5558 17.9176 24.8223 17.4045 24.6173C17.0146 24.4738 16.6247 24.5148 16.2554 24.6788C16.5632 23.9407 17.1993 23.4281 17.6303 22.7515C17.5071 22.6695 17.3635 22.5465 17.2404 22.4439Z" fill="#E6BD62"/>
<path d="M30.004 21.8083C29.6554 22.4234 30.6601 21.8699 30.004 21.8083V21.8083Z" fill="#696148"/>
<path d="M11.7611 24.3916C12.6435 23.6945 13.2797 22.7104 14.3673 22.3003C14.4083 22.9769 14.4904 23.6535 14.6135 24.3096C14.8393 24.3711 15.0855 24.4121 15.3112 24.4736C15.2497 24.5761 15.1266 24.8017 15.065 24.9042C14.3673 25.4373 13.4644 25.8268 13.1155 26.688C12.7256 27.7541 12.7667 28.9023 12.623 30.0095C12.3768 29.7635 11.9869 29.5584 12.0074 29.1484C11.9458 28.3077 12.1716 27.5081 12.2331 26.6675C11.8432 27.2211 11.6175 27.8567 11.3918 28.4923C11.2892 28.8818 10.8172 28.9843 10.5094 29.1689C10.2016 29.2919 9.89375 29.3944 9.58594 29.5174C9.62698 29.1689 9.66802 28.8408 9.72958 28.4923C10.0579 28.4513 10.3657 28.4308 10.6941 28.3897C10.3452 28.4102 9.99635 28.4308 9.6475 28.4513C9.89375 26.9545 10.0579 25.3143 11.0019 24.0636C11.2686 23.756 11.5559 23.428 11.8022 23.0999C11.7817 23.5305 11.7817 23.9611 11.7611 24.3916Z" fill="#F4ECB4"/>
<path d="M30.2095 22.5873C30.271 23.2434 30.8246 22.2798 30.2095 22.5873V22.5873Z" fill="#71694F"/>
<path d="M34.7446 22.6284C34.8266 22.7104 34.9087 22.7924 34.9703 22.895C36.8582 25.3348 37.3917 28.5538 37.1455 31.5678C36.8172 31.7523 36.4888 31.9164 36.2015 32.1214C35.6885 32.47 35.4012 33.0851 34.8677 33.4336C33.9442 33.8847 32.7951 33.7822 31.9948 34.4588C31.5228 34.9918 31.215 35.6274 30.6814 36.0785C30.9687 36.3656 31.2765 36.6526 31.5433 36.9602C31.687 37.2062 31.6254 37.5137 31.769 37.7598C32.0358 37.9648 32.3231 38.1288 32.6104 38.3134C31.8716 38.4159 31.1329 38.3954 30.3736 38.2929C29.6759 38.1698 29.0603 38.5594 28.4447 38.7849C28.4241 34.8483 28.4447 30.8912 28.4447 26.9546C29.2655 26.8931 30.0453 26.6265 30.7635 26.237C31.5433 25.8064 32.5488 25.6834 33.1029 24.9043C33.6569 24.1457 34.0879 23.305 34.7446 22.6284Z" fill="#DFCD88"/>
<path d="M28.5063 23.3459C28.7934 23.797 29.2649 24.0841 29.757 24.3096C29.306 24.3301 28.8754 24.3506 28.4243 24.3506C28.4448 24.0226 28.4858 23.674 28.5063 23.3459Z" fill="#DFCD88"/>
<path d="M16.2555 24.6992C16.6248 24.5351 17.0147 24.4941 17.4046 24.6377C17.9176 24.8222 18.4307 24.5761 18.9232 24.4531V26.0114C17.9382 25.6628 16.9326 25.3963 15.8861 25.4578C15.7014 25.3348 15.5372 25.2117 15.3525 25.0887C15.6398 24.9452 15.9476 24.8222 16.2555 24.6992Z" fill="#DFC57C"/>
<path d="M13.1363 26.6676C13.4852 25.8064 14.3881 25.4169 15.0858 24.8838C15.1474 24.9248 15.291 25.0068 15.3526 25.0478C15.5373 25.1708 15.7014 25.2939 15.8861 25.4169C14.9422 25.4579 14.0187 26.0525 13.9161 27.0366C13.752 28.2873 13.321 29.497 13.1979 30.7477C13.0748 31.6498 13.9161 32.2444 14.1624 33.0236C14.2445 33.4541 14.265 33.8847 14.3881 34.3153C14.265 34.8688 14.1624 35.4224 14.0598 35.976C13.8751 35.976 13.6904 35.976 13.5057 35.9965C13.321 36.4476 13.0748 36.8782 12.9311 37.3497C13.0953 38.2519 13.3826 39.1335 13.6083 40.0152C13.5673 40.1177 13.4852 40.3227 13.4442 40.4252C12.9927 39.9331 12.7464 39.2565 12.1513 38.9285C12.0077 38.6824 11.8435 38.4159 11.6794 38.1699C10.7765 36.6321 10.1403 34.9099 9.87354 33.1261C9.95562 32.6135 10.0582 32.0804 10.1403 31.5678C10.5097 32.3264 10.4686 33.2286 10.9817 33.9052C11.3305 33.8232 11.6588 33.7207 12.0077 33.6797L12.1719 33.8847C12.5412 33.3516 12.8696 32.798 12.9311 32.1419C12.6849 32.47 12.4797 32.798 12.2745 33.1466C11.9872 32.6955 11.6383 32.2649 11.4742 31.7524C11.3921 31.1578 11.4126 30.5632 11.351 29.9686C11.1253 30.0096 10.9201 30.0506 10.7149 30.0916L10.8791 29.9276C11.0637 29.7225 11.2484 29.497 11.4331 29.2715C11.1869 29.2305 10.9201 29.1895 10.6738 29.1895H10.5097C10.8175 28.9844 11.2895 28.9024 11.3921 28.5129C11.6178 27.8773 11.8435 27.2417 12.2334 26.6881C12.1924 27.5082 11.9667 28.3283 12.0077 29.169C11.9872 29.579 12.3566 29.7841 12.6233 30.0301C12.7875 28.8819 12.7464 27.7337 13.1363 26.6676Z" fill="#F3E19D"/>
<path d="M13.8953 27.0571C13.9979 26.0729 14.9214 25.4783 15.8653 25.4373C16.9119 25.3758 17.9379 25.6424 18.9024 25.9909V28.9639C18.5946 29.2714 18.3073 29.579 17.9995 29.8865C17.507 30.3171 16.8503 30.4811 16.2347 30.6451C16.2142 30.7887 16.1526 31.0347 16.1116 31.1782C16.0705 31.3217 16.009 31.6293 15.9884 31.7728C15.106 30.9527 14.593 29.866 14.0184 28.8409C13.7106 28.3078 13.8338 27.6517 13.8953 27.0571Z" fill="#252211"/>
<path d="M18.9231 26.0525C19.5382 26.278 20.0713 26.6266 20.4813 27.1392C20.3378 27.9183 20.2148 28.6974 20.0713 29.4765C19.5997 29.7226 19.2511 30.1121 19.1281 30.6247C19.1691 30.0096 19.0666 29.3945 18.9436 28.7999C18.9026 27.8978 18.9231 26.9751 18.9231 26.0525Z" fill="#DFDDD9"/>
<path d="M4.94824 26.319C5.60491 26.237 6.26157 26.2985 6.91824 26.278L6.63095 26.6471C7.65699 26.5651 8.68303 26.6471 9.66803 26.9341C8.76511 26.7496 7.8622 26.6061 6.93876 26.6881C6.58991 26.7291 6.30261 26.5651 6.01532 26.401C5.68699 26.36 5.17397 26.7086 4.94824 26.319Z" fill="#D6D6D5"/>
<path d="M13.1773 30.7682C13.3004 29.5175 13.7313 28.3078 13.8955 27.0571C13.8339 27.6517 13.7108 28.3078 14.0186 28.8614C14.6137 29.8866 15.1267 30.9732 15.9886 31.7934C16.0297 31.6498 16.0912 31.3423 16.1117 31.1988C16.4401 31.2193 16.7479 31.2398 17.0762 31.2603C17.5277 31.6293 18.0202 31.9574 18.4101 32.388C18.841 31.5883 18.2459 30.8092 18.3075 29.9891C18.2254 29.9686 18.0612 29.9276 17.9791 29.9276C18.2664 29.62 18.5742 29.292 18.8821 29.0049V33.1876C17.302 32.6955 15.6192 32.1214 13.9571 32.6545C15.4961 33.3516 17.2404 33.4131 18.8821 33.8437V35.2379C18.1228 35.566 17.4456 36.0375 16.7069 36.4271C15.9476 35.9145 15.3935 35.1559 14.6343 34.6433C14.5522 34.5818 14.4085 34.4383 14.347 34.3768C14.2444 33.9462 14.2033 33.5156 14.1212 33.0851C13.8955 32.2444 13.0541 31.6704 13.1773 30.7682Z" fill="#6E6342"/>
<path d="M6.91846 29.3328C7.69825 28.9023 8.60116 28.6972 9.46304 28.5332C9.38095 28.7382 9.21679 28.8407 9.01158 28.9023C8.31387 29.0868 7.63668 29.3328 6.91846 29.3328Z" fill="#BFA64C"/>
<path d="M47.7959 28.4514C48.2063 29.5176 48.1858 30.7068 48.5962 31.7729C49.0271 33.2902 49.8685 34.7664 49.7249 36.4067C49.5196 36.0581 49.3144 35.7096 49.335 35.2995C49.335 34.4178 48.863 33.6592 48.6578 32.8186C48.4115 31.896 48.1448 30.9938 47.8575 30.0917C47.8575 29.5381 47.8369 29.005 47.7959 28.4514Z" fill="#988430"/>
<path d="M18.9229 28.7998C19.046 29.3944 19.1486 30.0095 19.1076 30.6246C19.087 31.0552 19.087 31.5062 19.1076 31.9368C19.2512 32.0598 19.3948 32.1828 19.5385 32.3059C19.4769 32.5314 19.4154 32.7364 19.3743 32.962C19.2922 33.2695 19.2922 33.6181 19.2922 33.9461C21.529 34.7252 24.3198 35.2788 26.3514 33.6796C26.413 33.7001 26.5361 33.7206 26.5771 33.7411C26.6797 34.6842 25.941 35.3403 25.6332 36.1605C24.1967 36.755 22.4114 36.6935 21.2007 37.7802C20.6877 37.1651 19.9284 37.3496 19.2307 37.4727C19.1281 37.1446 19.0049 36.8166 18.9229 36.4885C18.9023 36.0579 18.9023 35.6479 18.9023 35.2173V28.9843L18.9229 28.7998Z" fill="#E7E3DB"/>
<path d="M10.6941 29.1689C10.9403 29.1894 11.2071 29.2305 11.4533 29.251C11.2686 29.4765 11.084 29.6815 10.8993 29.9071C10.4683 30.1326 10.0579 30.3376 9.62698 30.5427C9.62698 30.3171 9.60646 29.8866 9.58594 29.6815C9.95531 29.497 10.3247 29.333 10.6941 29.1689Z" fill="#F5EDB6"/>
<path d="M10.7351 30.071C10.9403 30.03 11.166 29.989 11.3712 29.948C11.4122 30.5426 11.3917 31.1372 11.4943 31.7318C11.6585 32.2444 12.0074 32.6749 12.2946 33.126C12.192 33.3105 12.11 33.4746 12.0074 33.6591C11.6585 33.7206 11.3096 33.8026 10.9813 33.8846C10.4683 33.208 10.5093 32.2854 10.14 31.5472C10.0579 32.0598 9.95527 32.5929 9.87319 33.1055C9.77059 32.3264 9.64746 31.5472 9.64746 30.7476C9.91423 30.4401 10.3862 30.3171 10.7351 30.071Z" fill="#F4ECB4"/>
<path d="M16.2554 30.6656C16.8711 30.5016 17.5277 30.3375 18.0202 29.907C18.1023 29.9275 18.2665 29.9685 18.3486 29.9685C18.2665 30.7886 18.8616 31.5677 18.4512 32.3674C18.0613 31.9368 17.5688 31.6087 17.1173 31.2397C16.789 31.2192 16.4812 31.1987 16.1528 31.1782C16.1734 31.0552 16.2349 30.7886 16.2554 30.6656Z" fill="#39331F"/>
<path d="M47.8572 30.0916C48.1239 30.9937 48.3907 31.9163 48.6575 32.8185C48.8627 33.6386 49.3347 34.4177 49.3347 35.2994C49.3142 35.7094 49.5194 36.0785 49.7246 36.4065C49.5604 37.5752 50.176 38.6414 50.1145 39.7896C50.0939 40.2201 50.0529 40.6302 50.0324 41.0608C49.8682 40.7942 49.7041 40.5482 49.4988 40.3227C49.2731 41.0198 49.4168 41.8604 48.8627 42.414C48.6164 42.0654 48.4933 41.4913 48.0008 41.4298C47.2826 41.3068 46.5849 41.6759 46.1129 42.1884C45.4768 42.865 44.4712 42.9061 43.6094 42.9881C44.3071 42.291 44.8611 41.4913 45.4152 40.6712C45.8872 40.8147 46.2155 40.4047 46.5644 40.1586C46.9132 39.8511 47.3647 39.7691 47.7751 39.5435C48.1034 39.0104 48.3497 38.4364 48.4933 37.8213C48.3907 37.4317 48.1855 37.0421 48.1034 36.6526C47.8982 36.6936 47.693 36.7551 47.4878 36.7961C47.4057 36.7141 47.221 36.5911 47.1184 36.5091C47.652 34.4177 47.8572 32.2444 47.8572 30.0916Z" fill="#CCA847"/>
<path d="M8.72367 30.9731C9.03122 30.8296 9.03122 31.2397 8.78518 31.3012C8.55964 31.4037 8.3136 31.6497 8.04706 31.5267C8.02656 31.2192 8.47763 31.0962 8.72367 30.9731Z" fill="#C1A956"/>
<path d="M36.1812 32.1009C36.489 31.8959 36.8173 31.7319 37.1251 31.5474C36.8994 34.0898 36.017 36.8167 33.8418 38.3544C32.3028 39.5231 30.2712 38.949 28.4859 39.072C28.4654 38.99 28.4243 38.8465 28.4038 38.7645C29.0194 38.5185 29.6556 38.1289 30.3328 38.2724C31.0715 38.3749 31.8308 38.3954 32.5695 38.2929C32.2822 38.1084 31.9949 37.9649 31.7282 37.7393C31.5845 37.4933 31.6461 37.1857 31.5024 36.9397C31.2357 36.6322 30.9279 36.3451 30.6406 36.0581C31.1741 35.607 31.5024 34.9509 31.9539 34.4383C32.7747 33.7617 33.9239 33.8847 34.8268 33.4132C35.3809 33.0646 35.6682 32.47 36.1812 32.1009Z" fill="#ECD592"/>
<path d="M12.2944 33.126C12.4994 32.7774 12.7044 32.4494 12.9505 32.1213C12.889 32.7774 12.5404 33.331 12.1919 33.8641L12.0278 33.6591C12.1098 33.4745 12.1919 33.3105 12.2944 33.126Z" fill="#D7C27C"/>
<path d="M13.998 32.6339C15.6602 32.1009 17.3429 32.6749 18.923 33.167V33.8231C17.2814 33.3926 15.5371 33.331 13.998 32.6339Z" fill="#242110"/>
<path d="M19.2925 33.9461C19.2925 33.618 19.2925 33.29 19.3746 32.9619C20.0107 33.7205 20.9547 34.1921 21.9397 34.2946C23.4172 34.1716 24.8331 33.208 26.3516 33.6795C24.3201 35.2788 21.5292 34.7252 19.2925 33.9461Z" fill="#D6D6D5"/>
<path d="M14.3676 34.3357C14.4497 34.3972 14.5933 34.5407 14.6549 34.6022C14.737 35.6069 15.3321 36.427 15.8041 37.2882C16.1734 37.9853 16.8301 38.4978 17.4868 38.9489C17.9587 39.0719 18.4307 39.0514 18.9232 39.0924C17.4662 39.195 16.0093 39.0104 14.5728 39.1539C14.4702 39.5845 14.3881 40.0356 14.4086 40.4867C14.1419 40.3226 13.8956 40.1586 13.6288 40.0151C13.4236 39.1129 13.1158 38.2518 12.9517 37.3497C13.0953 36.8781 13.321 36.4475 13.5262 35.9965C13.7109 35.9965 13.8956 35.9759 14.0803 35.9759C14.1419 35.4224 14.2445 34.8688 14.3676 34.3357Z" fill="#EED88B"/>
<path d="M14.6548 34.6023C15.4141 35.1149 15.9681 35.8735 16.7274 36.3861C16.9326 36.5706 17.1378 36.7756 17.343 36.9807C17.7945 37.3292 18.369 37.4522 18.9026 37.5958V39.072C18.4306 39.031 17.9381 39.0515 17.4661 38.9285C16.8095 38.4979 16.1733 37.9853 15.7834 37.2677C15.332 36.4271 14.7369 35.607 14.6548 34.6023Z" fill="#DFC677"/>
<path d="M16.748 36.386C17.4868 35.9964 18.164 35.5453 18.9233 35.1968C18.9233 35.6273 18.9233 36.0374 18.9438 36.468C18.3897 36.55 17.7536 36.509 17.3842 36.9806C17.1585 36.7755 16.9533 36.5705 16.748 36.386Z" fill="#927D49"/>
<path d="M17.3633 36.9806C17.7528 36.509 18.3884 36.55 18.9215 36.468V37.6162C18.3679 37.4522 17.7938 37.3497 17.3633 36.9806Z" fill="#C4A859"/>
<path d="M47.0982 36.509C47.1803 36.591 47.365 36.7141 47.4676 36.7961C47.6728 36.7551 47.878 36.6936 48.0832 36.6526C48.1653 37.0626 48.3705 37.4317 48.4731 37.8212C48.3295 38.4363 48.0832 39.0104 47.7549 39.5435C47.365 39.769 46.893 39.8716 46.5442 40.1586C46.1953 40.3841 45.867 40.8147 45.395 40.6712C46.1338 39.359 46.7084 37.9648 47.0982 36.509Z" fill="#C0993A"/>
<path d="M11.6792 38.1699C11.8228 38.416 11.987 38.662 12.1512 38.9285C12.5821 40.6098 13.1772 42.3731 14.4085 43.6238C14.429 44.5464 14.3674 45.4486 14.429 46.3712C14.429 46.6993 14.5931 47.1503 15.0036 47.1093C16.1527 47.1503 17.3019 47.1093 18.451 47.1093C17.9996 47.7039 18.3279 48.401 18.3484 49.0571C18.369 49.8362 18.7794 50.5128 18.882 51.2715C18.5537 52.0916 18.0201 52.7887 17.5892 53.5678C17.1582 53.6293 16.7068 53.4653 16.2964 53.5883C16.0501 53.9164 15.9065 54.4085 15.455 54.4905C13.2388 53.1168 11.1662 51.5175 9.38086 49.6312C10.1606 48.032 10.8378 46.3097 10.6737 44.5054C10.5505 43.7673 11.1251 43.1727 11.2277 42.4551C11.2072 42.045 10.8994 41.717 10.7147 41.3684C11.4124 40.4253 11.6381 39.2976 11.6792 38.1699Z" fill="#E5CB7A"/>
<path d="M12.1514 38.9285C12.7465 39.2565 12.9927 39.9536 13.4442 40.4252C13.4852 40.3227 13.5673 40.1177 13.6083 40.0151C13.8751 40.1792 14.1214 40.3432 14.3881 40.4867C14.4087 41.5324 14.4087 42.578 14.4087 43.6032C13.1774 42.3525 12.5823 40.5892 12.1514 38.9285Z" fill="#D2B159"/>
<path d="M49.4992 40.3228C49.6839 40.5483 49.8686 40.7943 50.0327 41.0609C50.1353 42.2706 50.4021 43.4802 50.4226 44.7104C50.4431 46.3712 50.4842 48.032 50.5663 49.6722C48.7194 51.62 46.5852 53.3013 44.2459 54.634C43.3635 53.9984 42.3374 54.4905 41.5371 55.003C41.6808 54.716 41.9065 54.47 42.1527 54.2649C42.6452 53.8549 42.8504 53.1988 43.3635 52.7887C43.897 52.3171 44.6152 52.0301 45.0256 51.4355C45.4566 50.5128 46.38 50.0208 46.9341 49.2006C47.4471 48.4625 48.309 47.7654 48.2269 46.7608C48.1858 45.8996 48.3705 45.059 48.4731 44.2184C48.4937 43.6033 48.5963 42.9677 48.863 42.4141C49.4376 41.8605 49.2734 41.0199 49.4992 40.3228Z" fill="#BA9040"/>
<path d="M46.0927 42.1884C46.5852 41.6758 47.2624 41.3273 47.9806 41.4298C48.4936 41.4708 48.5962 42.0654 48.8425 42.4139C48.5757 42.9675 48.4936 43.6031 48.4526 44.2182C48.35 45.0589 48.1858 45.8995 48.2063 46.7606C48.2884 47.7653 47.4265 48.4419 46.9135 49.2005C46.3594 50.0206 45.436 50.5127 45.0051 51.4353C44.7178 51.4353 44.41 51.4353 44.1227 51.4558C44.8614 50.3077 45.3334 49.016 45.9285 47.8063C46.0722 47.6013 46.0106 47.3757 45.9285 47.1707C45.7849 46.8221 45.9696 46.4531 45.949 46.084C45.8875 45.715 45.7233 45.3664 45.6002 45.0178C44.964 44.8948 44.3279 44.7308 43.6712 44.7718C42.8709 44.9153 42.2963 45.5919 41.5781 45.92C41.2292 46.0635 40.8394 46.1045 40.511 46.3095C39.8749 46.8631 39.7107 47.8063 38.972 48.2574C38.2332 48.7494 37.5971 49.3645 36.9199 49.9181C36.5095 50.2872 35.9349 50.0206 35.4424 50.1026C35.0114 50.3282 34.7242 50.7177 34.3137 50.9638C33.8007 51.1483 33.1646 51.0663 32.7336 51.4558C32.0154 52.0709 30.9689 51.8864 30.2301 52.44C29.3887 52.8706 28.9989 53.8342 28.178 54.3058C27.5624 54.6749 27.0904 55.2079 26.5979 55.7205C26.4748 55.5565 26.3312 55.3925 26.208 55.2489C25.5308 55.6385 24.9768 56.2741 24.1765 56.4381C23.8892 56.1101 23.6224 55.7 23.1299 55.6795C23.212 55.5155 23.2941 55.3515 23.3556 55.1874C23.1915 54.9619 22.9863 54.7569 22.699 54.7979C21.9602 54.7159 21.201 54.8594 20.4622 54.8184C19.9492 54.5518 19.5182 54.1418 19.231 53.6497C19.8055 52.9731 20.0723 52.112 20.5443 51.3738C20.8316 50.9843 21.283 51.2918 21.6319 51.3738C21.7755 51.0253 21.9397 50.6972 22.0833 50.3487C22.2886 50.3692 22.4938 50.3897 22.6784 50.4307C23.1709 50.0001 23.4377 49.4055 23.6429 48.7904C23.9713 48.6879 24.2996 48.6059 24.6074 48.5034C24.6074 47.9703 24.8537 47.4987 25.2435 47.1502C27.9523 47.1707 30.661 47.1502 33.3698 47.1707C36.4889 47.2322 39.6081 46.2275 42.0911 44.3412C42.6041 43.9517 43.0761 43.5006 43.5276 43.029C44.451 42.906 45.4565 42.865 46.0927 42.1884Z" fill="#D8C173"/>
<path d="M41.6192 45.8995C42.3375 45.5714 42.912 44.9153 43.7124 44.7513C44.369 44.7103 45.0052 44.8743 45.6413 44.9973C45.7644 45.3459 45.9286 45.6944 45.9902 46.0635C46.0107 46.4326 45.826 46.7811 45.9696 47.1502C46.0312 47.3552 46.0928 47.5807 45.9696 47.7858C45.3745 49.016 44.9026 50.2872 44.1638 51.4353C44.4511 51.4353 44.7589 51.4353 45.0462 51.4148C44.6153 52.0094 43.9176 52.276 43.384 52.768C42.871 53.1576 42.6658 53.8342 42.1733 54.2443C41.927 54.4493 41.7013 54.6953 41.5577 54.9824C40.4906 55.6795 39.2388 56.0076 38.1102 56.5816C38.1102 56.3766 38.0897 56.1716 38.0897 55.946C37.2688 56.1306 36.448 56.2946 35.6477 56.5201C34.95 56.7047 34.5396 57.3403 33.9239 57.6683C33.4314 57.8528 32.8774 57.8938 32.508 58.3039C28.7732 58.6115 24.9974 58.2424 21.4062 57.1352C21.7961 57.0122 22.2066 56.8687 22.5965 56.7252C22.658 56.2946 22.8837 55.9255 23.1916 55.618C23.6841 55.6385 23.9508 56.0486 24.2381 56.3766C25.0384 56.2126 25.5925 55.577 26.2697 55.1874C26.3928 55.3515 26.5364 55.5155 26.6596 55.659C27.1521 55.1464 27.6241 54.6133 28.2397 54.2443C29.0605 53.7727 29.4299 52.8091 30.2918 52.3785C31.051 51.8249 32.0976 52.0094 32.7953 51.3943C33.2262 51.0048 33.8419 51.0868 34.3754 50.9023C34.7858 50.6562 35.0731 50.2462 35.504 50.0411C35.9965 49.9591 36.5711 50.2462 36.9815 49.8566C37.6587 49.303 38.3154 48.6879 39.0336 48.1958C39.7724 47.7448 39.9365 46.7811 40.5727 46.248C40.8805 46.084 41.2704 46.043 41.6192 45.8995Z" fill="#E0CD81"/>
<path d="M18.4307 47.1091H19.19C19.7646 47.8062 20.5238 48.5649 21.4883 48.5649C22.2476 48.4828 21.8782 47.5807 21.7756 47.1091H25.3052C24.9153 47.4782 24.669 47.9293 24.669 48.4623C24.3407 48.5649 24.0124 48.6469 23.7046 48.7494C23.5199 49.3645 23.2326 49.9591 22.7401 50.3896C22.5349 50.3691 22.3297 50.3486 22.145 50.3076C22.0013 50.6357 21.8372 50.9842 21.6935 51.3328C21.3447 51.2508 20.8727 50.9227 20.6059 51.3328C20.1339 52.0709 19.8672 52.932 19.2926 53.6086L18.9848 52.9935C18.5128 53.1986 18.0408 53.4036 17.5688 53.5676C17.9998 52.809 18.5333 52.0914 18.8617 51.2713C18.7385 50.5127 18.3281 49.8361 18.3281 49.0569C18.3076 48.4008 17.9793 47.7037 18.4307 47.1091Z" fill="#C2A44D"/>
<path d="M19.1899 47.1091H21.7756C21.8782 47.5807 22.2475 48.4828 21.4883 48.5649C20.5238 48.5649 19.785 47.8062 19.1899 47.1091Z" fill="#D2B159"/>
<path d="M17.5687 53.5677C18.0407 53.3832 18.5127 53.1987 18.9847 52.9937L19.2925 53.6087C19.6003 54.1008 20.0312 54.5109 20.5237 54.7774C21.2625 54.8389 22.0217 54.6749 22.7605 54.7569C23.0683 54.7159 23.253 54.921 23.4172 55.1465C23.3351 55.3105 23.2735 55.4745 23.1914 55.6386C22.8836 55.9461 22.6374 56.2947 22.5963 56.7457C22.2064 56.8893 21.796 57.0328 21.4061 57.1558C19.3335 56.4587 17.343 55.5771 15.4346 54.4904C15.9065 54.4084 16.0297 53.9163 16.2759 53.5882C16.6863 53.4652 17.1378 53.6293 17.5687 53.5677Z" fill="#CEB052"/>
<path d="M41.537 55.003C42.3373 54.4904 43.3633 54.0188 44.2457 54.6339C40.6751 56.7048 36.6325 58.017 32.4873 58.3245C32.8567 57.9144 33.4107 57.8734 33.9032 57.6889C34.5189 57.3609 34.9293 56.7253 35.627 56.5407C36.4273 56.3152 37.2481 56.1512 38.069 55.9666C38.069 56.1717 38.0895 56.3767 38.0895 56.6022C39.2181 56.0282 40.4699 55.7001 41.537 55.003Z" fill="#D2BA6B"/>
</svg>
