<?xml version="1.0" encoding="UTF-8"?>
<svg xmlns="http://www.w3.org/2000/svg" width="154" height="33" viewBox="0 0 154 33" fill="none">
  <path d="M55.1245 26.8447C48.8064 26.8447 45.8647 23.8007 45.8647 17.15V11.8295C45.8647 5.20436 48.8064 2.13482 55.1245 2.13482C61.238 2.13482 64.103 4.97415 64.2564 11.1644H59.2428C59.1405 8.01812 58.015 6.6624 55.2013 6.6624C52.2596 6.6624 51.1341 8.14602 51.1341 11.9318V17.0477C51.1341 20.8335 52.2596 22.3171 55.2013 22.3171C58.015 22.3171 59.1405 20.9869 59.2428 17.8662H64.2564C64.103 24.0053 61.238 26.8447 55.1245 26.8447ZM68.0166 26.4098V8.09486H72.4419L72.6465 11.4969C73.3372 8.88782 74.7952 7.73674 77.302 7.73674H78.6577V12.5713H77.6857C74.9743 12.5713 73.6953 13.5945 73.1837 16.1524V26.4098H68.0166ZM81.2924 32.8047V28.7375H83.3388C84.3108 28.7375 84.7457 28.4562 85.1038 27.3818L85.4875 26.2308L79.246 8.12043H84.7456L88.1477 19.5545L91.2684 8.12043H96.4867L90.015 27.9957C88.7872 31.7815 87.5338 32.8047 83.9527 32.8047H81.2924ZM105.235 26.8447C99.9399 26.8447 97.4843 24.875 97.4843 20.8079H102.421C102.421 22.3938 103.265 23.0845 105.26 23.0845C106.974 23.0845 107.818 22.5473 107.818 21.4474C107.818 20.1428 106.846 19.5801 104.109 19.2731C99.5818 18.7359 97.7912 17.2012 97.7912 13.7224C97.7912 9.75753 100.451 7.68558 105.26 7.68558C110.095 7.68558 112.551 9.73194 112.551 13.5177H107.614C107.614 12.0853 106.923 11.4458 105.235 11.4458C103.7 11.4458 102.907 12.0341 102.907 13.0829C102.907 14.2851 103.854 14.7967 106.514 15.1292C111.144 15.6664 112.934 17.3802 112.934 20.9102C112.96 24.9262 110.428 26.8447 105.235 26.8447ZM122.322 26.4098C118.562 26.4098 117.001 24.6448 117.001 20.4498V12.0341H114.341V8.09486H117.104L117.385 3.54169H122.194V8.09486H125.98V12.0341H122.194V20.1428C122.194 21.8566 122.603 22.3427 124.113 22.3427H126.159V26.4098H122.322ZM134.012 26.8447C130.405 26.8447 128.231 24.7983 128.231 21.166C128.231 17.3035 130.661 15.1548 135.521 15.1548H138.898V14.5665C138.898 12.6736 138.156 11.7527 136.288 11.7527C134.498 11.7527 133.807 12.5713 133.73 13.8247H128.717C128.998 9.75753 131.454 7.68558 136.519 7.68558C141.711 7.68558 144.09 9.85984 144.09 14.6432V26.4354H139.716L139.537 24.1588C138.258 25.9238 136.416 26.8447 134.012 26.8447ZM135.572 22.7775C137.056 22.7775 138.13 22.0869 138.872 20.7056V18.608H136.467C134.114 18.608 133.347 19.4266 133.347 20.7567C133.347 22.0613 134.114 22.7775 135.572 22.7775ZM148.311 26.4098V0.804688H153.503V26.4098H148.311Z" fill="#262E39"></path>
  <path d="M6.34403 3.20947L0.0258789 12.0344L16.8828 29.6331L33.7397 12.0344L27.4216 3.20947H6.34403Z" fill="#F6BE00"></path>
</svg>
