<?xml version="1.0" encoding="UTF-8"?>
<svg xmlns="http://www.w3.org/2000/svg" width="49" height="50" viewBox="0 0 49 50" fill="none">
  <path d="M13.9658 34.1946C15.3166 34.1946 16.6223 34.1177 17.8579 33.9746V22.0431C16.6224 21.9001 15.3166 21.8232 13.9658 21.8232C6.2527 21.8232 0 24.3217 0 27.4037V28.614C0 31.696 6.2527 34.1946 13.9658 34.1946Z" fill="#FF930D"></path>
  <path d="M13.9658 40.4245C15.3166 40.4245 16.6223 40.3476 17.8579 40.2047V36.7074C16.6221 36.8503 15.317 36.9283 13.9658 36.9283C7.2331 36.9283 1.61369 35.0245 0.293724 32.4907C0.101499 32.8598 0 33.2419 0 33.6337V34.8439C0 37.926 6.2527 40.4245 13.9658 40.4245Z" fill="#FF930D"></path>
  <path d="M17.8579 43.2097V42.9378C16.6221 43.0808 15.317 43.1587 13.9658 43.1587C7.2331 43.1587 1.61369 41.2549 0.293724 38.7212C0.101499 39.0902 0 39.4723 0 39.8641V41.0743C0 44.1565 6.2527 46.6549 13.9658 46.6549C15.5082 46.6549 16.9918 46.5547 18.3792 46.3702C18.0353 45.7505 17.8579 45.0969 17.8579 44.4198V43.2097Z" fill="#FF930D"></path>
  <path d="M34.1025 20.8789C27.3698 20.8789 21.7504 18.9753 20.4304 16.4414C20.2382 16.8104 20.1367 17.1925 20.1367 17.5844V18.7946C20.1367 21.8767 26.3894 24.3751 34.1025 24.3751C41.8154 24.3751 48.0683 21.8767 48.0683 18.7946V17.5844C48.0683 17.1925 47.9668 16.8104 47.7745 16.4414C46.4546 18.9753 40.8352 20.8789 34.1025 20.8789Z" fill="#487EFE"></path>
  <path d="M34.1025 14.4727C27.3698 14.4727 21.7504 12.569 20.4304 10.0352C20.2382 10.4041 20.1367 10.7863 20.1367 11.1781V12.3884C20.1367 15.4705 26.3894 17.9689 34.1025 17.9689C41.8154 17.9689 48.0683 15.4705 48.0683 12.3884V11.1781C48.0683 10.7863 47.9668 10.4041 47.7745 10.0352C46.4546 12.569 40.8352 14.4727 34.1025 14.4727Z" fill="#487EFE"></path>
  <path d="M34.1025 0.478027C26.3894 0.478027 20.1367 2.97645 20.1367 6.05854V7.26879C20.1367 10.3509 26.3894 12.8493 34.1025 12.8493C41.8154 12.8493 48.0683 10.3509 48.0683 7.26879V6.05854C48.0683 2.97645 41.8154 0.478027 34.1025 0.478027Z" fill="#487EFE"></path>
  <path d="M34.1025 27.2847C27.3698 27.2847 21.7504 25.381 20.4304 22.8472C20.2382 23.2161 20.1367 23.5983 20.1367 23.9901V25.2004C20.1367 28.2825 26.3894 30.7809 34.1025 30.7809C41.8154 30.7809 48.0683 28.2825 48.0683 25.2004V23.9901C48.0683 23.5983 47.9668 23.2161 47.7745 22.8472C46.4546 25.381 40.8352 27.2847 34.1025 27.2847Z" fill="#487EFE"></path>
  <path d="M34.1025 33.691C27.3698 33.691 21.7504 31.7872 20.4304 29.2534C20.2382 29.6224 20.1367 30.0045 20.1367 30.3964V31.6066C20.1367 34.6888 26.3894 37.1873 34.1025 37.1873C41.8154 37.1873 48.0683 34.6888 48.0683 31.6066V30.3964C48.0683 30.0045 47.9668 29.6224 47.7745 29.2534C46.4546 31.7873 40.8352 33.691 34.1025 33.691Z" fill="#487EFE"></path>
  <path d="M34.1025 40.0972C27.3698 40.0972 21.7504 38.1934 20.4304 35.6597C20.2382 36.0287 20.1367 36.4108 20.1367 36.8025V38.0129C20.1367 41.095 26.3894 43.5934 34.1025 43.5934C41.8154 43.5934 48.0683 41.095 48.0683 38.0129V36.8025C48.0683 36.4108 47.9668 36.0285 47.7745 35.6597C46.4546 38.1933 40.8352 40.0972 34.1025 40.0972Z" fill="#487EFE"></path>
  <path d="M34.1025 46.5035C27.3698 46.5035 21.7504 44.5998 20.4304 42.066C20.2382 42.4351 20.1367 42.8174 20.1367 43.2089V44.4191C20.1367 47.5012 26.3894 49.9996 34.1025 49.9996C41.8154 49.9996 48.0683 47.5012 48.0683 44.4191V43.2088C48.0683 42.817 47.9668 42.4348 47.7745 42.0659C46.4546 44.5997 40.8352 46.5035 34.1025 46.5035Z" fill="#487EFE"></path>
</svg>
