<?xml version="1.0" encoding="UTF-8"?>
<svg xmlns="http://www.w3.org/2000/svg" width="50" height="51" viewBox="0 0 50 51" fill="none">
  <g clip-path="url(#clip0_219_62344)">
    <path d="M11.9688 47.3006L9.02385 38.0463C8.97252 37.885 8.86553 37.7472 8.72198 37.6575C8.26632 37.3726 8.27684 36.7055 8.74125 36.4352L11.5183 34.8186C12.3431 34.3386 13.3621 34.3385 14.1869 34.8184L15.4236 35.5379C16.3769 36.0925 16.6071 37.23 16.6071 38.3329C16.6071 38.5986 17.3514 40.5234 18.1486 42.5025C18.9949 44.6031 19.7682 47.6796 17.8964 48.9544C17.6699 49.1087 17.3971 49.2597 17.0668 49.4065C16.7742 49.5365 16.1021 49.7545 15.3753 49.8963C14.2134 50.1229 13.1747 49.4285 12.5181 48.4435C12.2825 48.0901 12.0976 47.7054 11.9688 47.3006Z" fill="#2C51F2"></path>
    <path d="M8.93896 29.3862C8.93896 32.7714 7.47843 35.4157 4.88555 35.4157C2.29268 35.4157 0.689898 33.6347 -0.0939306 30.3768C-1.01218 26.5602 1.65126 23.2568 4.24414 23.2568C6.83702 23.2568 8.93896 26.0011 8.93896 29.3862Z" fill="#4D6DFB"></path>
    <path d="M14.8959 20.6313C11.2968 21.4036 6.35872 22.6919 4.46505 23.0835C4.03778 23.1719 3.62126 23.3495 3.32606 23.6707C-0.0842849 27.3824 2.30915 33.086 4.56233 35.2461C4.66453 35.3441 4.77958 35.4245 4.90284 35.4942L6.85453 36.5973C7.17097 36.7762 7.43269 37.0379 7.61154 37.3543L7.85801 37.7904C8.3926 38.7362 9.58445 39.0823 10.5424 38.5699L13.2771 37.1071C13.5673 36.9519 13.8913 36.8707 14.2204 36.8707H15.9093C16.5388 36.8707 17.1315 36.5744 17.5092 36.0709L18.4602 34.8031C18.7805 34.3762 18.9168 33.839 18.8389 33.311L17.209 22.2642C17.0447 21.1509 15.9962 20.3952 14.8959 20.6313Z" fill="url(#paint0_linear_219_62344)"></path>
    <path d="M24.3783 19.2829C23.1014 19.6821 19.0301 20.6899 16.9454 21.1948C16.7961 21.2309 16.6534 21.3038 16.5367 21.4038C9.91659 27.0733 13.6226 31.7632 16.5068 33.5437C16.6457 33.6294 16.8036 33.6734 16.9667 33.6793C19.941 33.7865 25.5513 34.004 26.0344 34.0845C26.4229 34.1492 28.9883 35.062 31.029 35.8034C31.7293 36.0578 32.4547 35.4872 32.3694 34.747L30.2405 16.2678C30.139 15.3872 29.0126 15.0522 28.4212 15.7126C27.0218 17.2755 25.3032 18.9938 24.3783 19.2829Z" fill="url(#paint1_linear_219_62344)"></path>
    <ellipse cx="38.3989" cy="23.4449" rx="10.2427" ry="17.2741" transform="rotate(-4.73028 38.3989 23.4449)" fill="url(#paint2_radial_219_62344)"></ellipse>
    <path d="M38.3811 19.7842H27.3291L28.2748 28.0737L38.7805 26.1404C40.204 25.8785 41.2375 24.6374 41.2375 23.19V22.6407C41.2375 21.0631 39.9587 19.7842 38.3811 19.7842Z" fill="#F79E33"></path>
    <path d="M40.6576 22.6922C40.6576 23.2419 40.5023 23.7331 40.259 24.0827C40.0153 24.433 39.6933 24.6299 39.355 24.6299C39.0166 24.6299 38.6946 24.433 38.4509 24.0827C38.2076 23.7331 38.0523 23.2419 38.0523 22.6922C38.0523 22.1425 38.2076 21.6513 38.4509 21.3016C38.6946 20.9514 39.0166 20.7545 39.355 20.7545C39.6933 20.7545 40.0153 20.9514 40.259 21.3016C40.5023 21.6513 40.6576 22.1425 40.6576 22.6922Z" stroke="#4E72FF" stroke-width="0.3"></path>
    <path d="M38.1131 22.8867L28.1621 23.7689" stroke="#4E72FF" stroke-width="0.3"></path>
    <path d="M40.6835 22.6578L41.4308 22.6123" stroke="#4E72FF" stroke-width="0.3"></path>
    <path d="M28.7515 27.8859L38.8668 26.2563C39.3515 26.1782 39.7078 25.7599 39.7078 25.269V24.5508" stroke="#4E72FF" stroke-width="0.3"></path>
    <path d="M28.0996 19.6791L38.2082 19.5203C38.65 19.5134 39.0439 19.7971 39.1773 20.2183L39.3772 20.8496" stroke="#4E72FF" stroke-width="0.3"></path>
    <path d="M48.9232 22.3854C49.3279 27.2771 48.4751 31.7825 46.7951 35.1087C45.1107 38.4436 42.641 40.5189 39.8314 40.7514C37.0218 40.9839 34.2446 39.3427 32.035 36.33C29.8311 33.3252 28.2493 29.0213 27.8445 24.1296C27.4397 19.238 28.2926 14.7326 29.9726 11.4064C31.657 8.07151 34.1267 5.99616 36.9363 5.76368C39.7459 5.53119 42.5231 7.17238 44.7327 10.185C46.9366 13.1899 48.5184 17.4938 48.9232 22.3854Z" stroke="#5B84FF"></path>
  </g>
  <defs>
    <linearGradient id="paint0_linear_219_62344" x1="10.2914" y1="20.2324" x2="10.2914" y2="39.4915" gradientUnits="userSpaceOnUse">
      <stop stop-color="#FFA02A"></stop>
      <stop offset="1" stop-color="#FFA08A"></stop>
    </linearGradient>
    <linearGradient id="paint1_linear_219_62344" x1="22.6942" y1="13.9004" x2="22.6942" y2="36.3617" gradientUnits="userSpaceOnUse">
      <stop stop-color="#5177FF"></stop>
      <stop offset="1" stop-color="#4767FF"></stop>
    </linearGradient>
    <radialGradient id="paint2_radial_219_62344" cx="0" cy="0" r="1" gradientUnits="userSpaceOnUse" gradientTransform="translate(38.3989 23.4449) rotate(90) scale(17.2741 10.2427)">
      <stop offset="0.877694" stop-color="#5076FF"></stop>
      <stop offset="1" stop-color="#4C6FFF"></stop>
    </radialGradient>
    <clipPath id="clip0_219_62344">
      <rect width="50" height="50" fill="white" transform="translate(0 0.525391)"></rect>
    </clipPath>
  </defs>
</svg>
