<?xml version="1.0" encoding="UTF-8"?>
<svg xmlns="http://www.w3.org/2000/svg" width="50" height="51" viewBox="0 0 50 51" fill="none">
  <path d="M3.83397 5.6338C3.83904 5.33435 3.97805 5.05293 4.21279 4.86694L5.34968 3.96612C5.55399 3.80424 5.81344 3.72853 6.07276 3.75513L38.3418 7.0654C38.8459 7.11711 39.2317 7.53775 39.2396 8.04445L39.4385 20.6912C39.4476 21.2667 38.9702 21.731 38.3951 21.706L4.56046 20.2325C4.01905 20.209 3.59494 19.7584 3.60411 19.2166L3.83397 5.6338Z" fill="#DD8508"></path>
  <path d="M5.00779 4.63381C5.0174 4.06615 5.49711 3.62035 6.06395 3.65231L39.4801 5.53668C40.0037 5.5662 40.4155 5.99508 40.4237 6.51937L40.6219 19.1242C40.631 19.6997 40.1536 20.164 39.5786 20.139L5.74387 18.6655C5.20246 18.642 4.77836 18.1914 4.78752 17.6496L5.00779 4.63381Z" fill="#FFA02A"></path>
  <path d="M9.36205 13.083C9.36711 12.7836 9.50613 12.5022 9.74087 12.3162L10.8778 11.4153C11.0821 11.2535 11.3415 11.1777 11.6008 11.2043L43.9468 14.5225C44.4171 14.5708 44.7894 14.9418 44.8392 15.4119L46.0256 26.6077C46.0547 26.8821 45.969 27.1564 45.789 27.3655L44.6984 28.6321C44.4997 28.863 44.2065 28.9906 43.9021 28.9789L10.0937 27.677C9.55017 27.6561 9.12307 27.2047 9.13227 26.6609L9.36205 13.083Z" fill="#3665FF"></path>
  <path d="M10.5359 12.083C10.5455 11.5154 11.0252 11.0696 11.592 11.1015L45.0082 12.9859C45.5317 13.0154 45.9435 13.4443 45.9518 13.9686L46.15 26.5734C46.1591 27.1489 45.6817 27.6133 45.1066 27.5882L11.2719 26.1148C10.7305 26.0912 10.3064 25.6406 10.3156 25.0988L10.5359 12.083Z" fill="#527AFF"></path>
  <path d="M3.83397 23.6338C3.83904 23.3344 3.97805 23.0529 4.21279 22.8669L5.34968 21.9661C5.55399 21.8042 5.81344 21.7285 6.07276 21.7551L38.3418 25.0654C38.8459 25.1171 39.2317 25.5378 39.2396 26.0445L39.4385 38.6912C39.4476 39.2667 38.9702 39.731 38.3951 39.706L4.56046 38.2325C4.01905 38.209 3.59494 37.7584 3.60411 37.2166L3.83397 23.6338Z" fill="#DD8508"></path>
  <path d="M5.00779 22.6338C5.0174 22.0661 5.49711 21.6204 6.06395 21.6523L39.4801 23.5367C40.0037 23.5662 40.4155 23.9951 40.4237 24.5194L40.6219 37.1242C40.631 37.6997 40.1536 38.164 39.5786 38.139L5.74387 36.6655C5.20246 36.642 4.77836 36.1914 4.78752 35.6496L5.00779 22.6338Z" fill="#FFA02A"></path>
  <path d="M9.36205 31.083C9.36711 30.7836 9.50613 30.5022 9.74087 30.3162L10.8778 29.4153C11.0821 29.2535 11.3415 29.1777 11.6008 29.2043L43.9468 32.5225C44.4171 32.5708 44.7894 32.9418 44.8392 33.4119L46.0256 44.6077C46.0547 44.8821 45.969 45.1564 45.789 45.3655L44.6984 46.6321C44.4997 46.863 44.2065 46.9906 43.9021 46.9789L10.0937 45.677C9.55017 45.6561 9.12307 45.2047 9.13227 44.6609L9.36205 31.083Z" fill="#3665FF"></path>
  <path d="M10.5359 30.083C10.5455 29.5154 11.0252 29.0696 11.592 29.1015L45.0082 30.9859C45.5317 31.0154 45.9435 31.4443 45.9518 31.9686L46.15 44.5734C46.1591 45.1489 45.6817 45.6133 45.1066 45.5882L11.2719 44.1148C10.7305 44.0912 10.3064 43.6406 10.3156 43.0988L10.5359 30.083Z" fill="#527AFF"></path>
</svg>
