<?xml version="1.0" encoding="UTF-8"?>
<svg xmlns="http://www.w3.org/2000/svg" width="51" height="51" viewBox="0 0 51 51" fill="none">
  <g clip-path="url(#clip0_203_81986)">
    <path d="M0.610759 40.457H3.12848L8.3864 32.5543L8.99512 28.2594L0.610759 40.457Z" fill="#FF930D"></path>
    <path d="M8.02621 21.0869L8.4834 16.4384L0.020318 16.1821V21.0868L8.02621 21.0869Z" fill="#DD8508"></path>
    <path d="M29.1727 32.7801L30.0068 28.5693L19.3251 44.1398L-5.08712 41.8326V45.468C-5.08712 47.115 -3.75193 48.4502 -2.10489 48.4502H18.2322C19.2853 48.4502 20.2603 47.8948 20.7974 46.9889L29.0827 33.0155C29.1258 32.9427 29.1563 32.8631 29.1727 32.7801Z" fill="#DD8508"></path>
    <path d="M-4.61295 21.0177L2.5052 30.8145L4.52637 27.6101L-5.01972 15.2459L-5.18003 19.1421C-5.20764 19.8133 -5.00782 20.4742 -4.61295 21.0177Z" fill="#204BDB"></path>
    <path d="M3.84694 28.4184L-4.53936 40.2033C-5.97739 42.224 -4.39548 45.0033 -1.92371 44.7987L9.00098 28.2593L0.430384 16.4731L-2.01349 12.6513C-4.40766 12.4353 -5.9347 15.1476 -4.50842 17.0827L3.84694 28.4184Z" fill="#487EFE"></path>
    <path d="M7.97655 21.0906L15.7044 31.7266L17.7256 28.5222L8.47558 16.4417L7.97655 21.0906Z" fill="#FF930D"></path>
    <path d="M29.6816 29.5342L21.0813 43.1629C20.5421 44.0174 19.6068 44.5407 18.5965 44.5533L-1.79534 44.808C-2.40298 44.8156 -2.76398 44.132 -2.4151 43.6345L-0.401228 40.7622C-0.261677 40.5632 -0.0338573 40.4447 0.209225 40.4447H8.91081C9.16245 40.4447 9.39711 40.3178 9.53481 40.1072L17.0163 28.665C17.1883 28.4019 17.1768 28.0591 16.9876 27.8081L8.73893 16.8688C8.59805 16.682 8.37763 16.5721 8.14364 16.5721L0.160666 16.5721C-0.0548706 16.5721 -0.259859 16.4788 -0.401451 16.3163L-2.51739 13.8879C-2.94091 13.4018 -2.58958 12.6437 -1.94495 12.6526L17.5036 12.922C18.4241 12.9348 19.2872 13.3719 19.842 14.1065L29.5748 26.9925C30.1357 27.735 30.1782 28.7472 29.6816 29.5342Z" fill="#FF930D"></path>
    <path d="M51.276 29.5215H48.7582L43.5003 21.6187L42.8916 17.3239L51.276 29.5215Z" fill="#FF930D"></path>
    <path d="M43.8605 10.1514L43.4033 5.50288L51.8664 5.24655V10.1513L43.8605 10.1514Z" fill="#DD8508"></path>
    <path d="M22.714 21.8446L21.8799 17.6338L32.5616 33.2042L56.9738 30.897V34.5324C56.9738 36.1795 55.6386 37.5146 53.9916 37.5146H33.6545C32.6014 37.5146 31.6264 36.9592 31.0893 36.0534L22.8041 22.08C22.7609 22.0072 22.7305 21.9276 22.714 21.8446Z" fill="#204BDB"></path>
    <path d="M56.4997 10.0821L49.3815 19.8789L47.3604 16.6745L56.9064 4.3103L57.0667 8.20657C57.0944 8.87779 56.8945 9.53867 56.4997 10.0821Z" fill="#204BDB"></path>
    <path d="M48.0398 17.4829L56.4261 29.2677C57.8641 31.2885 56.2822 34.0677 53.8104 33.8631L42.8857 17.3238L51.4563 5.53758L53.9002 1.71571C56.2944 1.49979 57.8214 4.21207 56.3951 6.14711L48.0398 17.4829Z" fill="#487EFE"></path>
    <path d="M43.9102 10.1551L36.1823 20.791L34.1611 17.5866L43.4111 5.50619L43.9102 10.1551Z" fill="#FF930D"></path>
    <path d="M22.2051 18.5987L30.8054 32.2275C31.3447 33.082 32.2799 33.6053 33.2902 33.618L53.6821 33.8726C54.2897 33.8802 54.6507 33.1967 54.3018 32.6991L52.2879 29.8268C52.1484 29.6278 51.9206 29.5093 51.6775 29.5093H42.9759C42.7243 29.5093 42.4896 29.3824 42.3519 29.1718L34.8704 17.7295C34.6984 17.4664 34.7099 17.1236 34.8992 16.8726L43.1478 5.93328C43.2887 5.74645 43.5091 5.63659 43.7431 5.63659L51.7261 5.63659C51.9416 5.63659 52.1466 5.54331 52.2882 5.38081L54.4041 2.95234C54.8276 2.46627 54.4763 1.70815 53.8317 1.71708L34.3831 1.98646C33.4626 1.99921 32.5995 2.43639 32.0447 3.17101L22.3119 16.057C21.751 16.7996 21.7085 17.8118 22.2051 18.5987Z" fill="#487EFE"></path>
  </g>
  <defs>
    <clipPath id="clip0_203_81986">
      <rect width="50" height="50" fill="white" transform="translate(0.585938 0.804688)"></rect>
    </clipPath>
  </defs>
</svg>
