<?xml version="1.0" encoding="UTF-8"?>
<svg xmlns="http://www.w3.org/2000/svg" width="50" height="51" viewBox="0 0 50 51" fill="none">
  <path d="M5.07307 11.2862C9.74696 2.5237 21.1899 2.65588 21.1899 2.65588C17.0947 3.0941 9.70939 7.67654 8.03918 13.7294C5.60752 22.5417 8.41911 31.4884 19.4389 35.4756C3.17452 32.7017 1.49547 17.9935 5.07307 11.2862Z" fill="url(#paint0_linear_219_62336)"></path>
  <path d="M15.8208 32.3548C15.8655 32.3765 15.9103 32.3981 15.9553 32.4196C17.2339 32.838 24.8581 31.991 28.0389 25.3567C31.7295 17.6587 29.9162 7.50083 18.4154 4.47468C37.569 3.11215 36.4805 21.6566 33.1802 26.624C27.2524 35.5458 20.7502 34.7103 15.9553 32.4196C15.8969 32.4005 15.8517 32.3787 15.8208 32.3548Z" fill="url(#paint1_linear_219_62336)"></path>
  <path d="M42.5326 47.8778C40.7906 47.8778 28.9985 33.2205 28.9985 33.2205L33.0752 28.8984C33.0752 28.8984 46.2515 42.1746 46.5801 43.9493C46.9088 45.724 44.2745 47.8778 42.5326 47.8778Z" fill="url(#paint2_linear_219_62336)"></path>
  <g filter="url(#filter0_i_219_62336)">
    <path fill-rule="evenodd" clip-rule="evenodd" d="M21.6733 33.8243C28.4357 33.8243 34.395 27.5422 34.395 19.1758C34.395 10.8093 28.4357 4.52722 21.6733 4.52722C14.911 4.52722 8.95166 10.8093 8.95166 19.1758C8.95166 27.5422 14.911 33.8243 21.6733 33.8243ZM21.6733 35.7734C29.8039 35.7734 36.395 28.3424 36.395 19.1758C36.395 10.0091 29.8039 2.57812 21.6733 2.57812C13.5428 2.57812 6.95166 10.0091 6.95166 19.1758C6.95166 28.3424 13.5428 35.7734 21.6733 35.7734Z" fill="#7A97F9"></path>
  </g>
  <defs>
    <filter id="filter0_i_219_62336" x="6.95166" y="2.57812" width="30.4434" height="34.1953" filterUnits="userSpaceOnUse" color-interpolation-filters="sRGB">
      <feFlood flood-opacity="0" result="BackgroundImageFix"></feFlood>
      <feBlend mode="normal" in="SourceGraphic" in2="BackgroundImageFix" result="shape"></feBlend>
      <feColorMatrix in="SourceAlpha" type="matrix" values="0 0 0 0 0 0 0 0 0 0 0 0 0 0 0 0 0 0 127 0" result="hardAlpha"></feColorMatrix>
      <feOffset dx="1" dy="1"></feOffset>
      <feGaussianBlur stdDeviation="0.5"></feGaussianBlur>
      <feComposite in2="hardAlpha" operator="arithmetic" k2="-1" k3="1"></feComposite>
      <feColorMatrix type="matrix" values="0 0 0 0 1 0 0 0 0 1 0 0 0 0 1 0 0 0 0.25 0"></feColorMatrix>
      <feBlend mode="normal" in2="shape" result="effect1_innerShadow_219_62336"></feBlend>
    </filter>
    <linearGradient id="paint0_linear_219_62336" x1="11.1963" y1="35.0212" x2="11.1963" y2="2.19336" gradientUnits="userSpaceOnUse">
      <stop stop-color="#6587F8"></stop>
      <stop offset="1" stop-color="#2D5CF6"></stop>
    </linearGradient>
    <linearGradient id="paint1_linear_219_62336" x1="20.4697" y1="4.4646" x2="25.4422" y2="33.7577" gradientUnits="userSpaceOnUse">
      <stop offset="0.220647" stop-color="#2958F5"></stop>
      <stop offset="1" stop-color="#557AF7"></stop>
    </linearGradient>
    <linearGradient id="paint2_linear_219_62336" x1="43.3141" y1="37.0345" x2="38.0375" y2="48.4725" gradientUnits="userSpaceOnUse">
      <stop stop-color="#698AF8"></stop>
      <stop offset="0.454648" stop-color="#456EF7"></stop>
      <stop offset="1" stop-color="#2D5CF6"></stop>
    </linearGradient>
  </defs>
</svg>
