<?xml version="1.0" encoding="UTF-8"?>
<svg xmlns="http://www.w3.org/2000/svg" width="50" height="51" viewBox="0 0 50 51" fill="none">
  <g clip-path="url(#clip0_219_62338)">
    <path d="M11.959 41.1598V37.7828L22.5588 30.7305L28.3193 29.9141L11.959 41.1598Z" fill="#FFA02A"></path>
    <path d="M37.9395 31.2128L44.1744 30.5996L44.5182 41.9509H37.9396L37.9395 31.2128Z" fill="#DD8508"></path>
    <path d="M22.2552 2.84927L27.9031 1.73047L7.01879 16.0576L10.1133 48.8012H5.2373C3.02817 48.8012 1.2373 47.0103 1.2373 44.8012V17.5235C1.2373 16.111 1.98227 14.8032 3.19724 14.0828L21.9395 2.97004C22.0371 2.91216 22.1438 2.87132 22.2552 2.84927Z" fill="#204BDB"></path>
    <path d="M38.0318 48.1656L24.8916 38.6182L29.1896 35.9072L45.7734 48.7112L40.5474 48.9262C39.6471 48.9632 38.7607 48.6952 38.0318 48.1656Z" fill="#204BDB"></path>
    <path d="M28.1053 36.8192L12.2986 48.0676C9.58814 49.9964 5.86042 47.8746 6.13488 44.5593L28.3187 29.9062L44.1272 41.4018L49.2534 44.6797C49.543 47.8909 45.9051 49.9391 43.3097 48.0261L28.1053 36.8192Z" fill="#487EFE"></path>
    <path d="M37.9337 31.2802L23.668 20.915L27.9659 18.2041L44.1691 30.6109L37.9337 31.2802Z" fill="#FFA02A"></path>
    <path d="M26.6083 2.16742L8.3284 13.7028C7.18227 14.4261 6.48031 15.6805 6.46338 17.0356L6.12182 44.3867C6.11164 45.2017 7.02845 45.6859 7.69583 45.218L11.5483 42.5168C11.8153 42.3296 11.9742 42.024 11.9742 41.698V30.0268C11.9742 29.6893 12.1445 29.3745 12.427 29.1898L27.7742 19.1551C28.1271 18.9244 28.5868 18.9398 28.9235 19.1936L43.5962 30.2573C43.8468 30.4463 43.9941 30.7419 43.9941 31.0558V41.7631C43.9941 42.0522 44.1192 42.3272 44.3372 42.5171L47.5944 45.3552C48.2464 45.9232 49.2632 45.452 49.2513 44.5873L48.89 18.5015C48.8728 17.2668 48.2865 16.1092 47.3011 15.365L30.0174 2.31061C29.0215 1.55837 27.6638 1.50135 26.6083 2.16742Z" fill="#487EFE"></path>
  </g>
  <defs>
    <clipPath id="clip0_219_62338">
      <rect width="50" height="50" fill="white" transform="translate(0 0.525391)"></rect>
    </clipPath>
  </defs>
</svg>
