<?xml version="1.0" encoding="UTF-8"?>
<svg xmlns="http://www.w3.org/2000/svg" width="51" height="51" viewBox="0 0 51 51" fill="none">
  <g clip-path="url(#clip0_203_81971)">
    <path d="M51.585 30.5605C51.585 29.893 51.3623 29.2445 50.9522 28.7177L47.8756 24.7655C47.1471 23.8298 45.9358 23.4109 44.7849 23.6969L43.9736 23.8985C43.5139 24.0127 43.0877 24.2342 42.73 24.5448L40.2346 26.7119C39.4264 27.4136 38.3056 27.6317 37.2933 27.2842L34.1082 26.1906C33.9034 26.1203 33.7067 26.028 33.5218 25.9153L23.8794 20.0419C23.2847 19.6797 22.5826 19.5356 21.8934 19.6343L20.8113 19.7893C19.7424 19.9424 18.6738 19.5092 18.0131 18.6552L7.30096 4.80802C6.23433 3.42922 4.22113 3.24674 2.92397 4.41128L1.58186 5.61618C0.948048 6.18519 0.585987 6.99679 0.585987 7.84855V46.573C0.585987 48.2298 1.92913 49.573 3.58599 49.573H48.585C50.2418 49.573 51.585 48.2298 51.585 46.573V30.5605Z" fill="#DD8508"></path>
    <path d="M47.5859 32.5605C47.5859 31.893 47.3633 31.2445 46.9532 30.7177L43.8766 26.7655C43.1481 25.8298 41.9368 25.4109 40.7859 25.6969L39.9746 25.8985C39.5148 26.0127 39.0887 26.2342 38.731 26.5448L36.2355 28.7119C35.4274 29.4136 34.3066 29.6317 33.2943 29.2842L30.1092 28.1906C29.9044 28.1203 29.7077 28.028 29.5227 27.9153L19.8804 22.0419C19.2857 21.6797 18.5836 21.5356 17.8944 21.6343L16.8122 21.7893C15.7434 21.9424 14.6747 21.5092 14.0141 20.6552L3.30194 6.80802C2.2353 5.42922 0.222103 5.24674 -1.07506 6.41128L-2.41717 7.61618C-3.05098 8.18519 -3.41304 8.99679 -3.41304 9.84855V48.573C-3.41304 50.2298 -2.06989 51.573 -0.413036 51.573H44.5859C46.2428 51.573 47.5859 50.2298 47.5859 48.573V32.5605Z" fill="#FF930D"></path>
    <path d="M1.96094 45.7549C1.96094 44.8316 2.38608 43.9598 3.11356 43.3912L15.8437 33.4419C17.0071 32.5326 18.6592 32.6052 19.7384 33.6129L21.0877 34.8727C22.2447 35.953 24.042 35.9485 25.1936 34.8623L25.4667 34.6046C26.2813 33.8363 27.4561 33.5856 28.5134 33.9544L29.2001 34.194C30.509 34.6506 31.925 34.1115 32.8969 33.123C34.2746 31.7219 35.5735 31.1434 37.0343 28.8743L41.4037 19.4049C42.224 17.6272 44.4997 17.0989 46.0193 18.3333L46.3742 18.6216C47.5498 19.5766 49.2858 19.3511 50.1784 18.1275C51.6869 16.0598 54.9599 17.1268 54.9599 19.6862V52.1523C54.9599 53.7871 53.651 55.1209 52.0165 55.1518L5.01753 56.0386C3.33883 56.0702 1.96094 54.7181 1.96094 53.0391V45.7549Z" fill="#527AFF"></path>
    <path d="M5.96094 47.7094C5.96094 46.8121 6.36264 45.9618 7.05585 45.392L17.8332 36.5323C18.9956 35.5768 20.6859 35.6301 21.7857 36.657L23.0877 37.8727C24.2447 38.953 26.042 38.9485 27.1936 37.8623L27.4667 37.6047C28.2813 36.8363 29.4561 36.5856 30.5134 36.9544L31.2001 37.194C32.509 37.6506 33.925 37.1115 34.8969 36.123C36.2746 34.7219 37.5735 34.1434 39.0343 31.8743L43.4037 22.4049C44.224 20.6272 46.4997 20.0989 48.0193 21.3333L48.3742 21.6216C49.5498 22.5766 51.2858 22.3511 52.1784 21.1275C53.6869 19.0598 56.9599 20.1268 56.9599 22.6863V55.0962C56.9599 56.7531 55.6168 58.0962 53.9599 58.0962H8.96093C7.30408 58.0962 5.96094 56.7531 5.96094 55.0962V47.7094Z" fill="#204BDB"></path>
  </g>
  <defs>
    <clipPath id="clip0_203_81971">
      <rect width="50" height="50" fill="white" transform="translate(0.585938 0.804688)"></rect>
    </clipPath>
  </defs>
</svg>
