<?xml version="1.0" encoding="UTF-8"?>
<svg xmlns="http://www.w3.org/2000/svg" width="50" height="51" viewBox="0 0 50 51" fill="none">
  <path fill-rule="evenodd" clip-rule="evenodd" d="M2.42325 45.1372C-9.46103 28.9058 21.0695 -7.71194 39.9984 2.20129C55.9485 14.6064 23.1897 61.4522 2.42325 45.1372ZM12.1363 36.3182C5.35839 28.4357 23.2667 7.77588 31.9302 13.1989C38.133 19.558 23.0067 39.6616 12.1363 36.3182Z" fill="#557CFF"></path>
  <path d="M15.2677 21.3481C21.0341 13.2653 28.8408 12.6308 32.1439 13.403C29.9558 10.6573 21.9806 9.08139 14.622 17.5703C6.48042 26.9625 9.17587 34.2888 12.179 36.3481C10.7633 34.5892 9.50119 29.4308 15.2677 21.3481Z" fill="#3664FF"></path>
  <path d="M35.8101 33.3317C24.203 49.2047 9.342 51.1066 2.59499 45.2188C7.60076 52.6561 23.8103 54.5896 37.4373 36.9686C50.0306 20.6844 48.0965 7.74528 40.0263 2.19393C44.8955 6.69082 47.4378 17.4306 35.8101 33.3317Z" fill="#3B68FF"></path>
  <path fill-rule="evenodd" clip-rule="evenodd" d="M44.0714 13.8408L46.4699 14.7152C46.5827 20.6558 44.2376 28.3038 37.6453 36.8282C35.2857 39.8795 32.859 42.3294 30.4398 44.2673L28.3672 41.3932C30.9304 39.2518 33.4447 36.5785 35.7708 33.2963C41.4221 25.3221 43.6547 18.8259 44.0714 13.8408Z" fill="#FFA637"></path>
  <path fill-rule="evenodd" clip-rule="evenodd" d="M28.4184 41.4979L25.5469 31.5042C29.6229 27.7246 32.7521 22.5406 33.2823 18.3725L44.0805 13.8672C43.3034 22.9901 36.7977 34.3186 28.4184 41.4979Z" fill="#FFB150"></path>
</svg>
