<?xml version="1.0" encoding="UTF-8"?>
<svg xmlns="http://www.w3.org/2000/svg" width="51" height="51" viewBox="0 0 51 51" fill="none">
  <g clip-path="url(#clip0_203_82004)">
    <path d="M48.5508 18.5553C48.5597 18.2593 48.4369 17.9746 48.2155 17.7779L46.8414 16.5569C46.6437 16.3811 46.3843 16.2909 46.1202 16.306L13.8514 18.1483C13.3608 18.1764 12.9632 18.5567 12.9136 19.0457L10.3087 44.6924C10.2916 44.8613 10.3196 45.0317 10.3898 45.1862C10.4346 45.2845 10.4955 45.3745 10.5702 45.4525L12.0666 47.0146C12.2532 47.2095 12.5106 47.3206 12.7804 47.3229L46.7022 47.6042C47.2461 47.6087 47.6938 47.1777 47.7101 46.6341L48.5508 18.5553Z" fill="#DD8508"></path>
    <path d="M47.1972 17.3425C47.2185 16.7732 46.7605 16.3012 46.1908 16.3052L12.7382 16.5418C12.2095 16.5455 11.7751 16.9601 11.7467 17.4881L10.2851 44.6758C10.2544 45.2461 10.7068 45.7262 11.2779 45.7295L45.1608 45.9239C45.7008 45.927 46.1457 45.5009 46.1659 44.9613L47.1972 17.3425Z" fill="#FF930D"></path>
    <path d="M39.8262 4.56508C39.8351 4.26907 39.7123 3.98435 39.4909 3.78764L38.1168 2.56665C37.9191 2.39091 37.6597 2.30071 37.3956 2.31579L5.12683 4.15811C4.63618 4.18612 4.23861 4.5665 4.18895 5.05543L1.58411 30.7021C1.56696 30.871 1.59495 31.0415 1.66524 31.196C1.70994 31.2943 1.77092 31.3843 1.84561 31.4623L3.34194 33.0244C3.52857 33.2192 3.78601 33.3304 4.0558 33.3326L37.9776 33.6139C38.5215 33.6184 38.9692 33.1875 38.9855 32.6439L39.8262 4.56508Z" fill="#204BDB"></path>
    <path d="M38.4726 3.35228C38.4939 2.78297 38.0359 2.31096 37.4662 2.31499L4.01357 2.55155C3.48488 2.55528 3.05047 2.9699 3.02208 3.49784L1.56044 30.6856C1.52978 31.2559 1.98216 31.736 2.55326 31.7393L36.4362 31.9337C36.9762 31.9368 37.4211 31.5107 37.4413 30.971L38.4726 3.35228Z" fill="#527AFF"></path>
  </g>
  <defs>
    <clipPath id="clip0_203_82004">
      <rect width="50" height="50" fill="white" transform="translate(0.585938 0.804688)"></rect>
    </clipPath>
  </defs>
</svg>
