<svg width="51" height="47" viewBox="0 0 51 47" fill="none" xmlns="http://www.w3.org/2000/svg">
<path fill-rule="evenodd" clip-rule="evenodd" d="M30.6884 25.2649C30.3986 25.2867 28.9014 25.3761 25.5616 25.3761C22.9052 25.3761 21.0192 25.2964 20.3575 25.2649C10.0918 24.8131 2.42938 23.0252 2.42938 20.8846C2.42938 18.7439 10.0918 16.9585 20.3575 16.4994V23.4843C21.0288 23.5326 22.9511 23.6462 25.6075 23.6462C28.7951 23.6462 30.3914 23.5133 30.6787 23.4867V16.5042C40.9227 16.9609 48.5682 18.7488 48.5682 20.8846C48.5682 23.0204 40.9251 24.8083 30.6787 25.2625L30.6884 25.2649ZM30.6884 15.7818V9.53144H44.9845V0H6.06137V9.53144H20.3551V15.7794C8.73706 16.3134 0 18.6159 0 21.3751C0 24.1342 8.73706 26.4343 20.3551 26.9707V47H30.686V26.9635C42.2774 26.4295 51 24.1294 51 21.3726C51 18.6159 42.2847 16.3158 30.686 15.7794L30.6884 15.7818Z" fill="white"/>
</svg>
