<svg width="18" height="18" viewBox="0 0 18 18" fill="none" xmlns="http://www.w3.org/2000/svg">
<path d="M17.2789 11.1531C16.1437 15.7067 11.5316 18.478 6.97747 17.3424C2.42523 16.2072 -0.346016 11.5948 0.789719 7.0416C1.92446 2.48749 6.53653 -0.283964 11.0893 0.851273C15.6431 1.98651 18.4142 6.59937 17.2788 11.1532L17.2789 11.1531H17.2789Z" fill="#50AF95"/>
<path fill-rule="evenodd" clip-rule="evenodd" d="M10.1107 10.0604C10.0506 10.0649 9.74009 10.0835 9.0474 10.0835C8.49646 10.0835 8.10529 10.067 7.96806 10.0604C5.83892 9.96678 4.24971 9.59615 4.24971 9.15239C4.24971 8.70863 5.83892 8.3385 7.96806 8.24334V9.69131C8.1073 9.70133 8.50598 9.72487 9.05692 9.72487C9.71805 9.72487 10.0491 9.69732 10.1087 9.69181V8.24434C12.2333 8.339 13.8191 8.70963 13.8191 9.15239C13.8191 9.59514 12.2338 9.96578 10.1087 10.0599L10.1107 10.0604ZM10.1107 8.09459V6.79887H13.0758V4.823H5.003V6.79887H7.96756V8.09409C5.55795 8.20478 3.74585 8.68209 3.74585 9.25407C3.74585 9.82605 5.55795 10.3029 7.96756 10.4141V14.5661H10.1102V10.4125C12.5143 10.3019 14.3234 9.82504 14.3234 9.25357C14.3234 8.68209 12.5158 8.20528 10.1102 8.09409L10.1107 8.09459Z" fill="white"/>
</svg>
