<svg xmlns="http://www.w3.org/2000/svg" width="47" height="54" viewBox="0 0 47 54" fill="none">
<path d="M45.2819 14.6909C43.1701 13.2165 40.9119 11.6447 38.7025 10.085C38.6537 10.0485 38.6049 10.0119 38.5439 9.97537C38.2997 9.7926 38.019 9.59764 37.6772 9.48798L37.6528 9.47579C31.7448 8.05017 25.7392 6.58799 19.9289 5.17455C14.6557 3.89514 9.39468 2.61573 4.12146 1.33633C3.98718 1.29977 3.85291 1.26322 3.70643 1.22666C3.23038 1.09263 2.68109 0.946413 2.09517 1.01952C1.92428 1.04389 1.7778 1.10482 1.64353 1.19011L1.49705 1.31196C1.26513 1.53129 1.14306 1.81154 1.08203 1.96994L1.04541 2.06742V2.62792L1.06982 2.71321C4.40221 12.0346 7.82003 21.49 11.1158 30.6408C13.6548 37.6837 16.2914 44.9824 18.8669 52.1471C19.0256 52.6345 19.4773 52.9513 20.0388 53H20.1608C20.6857 53 21.1496 52.7441 21.3815 52.3298L31.0491 38.2564C33.4049 34.8324 35.7608 31.3963 38.1166 27.9724C39.081 26.5711 40.0453 25.1577 41.0096 23.7564C42.5964 21.4413 44.2321 19.0531 45.8556 16.7258L45.941 16.6039V16.4577C45.9776 16.0312 45.9898 15.1539 45.2819 14.6909ZM33.9542 19.8207C31.6838 21.0026 29.3646 22.2211 27.0331 23.4274C28.388 21.9774 29.7552 20.5152 31.1101 19.0653C32.8068 17.2375 34.5767 15.3489 36.3101 13.4968L36.3467 13.4602C36.4932 13.2653 36.6763 13.0825 36.8716 12.8875C37.0058 12.7535 37.1523 12.6195 37.2866 12.4611C38.1899 13.0825 39.1054 13.7161 39.9842 14.3375C40.619 14.7884 41.2659 15.2392 41.9251 15.6901C39.2396 17.0548 36.5542 18.456 33.9542 19.8207ZM28.1195 19.2358C26.374 21.1245 24.5674 23.0619 22.773 24.9749C19.2942 20.7589 15.7421 16.4821 12.2998 12.3514C10.7374 10.4749 9.16275 8.5863 7.60032 6.70984L7.58811 6.69765C7.23412 6.29555 6.89234 5.8569 6.55056 5.44261C6.33084 5.16236 6.09891 4.8943 5.86699 4.61405C7.28295 4.97959 8.71111 5.32077 10.1149 5.64976C11.3477 5.94219 12.6294 6.24681 13.8867 6.56362C20.9665 8.28168 28.0585 9.99974 35.1382 11.7178C32.7824 14.2279 30.4143 16.7745 28.1195 19.2358ZM21.9796 42.9841C22.1139 41.7047 22.2604 40.3887 22.3824 39.0971C22.4923 38.0614 22.6021 37.0013 22.712 35.99C22.8829 34.3694 23.066 32.6879 23.2125 31.0429L23.2491 30.7505C23.3711 29.7026 23.4932 28.6182 23.5665 27.5337C23.7007 27.4606 23.8472 27.3875 24.0059 27.3266C24.189 27.2413 24.3721 27.1682 24.5552 27.0585C27.3749 25.5841 30.1946 24.1098 33.0265 22.6476C35.8462 21.1854 38.7392 19.6745 41.6077 18.1758C38.9955 21.9531 36.3711 25.7669 33.8321 29.4833C31.6472 32.6635 29.4012 35.9412 27.1674 39.1702C26.2885 40.4618 25.373 41.7778 24.5064 43.045C23.5298 44.4584 22.5289 45.9084 21.5524 47.3584C21.6744 45.8962 21.8209 44.4219 21.9796 42.9841ZM4.96371 7.48966C4.80502 7.05101 4.63413 6.60017 4.48765 6.1737C7.78342 10.146 11.1036 14.1426 14.3383 18.0174C16.0106 20.0279 17.6829 22.0262 19.3552 24.0488C19.6848 24.4266 20.0144 24.8287 20.3317 25.2186C20.7467 25.7182 21.1618 26.2421 21.6134 26.7417C21.4669 27.9967 21.3449 29.264 21.2106 30.4824C21.1252 31.3354 21.0397 32.1883 20.9421 33.0534V33.0656C20.9054 33.6139 20.8322 34.1623 20.7712 34.6984C20.6857 35.4417 20.4904 37.1232 20.4904 37.1232L20.4782 37.2085C20.2585 39.6698 19.9899 42.1555 19.7336 44.5681C19.6237 45.5673 19.5261 46.5908 19.4162 47.6143C19.3552 47.4315 19.282 47.2488 19.2209 47.0782C19.0378 46.5908 18.8547 46.079 18.6838 45.5794L17.3777 41.9605C13.2397 30.4703 9.10172 18.9921 4.96371 7.48966Z" fill="white" stroke="white" stroke-width="0.5"/>
</svg>